<svg width="42" height="42" viewBox="0 0 42 42" fill="none" xmlns="http://www.w3.org/2000/svg">
<path fill-rule="evenodd" clip-rule="evenodd" d="M20.6575 4.71205C20.9332 5.78119 20.2899 6.87136 19.2208 7.14702C18.1517 7.42269 17.0615 6.77945 16.7858 5.71031C16.5102 4.64117 17.1534 3.551 18.2226 3.27534C19.2917 2.99968 20.3819 3.64292 20.6575 4.71205ZM20.8182 8.01386C20.4632 8.27965 20.0514 8.48193 19.5953 8.59952C19.1921 8.70348 18.7872 8.73277 18.3952 8.69603L15.2571 17.0643L17.1001 17.567C17.435 15.7031 18.82 14.1114 20.7738 13.6077C23.4471 12.9184 26.1731 14.5268 26.8623 17.2001C26.8941 17.3234 26.921 17.4468 26.9432 17.5701L33.6826 16.7277C33.7072 16.4255 33.7775 16.1319 33.8883 15.8559L20.8182 8.01386ZM34.7818 14.6427L21.8087 6.85884C22.2071 6.11282 22.3378 5.22108 22.11 4.33755C21.6275 2.46622 19.7194 1.34035 17.848 1.82284C15.9767 2.30534 14.8508 4.21349 15.3333 6.08482C15.4139 6.39737 15.5343 6.68913 15.6876 6.95607L6.9776 13.0531C6.29568 12.6057 5.43483 12.4365 4.58289 12.6562C2.9789 13.0697 2.01387 14.7053 2.42743 16.3093C2.841 17.9133 4.47656 18.8783 6.08055 18.4647C6.41101 18.3795 6.71436 18.2425 6.98411 18.0645L11.563 22.6433L8.63556 30.4497C8.314 30.4017 7.9777 30.4159 7.64304 30.5022C6.30638 30.8469 5.50218 32.2098 5.84682 33.5465C6.19146 34.8831 7.55443 35.6873 8.89109 35.3427C9.68001 35.1393 10.2834 34.5811 10.5747 33.883L22.875 36.5188C23.4332 38.2765 25.2752 39.3112 27.0828 38.8451C28.9542 38.3626 30.08 36.4545 29.5975 34.5832C29.5065 34.2299 29.3646 33.9032 29.1817 33.6089L35.6339 19.7828C36.1866 19.9871 36.805 20.0309 37.4188 19.8726C39.0216 19.4594 39.9859 17.8251 39.5727 16.2223C39.1594 14.6195 37.5251 13.6552 35.9223 14.0684C35.4911 14.1796 35.1062 14.3792 34.7818 14.6427ZM10.7063 32.3772L22.745 34.9569C22.7893 34.6511 22.8738 34.3546 22.9944 34.0747L12.7281 23.8084L9.9896 31.111C10.3181 31.4227 10.5659 31.8275 10.6873 32.2984C10.6941 32.3247 10.7004 32.3509 10.7063 32.3772ZM25.1123 32.1339C24.6457 32.2874 24.231 32.5318 23.8829 32.8419L13.3066 22.2656L14.7281 18.4748L17.0669 19.1127C17.0932 19.3069 17.1312 19.5017 17.1814 19.6962C17.8044 22.1126 20.0914 23.6589 22.4996 23.4248L25.1123 32.1339ZM28.0522 32.4823C27.6247 32.2175 27.1408 32.0445 26.6329 31.9824L23.9557 23.0584C25.6257 22.3603 26.7609 20.8191 26.9823 19.0769L33.9401 18.2072C34.0568 18.4656 34.2076 18.7015 34.3856 18.9108L28.0522 32.4823ZM16.7079 8.07286L7.99204 14.174C8.09527 14.3725 8.17776 14.5857 8.23601 14.8116C8.26668 14.9306 8.28977 15.0497 8.30558 15.1685L13.8037 16.668L16.9651 8.23751C16.8771 8.18639 16.7912 8.13145 16.7079 8.07286ZM8.11764 16.672C8.07981 16.7666 8.03724 16.8591 7.99014 16.9492L12.1415 21.1005L13.2748 18.0785L8.11764 16.672ZM5.70605 17.0122C6.50785 16.8055 6.99025 15.9879 6.78352 15.1861C6.57678 14.3843 5.7592 13.9019 4.9574 14.1086C4.1556 14.3154 3.6732 15.133 3.87993 15.9348C4.08666 16.7366 4.90424 17.219 5.70605 17.0122ZM22.8954 21.8361C24.7665 21.3537 25.8923 19.4457 25.4098 17.5746C24.9274 15.7035 23.0194 14.5777 21.1483 15.0601C19.2772 15.5426 18.1514 17.4505 18.6339 19.3217C19.1163 21.1928 21.0243 22.3186 22.8954 21.8361ZM38.1202 16.5968C38.3266 17.3974 37.8449 18.2137 37.0443 18.4201C36.2438 18.6266 35.4274 18.1449 35.221 17.3443C35.0146 16.5437 35.4962 15.7274 36.2968 15.5209C37.0974 15.3145 37.9138 15.7962 38.1202 16.5968ZM26.7083 37.3926C27.7775 37.117 28.4207 36.0268 28.1451 34.9577C27.8694 33.8885 26.7792 33.2453 25.7101 33.521C24.6409 33.7966 23.9977 34.8868 24.2734 35.9559C24.549 37.0251 25.6392 37.6683 26.7083 37.3926ZM9.23481 32.6729C9.37262 33.2074 9.05105 33.7524 8.51658 33.8902C7.98211 34.028 7.43712 33.7064 7.29932 33.172C7.16151 32.6375 7.48307 32.0925 8.01755 31.9547C8.55202 31.8169 9.097 32.1385 9.23481 32.6729Z" fill="white"/>
</svg>
