<svg width="42" height="42" viewBox="0 0 42 42" fill="none" xmlns="http://www.w3.org/2000/svg">
<path fill-rule="evenodd" clip-rule="evenodd" d="M16.4448 21.3313C16.4448 22.6523 17.4966 23.7276 18.8084 23.7656L18.8487 23.7665L18.8802 23.7667L18.9118 23.7665H25.4664L25.498 23.7667L25.5295 23.7665H25.6476V23.7621C26.9229 23.6848 27.9333 22.626 27.9333 21.3313C27.9333 20.041 26.93 18.9852 25.661 18.9013C25.3985 17.2202 23.9442 15.9339 22.1894 15.9339C20.4346 15.9339 18.9803 17.2201 18.7178 18.9012C17.4485 18.9848 16.4448 20.0408 16.4448 21.3313ZM25.4664 22.2665H18.9118L18.8802 22.2667L18.8608 22.2665L18.8518 22.2662C18.3488 22.2517 17.9448 21.8384 17.9448 21.3313C17.9448 20.8362 18.3303 20.43 18.8164 20.398C19.5168 20.3519 20.0916 19.8262 20.1999 19.1327C20.3501 18.1705 21.1851 17.4339 22.1894 17.4339C23.1937 17.4339 24.0287 18.1705 24.1789 19.1327C24.2872 19.8261 24.8618 20.3517 25.5621 20.398C26.048 20.4301 26.4333 20.8363 26.4333 21.3313C26.4333 21.828 26.0453 22.2353 25.5568 22.2649L25.5338 22.2665H25.5295L25.498 22.2667L25.4664 22.2665Z" fill="white"/>
<path fill-rule="evenodd" clip-rule="evenodd" d="M30.8705 19.8501C30.8705 24.6446 26.9838 28.5314 22.1892 28.5314C17.3946 28.5314 13.5078 24.6446 13.5078 19.8501C13.5078 15.0555 17.3946 11.1687 22.1892 11.1687C26.9838 11.1687 30.8705 15.0555 30.8705 19.8501ZM29.3705 19.8501C29.3705 23.8162 26.1553 27.0314 22.1892 27.0314C18.223 27.0314 15.0078 23.8162 15.0078 19.8501C15.0078 15.8839 18.223 12.6687 22.1892 12.6687C26.1553 12.6687 29.3705 15.8839 29.3705 19.8501Z" fill="white"/>
<path fill-rule="evenodd" clip-rule="evenodd" d="M11.2245 38.6948C11.2345 38.695 11.2445 38.695 11.2545 38.695H36.4423L36.4423 3.30469H9.93604C8.83147 3.30469 7.93604 4.20012 7.93604 5.30469V9.78955H6.30762C5.8934 9.78955 5.55762 10.1253 5.55762 10.5396C5.55762 10.9538 5.8934 11.2896 6.30762 11.2896H7.93604V15.9966H6.30762C5.8934 15.9966 5.55762 16.3324 5.55762 16.7466C5.55762 17.1608 5.8934 17.4966 6.30762 17.4966H7.93604V22.2041H6.30762C5.8934 22.2041 5.55762 22.5399 5.55762 22.9541C5.55762 23.3683 5.8934 23.7041 6.30762 23.7041H7.93604V28.4111H6.30762C5.8934 28.4111 5.55762 28.7469 5.55762 29.1611C5.55762 29.5753 5.8934 29.9111 6.30762 29.9111H7.93604V36.6948C7.93604 37.7994 8.83147 38.6948 9.93604 38.6948H11.2245ZM34.9423 4.80469H9.93604C9.65989 4.80469 9.43604 5.02855 9.43604 5.30469V9.78955H11.2603C11.6746 9.78955 12.0103 10.1253 12.0103 10.5396C12.0103 10.9538 11.6746 11.2896 11.2603 11.2896H9.43604V15.9966H11.2603C11.6746 15.9966 12.0103 16.3324 12.0103 16.7466C12.0103 17.1608 11.6746 17.4966 11.2603 17.4966H9.43604V22.2041H11.2603C11.6746 22.2041 12.0103 22.5399 12.0103 22.9541C12.0103 23.3683 11.6746 23.7041 11.2603 23.7041H9.43604V28.4111H11.2603C11.6746 28.4111 12.0103 28.7469 12.0103 29.1611C12.0103 29.5753 11.6746 29.9111 11.2603 29.9111H9.43604V34.7302C9.87605 34.2196 10.5275 33.8962 11.2545 33.8962H34.9423L34.9423 4.80469ZM34.9423 37.1948L34.9423 35.3962H11.2545C10.7578 35.3962 10.3551 35.7989 10.3551 36.2956C10.3551 36.7862 10.7479 37.1851 11.2362 37.1948H34.9423Z" fill="white"/>
</svg>
