<svg width="42" height="42" viewBox="0 0 42 42" fill="none" xmlns="http://www.w3.org/2000/svg">
<path fill-rule="evenodd" clip-rule="evenodd" d="M17.2077 24.2778H15.4927L18.7704 15.1116H20.6125L23.8902 24.2778H22.1688L21.3938 21.9084H17.9827L17.2077 24.2778ZM19.7105 16.7441H19.6724L18.3956 20.6444H20.9809L19.7105 16.7441Z" fill="white"/>
<path d="M26.5073 24.2778H24.8684V15.1116H26.5073V24.2778Z" fill="white"/>
<path fill-rule="evenodd" clip-rule="evenodd" d="M3.18164 21.4007C3.18164 18.1016 5.54881 15.3554 8.67732 14.7679C8.63507 14.4171 8.61332 14.0601 8.61332 13.698C8.61332 8.81013 12.5757 4.84772 17.4636 4.84772C20.7169 4.84772 23.5602 6.60305 25.098 9.21828C25.4914 9.14122 25.8979 9.10083 26.3139 9.10083C29.1799 9.10083 31.5981 11.0182 32.3558 13.6401C35.9914 14.0451 38.8184 17.1286 38.8184 20.8724C38.8184 24.849 35.6288 28.0807 31.6684 28.1487V28.1497H21.7495V30.6528H23.2496C23.8019 30.6528 24.2496 31.1005 24.2496 31.6528V33.1758H30.2077V31.6528C30.2077 31.1005 30.6554 30.6528 31.2077 30.6528H35.7073C36.2596 30.6528 36.7073 31.1005 36.7073 31.6528V36.1524C36.7073 36.7047 36.2596 37.1524 35.7073 37.1524H31.2077C30.6554 37.1524 30.2077 36.7047 30.2077 36.1524V34.6758H24.2496V36.1524C24.2496 36.7047 23.8019 37.1524 23.2496 37.1524H18.75C18.1977 37.1524 17.75 36.7047 17.75 36.1524V34.6758H11.7921V36.1525C11.7921 36.7048 11.3444 37.1525 10.7921 37.1525H6.29248C5.7402 37.1525 5.29248 36.7048 5.29248 36.1525V31.6529C5.29248 31.1006 5.7402 30.6529 6.29248 30.6529H10.7921C11.3444 30.6529 11.7921 31.1006 11.7921 31.6529V33.1758H17.75V31.6528C17.75 31.1005 18.1977 30.6528 18.75 30.6528H20.2495V28.1497H9.83683C6.1527 28.0995 3.18164 25.0968 3.18164 21.4007ZM31.6426 26.6489L31.5919 26.6497H31.5428L31.541 26.6497L31.5391 26.6497H9.93239L9.93066 26.6497L9.92893 26.6497H9.8938L9.85727 26.6492C6.99239 26.6102 4.68164 24.2752 4.68164 21.4007C4.68164 18.8365 6.52185 16.6989 8.95418 16.2421L10.3346 15.9829L10.1666 14.5884C10.1315 14.2971 10.1133 14 10.1133 13.698C10.1133 9.63855 13.4042 6.34772 17.4636 6.34772C20.1637 6.34772 22.5255 7.80273 23.805 9.97863L24.3437 10.8946L25.3864 10.6903C25.6853 10.6317 25.9953 10.6008 26.3139 10.6008C28.4941 10.6008 30.3375 12.0591 30.9147 14.0565L31.1931 15.0199L32.1897 15.1309C35.0744 15.4523 37.3184 17.9013 37.3184 20.8724C37.3184 24.0292 34.7862 26.5949 31.6426 26.6489ZM19.25 32.1528V35.6524H22.7496V32.1528H19.25ZM6.79248 35.6525V32.1529H10.2921V35.6525H6.79248ZM31.7077 32.1528V35.6524H35.2073V32.1528H31.7077Z" fill="white"/>
</svg>
