<svg width="42" height="42" viewBox="0 0 42 42" fill="none" xmlns="http://www.w3.org/2000/svg">
<path fill-rule="evenodd" clip-rule="evenodd" d="M18.4604 1.65753C17.4939 1.65753 16.7104 2.44103 16.7104 3.40753V5.64623L8.46935 12.0123V11.0001C8.46935 10.0336 7.68584 9.25006 6.71935 9.25006H2.71935C1.75285 9.25006 0.969345 10.0336 0.969345 11.0001V15.0001C0.969345 15.9666 1.75285 16.7501 2.71935 16.7501H6.71935C7.68584 16.7501 8.46935 15.9666 8.46935 15.0001V14.9038L16.4167 21.3174L8.46935 28.4037V27.0001C8.46935 26.0336 7.68584 25.2501 6.71935 25.2501H2.71935C1.75285 25.2501 0.969345 26.0336 0.969345 27.0001V31.0001C0.969345 31.9666 1.75285 32.7501 2.71935 32.7501H6.71935C7.68584 32.7501 8.46935 31.9666 8.46935 31.0001V30.0392L16.7104 36.1343V38.5925C16.7104 39.559 17.4939 40.3425 18.4604 40.3425H24.4604C25.4269 40.3425 26.2104 39.559 26.2104 38.5925V36.3176L33.0059 25.7285C33.0955 25.7427 33.1873 25.75 33.2809 25.75H39.2809C40.2474 25.75 41.0309 24.9665 41.0309 24V18C41.0309 17.0335 40.2474 16.25 39.2809 16.25H33.2809C33.0769 16.25 32.8811 16.2849 32.6991 16.349L26.2104 6.23797V3.40753C26.2104 2.44103 25.4269 1.65753 24.4604 1.65753H18.4604ZM16.7104 32.5925V34.2805L9.8351 29.1956L16.7104 23.0652V24.0001C16.7104 24.9666 17.4939 25.7501 18.4604 25.7501H24.4604C25.4269 25.7501 26.2104 24.9666 26.2104 24.0001V21.5775H31.5309V24C31.5309 24.3209 31.6172 24.6216 31.768 24.8801L26.2104 33.5403V32.5925C26.2104 31.626 25.4269 30.8425 24.4604 30.8425H18.4604C17.4939 30.8425 16.7104 31.626 16.7104 32.5925ZM26.2104 20.0775H31.5309V18C31.5309 17.8062 31.5624 17.6198 31.6205 17.4456L26.2104 9.01527V9.40753C26.2104 10.374 25.4269 11.1575 24.4604 11.1575H18.4604C17.4939 11.1575 16.7104 10.374 16.7104 9.40753V7.52505L9.0486 13.4437L16.7104 19.6269V18.0001C16.7104 17.0336 17.4939 16.2501 18.4604 16.2501H24.4604C25.4269 16.2501 26.2104 17.0336 26.2104 18.0001V20.0775ZM18.2104 3.40753C18.2104 3.26946 18.3223 3.15753 18.4604 3.15753H24.4604C24.5985 3.15753 24.7104 3.26946 24.7104 3.40753V9.40753C24.7104 9.5456 24.5985 9.65753 24.4604 9.65753H18.4604C18.3223 9.65753 18.2104 9.5456 18.2104 9.40753V3.40753ZM2.71935 10.7501C2.58127 10.7501 2.46935 10.862 2.46935 11.0001V15.0001C2.46935 15.1381 2.58127 15.2501 2.71935 15.2501H6.71935C6.85742 15.2501 6.96935 15.1381 6.96935 15.0001V11.0001C6.96935 10.862 6.85742 10.7501 6.71935 10.7501H2.71935ZM2.46935 27.0001C2.46935 26.862 2.58127 26.7501 2.71935 26.7501H6.71935C6.85742 26.7501 6.96935 26.862 6.96935 27.0001V31.0001C6.96935 31.1381 6.85742 31.2501 6.71935 31.2501H2.71935C2.58127 31.2501 2.46935 31.1381 2.46935 31.0001V27.0001ZM33.2809 17.75C33.1428 17.75 33.0309 17.8619 33.0309 18V24C33.0309 24.1381 33.1428 24.25 33.2809 24.25H39.2809C39.419 24.25 39.5309 24.1381 39.5309 24V18C39.5309 17.8619 39.419 17.75 39.2809 17.75H33.2809ZM18.4604 32.3425C18.3223 32.3425 18.2104 32.4544 18.2104 32.5925V38.5925C18.2104 38.7306 18.3223 38.8425 18.4604 38.8425H24.4604C24.5984 38.8425 24.7104 38.7306 24.7104 38.5925V32.5925C24.7104 32.4544 24.5984 32.3425 24.4604 32.3425H18.4604ZM18.2104 18.0001C18.2104 17.862 18.3223 17.7501 18.4604 17.7501H24.4604C24.5984 17.7501 24.7104 17.862 24.7104 18.0001V24.0001C24.7104 24.1381 24.5984 24.2501 24.4604 24.2501H18.4604C18.3223 24.2501 18.2104 24.1381 18.2104 24.0001V18.0001Z" fill="white"/>
</svg>
