<svg width="42" height="42" viewBox="0 0 42 42" fill="none" xmlns="http://www.w3.org/2000/svg">
<path fill-rule="evenodd" clip-rule="evenodd" d="M3.88867 25.2072V11.448H31.4072V16.2784C31.4072 16.6926 31.743 17.0284 32.1572 17.0284C32.5714 17.0284 32.9072 16.6926 32.9072 16.2784V7.34962C32.9072 5.7026 31.572 4.36743 29.925 4.36743H5.37086C3.72384 4.36743 2.38867 5.7026 2.38867 7.34962V25.2072C2.38867 26.8542 3.72384 28.1893 5.37086 28.1893H17.6479C18.0621 28.1893 18.3979 27.8536 18.3979 27.4393C18.3979 27.0251 18.0621 26.6893 17.6479 26.6893H5.37086C4.55227 26.6893 3.88867 26.0257 3.88867 25.2072ZM5.37086 5.86743C4.55227 5.86743 3.88867 6.53103 3.88867 7.34962V9.948H31.4072V7.34962C31.4072 6.53103 30.7436 5.86743 29.925 5.86743H5.37086Z" fill="white"/>
<path d="M21.1882 20.9086V14.7961C21.1882 14.3819 20.8524 14.0461 20.4382 14.0461C20.024 14.0461 19.6882 14.3819 19.6882 14.7961V20.9086C19.6882 21.3228 20.024 21.6586 20.4382 21.6586C20.8524 21.6586 21.1882 21.3228 21.1882 20.9086Z" fill="white"/>
<path d="M15.6077 17.0283V23.341C15.6077 23.7552 15.2719 24.091 14.8577 24.091C14.4435 24.091 14.1077 23.7552 14.1077 23.341V17.0283C14.1077 16.6141 14.4435 16.2783 14.8577 16.2783C15.2719 16.2783 15.6077 16.6141 15.6077 17.0283Z" fill="white"/>
<path d="M10.0273 19.2607V23.3412C10.0273 23.7554 9.69156 24.0912 9.27734 24.0912C8.86313 24.0912 8.52734 23.7554 8.52734 23.3412V19.2607C8.52734 18.8465 8.86313 18.5107 9.27734 18.5107C9.69156 18.5107 10.0273 18.8465 10.0273 19.2607Z" fill="white"/>
<path d="M26.7686 16.3671V17.6721C26.7686 18.0863 26.4328 18.4221 26.0186 18.4221C25.6043 18.4221 25.2686 18.0863 25.2686 17.6721V16.3671C25.2686 15.9529 25.6043 15.6171 26.0186 15.6171C26.4328 15.6171 26.7686 15.9529 26.7686 16.3671Z" fill="white"/>
<path fill-rule="evenodd" clip-rule="evenodd" d="M27.4361 19.9927C24.0816 19.9927 21.3623 22.712 21.3623 26.0665C21.3623 29.4209 24.0816 32.1403 27.4361 32.1403C28.961 32.1403 30.3546 31.5784 31.4212 30.6503L33.0375 32.2667L32.7165 32.5877C32.4236 32.8806 32.4236 33.3555 32.7165 33.6484L36.481 37.4129C36.7739 37.7058 37.2488 37.7058 37.5416 37.4129L39.3917 35.5628C39.6846 35.2699 39.6846 34.7951 39.3917 34.5022L35.6272 30.7377C35.3343 30.4448 34.8594 30.4448 34.5665 30.7377L34.0982 31.206L32.4246 29.5324C33.1088 28.5495 33.5099 27.3548 33.5099 26.0665C33.5099 22.712 30.7906 19.9927 27.4361 19.9927ZM22.8623 26.0665C22.8623 23.5404 24.9101 21.4927 27.4361 21.4927C29.9621 21.4927 32.0099 23.5404 32.0099 26.0665C32.0099 28.5925 29.9621 30.6403 27.4361 30.6403C24.9101 30.6403 22.8623 28.5925 22.8623 26.0665ZM37.0113 35.8219L34.3075 33.118L35.0969 32.3287L37.8007 35.0325L37.0113 35.8219Z" fill="white"/>
</svg>
