<svg width="42" height="42" viewBox="0 0 42 42" fill="none" xmlns="http://www.w3.org/2000/svg">
<path d="M29.9476 6.24951C30.3618 6.24951 30.6976 6.5853 30.6976 6.99951V26.9453C30.6976 27.3595 30.3618 27.6953 29.9476 27.6953C29.5334 27.6953 29.1976 27.3595 29.1976 26.9453V6.99951C29.1976 6.5853 29.5334 6.24951 29.9476 6.24951Z" fill="white"/>
<path d="M26.9535 9.87646C27.3677 9.87646 27.7035 10.2123 27.7035 10.6265V23.3192C27.7035 23.7334 27.3677 24.0692 26.9535 24.0692C26.5393 24.0692 26.2035 23.7334 26.2035 23.3192V10.6265C26.2035 10.2123 26.5393 9.87646 26.9535 9.87646Z" fill="white"/>
<path d="M10.0004 14.4097C10.4146 14.4097 10.7504 14.7455 10.7504 15.1597V17.5608C10.7504 17.975 10.4146 18.3108 10.0004 18.3108C9.58615 18.3108 9.25037 17.975 9.25037 17.5608V15.1597C9.25037 14.7455 9.58615 14.4097 10.0004 14.4097Z" fill="white"/>
<path d="M20.9711 14.8628C21.3853 14.8628 21.7211 15.1986 21.7211 15.6128V18.786C21.7211 19.2002 21.3853 19.536 20.9711 19.536C20.5569 19.536 20.2211 19.2002 20.2211 18.786V15.6128C20.2211 15.1986 20.5569 14.8628 20.9711 14.8628Z" fill="white"/>
<path d="M39.7504 15.6128C39.7504 15.1986 39.4146 14.8628 39.0004 14.8628C38.5862 14.8628 38.2504 15.1986 38.2504 15.6128V18.786C38.2504 19.2002 38.5862 19.536 39.0004 19.536C39.4146 19.536 39.7504 19.2002 39.7504 18.786V15.6128Z" fill="white"/>
<path d="M33.7504 11.5327C33.7504 11.1185 33.4146 10.7827 33.0004 10.7827C32.5862 10.7827 32.2504 11.1185 32.2504 11.5327V22.8655C32.2504 23.2798 32.5862 23.6155 33.0004 23.6155C33.4146 23.6155 33.7504 23.2798 33.7504 22.8655V11.5327Z" fill="white"/>
<path d="M23.963 13.5024C24.3772 13.5024 24.713 13.8382 24.713 14.2524V19.6922C24.713 20.1064 24.3772 20.4422 23.963 20.4422C23.5488 20.4422 23.213 20.1064 23.213 19.6922V14.2524C23.213 13.8382 23.5488 13.5024 23.963 13.5024Z" fill="white"/>
<path d="M36.7504 13.8003C36.7504 13.3861 36.4146 13.0503 36.0004 13.0503C35.5862 13.0503 35.2504 13.3861 35.2504 13.8003V20.1467C35.2504 20.5609 35.5862 20.8967 36.0004 20.8967C36.4146 20.8967 36.7504 20.5609 36.7504 20.1467V13.8003Z" fill="white"/>
<path d="M13.2445 12.8931C13.2445 12.4789 12.9087 12.1431 12.4945 12.1431C12.0803 12.1431 11.7445 12.4789 11.7445 12.8931V16.9724C11.7445 17.3866 12.0803 17.7224 12.4945 17.7224C12.9087 17.7224 13.2445 17.3866 13.2445 16.9724V12.8931Z" fill="white"/>
<path d="M18.4769 11.2358C18.8911 11.2358 19.2269 11.5716 19.2269 11.9858V19.6022C19.2269 20.0164 18.8911 20.3522 18.4769 20.3522C18.0627 20.3522 17.7269 20.0164 17.7269 19.6022V11.9858C17.7269 11.5716 18.0627 11.2358 18.4769 11.2358Z" fill="white"/>
<path d="M16.2347 9.26709C16.2347 8.85288 15.899 8.51709 15.4847 8.51709C15.0705 8.51709 14.7347 8.85288 14.7347 9.26709L14.7347 17.5608C14.7347 17.975 15.0705 18.3108 15.4847 18.3108C15.899 18.3108 16.2347 17.975 16.2347 17.5608L16.2347 9.26709Z" fill="white"/>
<path fill-rule="evenodd" clip-rule="evenodd" d="M12.2219 19.2495C8.50805 19.2495 5.43779 22.1331 5.43779 25.7621C5.43779 26.7722 5.67778 27.7289 6.10483 28.5815L2.95855 31.6832C1.98924 32.6388 2.01753 34.1753 3.02137 35.0945C4.00312 35.9935 5.55239 35.965 6.50038 35.0304L9.74869 31.8282C10.5162 32.1167 11.3508 32.2746 12.2219 32.2746C15.9357 32.2746 19.006 29.391 19.006 25.7621C19.006 22.1331 15.9357 19.2495 12.2219 19.2495ZM6.93779 25.7621C6.93779 23.0259 9.27064 20.7495 12.2219 20.7495C15.1731 20.7495 17.506 23.0259 17.506 25.7621C17.506 28.4982 15.1731 30.7746 12.2219 30.7746C11.3845 30.7746 10.5953 30.5903 9.89481 30.2636L9.42247 30.0434L5.44732 33.9622C5.06807 34.3361 4.42714 34.3479 4.03439 33.9883C3.66371 33.6488 3.65368 33.1042 4.01161 32.7514L7.99341 28.826L7.67438 28.3162C7.20561 27.5672 6.93779 26.6946 6.93779 25.7621Z" fill="white"/>
</svg>
