<svg width="42" height="42" viewBox="0 0 42 42" fill="none" xmlns="http://www.w3.org/2000/svg">
<path d="M16.2264 3.75C15.9423 3.75 15.6826 3.91051 15.5556 4.16462L6.82917 21.6192C6.71293 21.8517 6.72536 22.1278 6.86202 22.3489C6.99868 22.57 7.24007 22.7045 7.5 22.7045H15.1469L10.1084 36.2383C9.98474 36.5705 10.1106 36.944 10.4101 37.1336C10.7096 37.3233 11.1009 37.2773 11.3484 37.0235L18.9486 29.226C19.2377 28.9293 19.2316 28.4545 18.935 28.1654C18.6384 27.8763 18.1635 27.8824 17.8744 28.179L12.7534 33.4329L16.9293 22.2162C17.015 21.986 16.9825 21.7284 16.8424 21.5266C16.7022 21.3249 16.4721 21.2045 16.2264 21.2045H8.71347L16.69 5.25H31.0917L24.3305 15.3022C24.1756 15.5325 24.1605 15.8296 24.2914 16.0744C24.4223 16.3192 24.6778 16.4717 24.9554 16.4708L29.3007 16.456L27.9035 17.8895C27.6143 18.1861 27.6204 18.661 27.9171 18.9501C28.2137 19.2392 28.6885 19.2331 28.9776 18.9365L31.622 16.2235C31.8328 16.0072 31.8933 15.6855 31.7755 15.4074C31.6576 15.1293 31.3844 14.949 31.0824 14.95L26.3644 14.966L33.1223 4.91858C33.277 4.68861 33.2923 4.39209 33.162 4.14746C33.0317 3.90284 32.7771 3.75 32.5 3.75H16.2264Z" fill="white"/>
<path d="M27.7672 20.9712C27.4752 20.6775 27.0003 20.6761 26.7065 20.9681C26.4128 21.2601 26.4114 21.735 26.7034 22.0288L26.9592 22.286C23.4452 22.7937 20.75 25.8335 20.75 29.5C20.75 31.9215 21.9256 34.0684 23.7331 35.3931C24.0672 35.6379 24.5366 35.5656 24.7814 35.2315C25.0263 34.8974 24.9539 34.4281 24.6198 34.1832C23.183 33.1302 22.25 31.4255 22.25 29.5C22.25 26.6642 24.2737 24.31 26.9405 23.8097L26.7034 24.0482C26.4114 24.3419 26.4128 24.8168 26.7065 25.1088C27.0003 25.4008 27.4752 25.3994 27.7672 25.1057L29.2966 23.5672C29.5874 23.2747 29.5874 22.8022 29.2966 22.5097L27.7672 20.9712Z" fill="white"/>
<path d="M32.2669 23.6069C31.9328 23.3621 31.4634 23.4344 31.2186 23.7685C30.9737 24.1026 31.0461 24.5719 31.3802 24.8168C32.817 25.8698 33.75 27.5745 33.75 29.5C33.75 32.3358 31.7263 34.69 29.0595 35.1903L29.2966 34.9518C29.5886 34.6581 29.5872 34.1832 29.2935 33.8912C28.9997 33.5992 28.5248 33.6006 28.2328 33.8943L26.7034 35.4328C26.4126 35.7253 26.4126 36.1978 26.7034 36.4903L28.2328 38.0288C28.5248 38.3225 28.9997 38.3239 29.2935 38.0319C29.5872 37.7399 29.5886 37.265 29.2966 36.9712L29.0408 36.714C32.5548 36.2063 35.25 33.1665 35.25 29.5C35.25 27.0785 34.0744 24.9316 32.2669 23.6069Z" fill="white"/>
</svg>
