<svg width="42" height="42" viewBox="0 0 42 42" fill="none" xmlns="http://www.w3.org/2000/svg">
<path fill-rule="evenodd" clip-rule="evenodd" d="M14.6635 3.48962C17.7011 3.48962 20.1635 5.95206 20.1635 8.98962C20.1635 12.0272 17.7011 14.4896 14.6635 14.4896C11.6259 14.4896 9.16351 12.0272 9.16351 8.98962C9.16351 5.95206 11.6259 3.48962 14.6635 3.48962ZM14.6635 1.98962C17.4733 1.98962 19.8965 3.64512 21.0107 6.03394C27.4384 6.61579 32.8022 10.8839 34.9713 16.7074C38.1283 17.3852 40.4948 20.1919 40.4948 23.5514C40.4948 27.2824 37.5759 30.3316 33.897 30.54C31.07 35.5688 25.6838 38.9661 19.5041 38.9661C18.0351 38.9661 16.6109 38.7741 15.2553 38.4139C14.0457 39.4112 12.4954 40.0103 10.8052 40.0103C6.93921 40.0103 3.80521 36.8762 3.80521 33.0103C3.80521 31.7993 4.11272 30.6601 4.65391 29.6666C3.59692 27.4907 3.00406 25.0476 3.00406 22.4661C3.00406 17.8845 4.87141 13.739 7.88654 10.7493C7.74096 10.187 7.66351 9.59738 7.66351 8.98962C7.66351 5.12363 10.7975 1.98962 14.6635 1.98962ZM33.5201 30.5513C33.5117 30.5514 33.5032 30.5514 33.4948 30.5514C33.4948 30.5514 33.4948 30.5514 33.4948 30.5514C33.5032 30.5514 33.5117 30.5514 33.5201 30.5513ZM31.6961 30.3181C28.7017 29.5243 26.4948 26.7955 26.4948 23.5514C26.4948 19.9323 29.2413 16.9547 32.7636 16.5891C30.7813 12.1232 26.609 8.84514 21.6098 8.11785C21.6452 8.40346 21.6635 8.69441 21.6635 8.98962C21.6635 12.8556 18.5295 15.9896 14.6635 15.9896C12.1767 15.9896 9.9927 14.6928 8.75098 12.7386C6.42241 15.311 5.00406 18.7229 5.00406 22.4661C5.00406 24.3785 5.37428 26.2044 6.04697 27.8761C7.2958 26.7182 8.96784 26.0103 10.8052 26.0103C14.6712 26.0103 17.8052 29.1443 17.8052 33.0103C17.8052 34.3666 17.4195 35.6328 16.7517 36.7052C17.6428 36.8764 18.563 36.9661 19.5041 36.9661C24.6186 36.9661 29.1147 34.318 31.6961 30.3181ZM16.3052 33.0103C16.3052 29.9727 13.8428 27.5103 10.8052 27.5103C7.76764 27.5103 5.30521 29.9727 5.30521 33.0103C5.30521 36.0478 7.76764 38.5103 10.8052 38.5103C13.8428 38.5103 16.3052 36.0478 16.3052 33.0103ZM38.9948 23.5514C38.9948 20.5138 36.5324 18.0514 33.4948 18.0514C30.4572 18.0514 27.9948 20.5138 27.9948 23.5514C27.9948 26.589 30.4572 29.0514 33.4948 29.0514C36.5324 29.0514 38.9948 26.589 38.9948 23.5514Z" fill="white"/>
</svg>
