<svg width="42" height="42" viewBox="0 0 42 42" fill="none" xmlns="http://www.w3.org/2000/svg">
<path d="M38.0641 20.0543C38.0641 23.3771 35.4154 26.0812 32.1142 26.1705L32.1141 26.1736C31.7197 26.1956 31.4067 26.5224 31.4067 26.9224C31.4067 27.3133 31.7058 27.6344 32.0876 27.6692L32.0876 27.6714C32.0953 27.6713 32.103 27.6711 32.1107 27.671C32.1259 27.6719 32.1413 27.6724 32.1567 27.6724C32.1877 27.6724 32.2183 27.6705 32.2483 27.6668C36.3156 27.508 39.5641 24.1605 39.5641 20.0543C39.5641 15.8468 36.1533 12.436 31.9457 12.436C31.7069 12.436 31.4707 12.4469 31.2375 12.4684C31.185 12.4733 31.1326 12.4787 31.0804 12.4846C31.0737 12.4194 31.0663 12.3544 31.0583 12.2897C30.481 7.61715 26.4971 4 21.6684 4C17.8533 4 14.5656 6.25788 13.0687 9.51025C12.4587 9.38257 11.8265 9.31544 11.1786 9.31544C6.10942 9.31544 2 13.4249 2 18.4941C2 22.9771 5.21398 26.7095 9.46347 27.5128L9.46388 27.51C9.50198 27.5159 9.54103 27.519 9.58081 27.519C9.99502 27.519 10.3308 27.1833 10.3308 26.769C10.3308 26.3838 10.0404 26.0665 9.66662 26.0239C6.14991 25.3216 3.5 22.2173 3.5 18.4941C3.5 14.2533 6.93785 10.8154 11.1786 10.8154C11.7227 10.8154 12.2519 10.8718 12.7614 10.9784L13.9315 11.2234L14.4313 10.1374C15.6925 7.39728 18.4604 5.5 21.6684 5.5C25.787 5.5 29.1768 8.62845 29.5882 12.6377L29.7429 14.1453L31.2489 13.9751C31.4771 13.9493 31.7096 13.936 31.9457 13.936C35.3248 13.936 38.0641 16.6753 38.0641 20.0543Z" fill="white"/>
<path d="M17.597 22.6643C17.597 23.0493 17.2849 23.3614 16.9 23.3614C16.515 23.3614 16.2029 23.0493 16.2029 22.6643C16.2029 22.2793 16.515 21.9672 16.9 21.9672C17.2849 21.9672 17.597 22.2793 17.597 22.6643Z" fill="white"/>
<path d="M16.8369 26.7744C17.187 26.7744 17.4709 26.4905 17.4709 26.1404C17.4709 25.7902 17.187 25.5064 16.8369 25.5064C16.4867 25.5064 16.2029 25.7902 16.2029 26.1404C16.2029 26.4905 16.4867 26.7744 16.8369 26.7744Z" fill="white"/>
<path d="M17.4709 29.9022C17.4709 30.2523 17.187 30.5361 16.8369 30.5361C16.4867 30.5361 16.2029 30.2523 16.2029 29.9022C16.2029 29.552 16.4867 29.2682 16.8369 29.2682C17.187 29.2682 17.4709 29.552 17.4709 29.9022Z" fill="white"/>
<path d="M20.1158 21.9672C19.7454 21.9672 19.445 22.2676 19.445 22.6381V22.6905C19.445 23.061 19.7454 23.3614 20.1158 23.3614H24.3571C24.7276 23.3614 25.028 23.061 25.028 22.6905V22.6381C25.028 22.2676 24.7276 21.9672 24.3571 21.9672H20.1158Z" fill="white"/>
<path d="M19.445 26.1772C19.445 25.8067 19.7454 25.5064 20.1158 25.5064H24.3571C24.7276 25.5064 25.028 25.8067 25.028 26.1772V26.2297C25.028 26.6002 24.7276 26.9005 24.3571 26.9005H20.1158C19.7454 26.9005 19.445 26.6002 19.445 26.2297V26.1772Z" fill="white"/>
<path d="M20.1158 29.142C19.7454 29.142 19.445 29.4423 19.445 29.8128V29.8653C19.445 30.2358 19.7454 30.5361 20.1158 30.5361H24.3571C24.7276 30.5361 25.028 30.2358 25.028 29.8653V29.8128C25.028 29.4423 24.7276 29.142 24.3571 29.142H20.1158Z" fill="white"/>
<path fill-rule="evenodd" clip-rule="evenodd" d="M14.6685 16.7593C13.1497 16.7593 11.9185 17.9905 11.9185 19.5093V35.8362C11.9185 37.3549 13.1497 38.5862 14.6685 38.5862H24.6097C24.8159 38.5862 25.013 38.5013 25.1547 38.3515L29.4395 33.8201C29.5712 33.6808 29.6446 33.4965 29.6446 33.3048V19.5093C29.6446 17.9905 28.4134 16.7593 26.8946 16.7593H14.6685ZM13.4185 19.5093C13.4185 18.8189 13.9781 18.2593 14.6685 18.2593H26.8946C27.5849 18.2593 28.1446 18.8189 28.1446 19.5093V32.5548H24.6097C24.1955 32.5548 23.8597 32.8906 23.8597 33.3048V37.0862H14.6685C13.9781 37.0862 13.4185 36.5265 13.4185 35.8362V19.5093ZM25.3597 34.0548H27.1532L25.3597 35.9514V34.0548Z" fill="white"/>
</svg>
