<svg width="42" height="42" viewBox="0 0 42 42" fill="none" xmlns="http://www.w3.org/2000/svg">
<path d="M10.7267 33.5H9.69305C9.14077 33.5 8.69305 33.0523 8.69305 32.5V9.49998C8.69305 8.94769 9.14077 8.49998 9.69305 8.49998H32.6931C33.2453 8.49998 33.6931 8.94769 33.6931 9.49998V11.0681" stroke="white" stroke-width="1.5" stroke-linecap="round"/>
<path d="M5.72673 28.4854H4.69305C4.14077 28.4854 3.69305 28.0377 3.69305 27.4854V4.48545C3.69305 3.93317 4.14077 3.48545 4.69305 3.48545H27.6931C28.2453 3.48545 28.6931 3.93317 28.6931 4.48545V6.05355" stroke="white" stroke-width="1.5" stroke-linecap="round"/>
<rect x="13.3069" y="13.5146" width="25" height="25" rx="1" stroke="white" stroke-width="1.5" stroke-linecap="round"/>
<rect x="16.8449" y="16.9496" width="6" height="6" rx="0.445643" fill="white"/>
</svg>
