<svg width="42" height="42" viewBox="0 0 42 42" fill="none" xmlns="http://www.w3.org/2000/svg">
<path fill-rule="evenodd" clip-rule="evenodd" d="M17.0319 17.021C17.0319 14.7558 18.8682 12.9194 21.1334 12.9194C23.3987 12.9194 25.235 14.7558 25.235 17.021C25.235 19.2862 23.3987 21.1226 21.1334 21.1226C18.8682 21.1226 17.0319 19.2862 17.0319 17.021ZM21.1334 14.4194C19.6966 14.4194 18.5319 15.5842 18.5319 17.021C18.5319 18.4578 19.6966 19.6226 21.1334 19.6226C22.5702 19.6226 23.735 18.4578 23.735 17.021C23.735 15.5842 22.5702 14.4194 21.1334 14.4194Z" fill="white"/>
<path fill-rule="evenodd" clip-rule="evenodd" d="M20.383 7.88604C19.4165 7.88604 18.633 8.66955 18.633 9.63604V10.0943C18.3557 10.1952 18.0862 10.3123 17.8256 10.4442L17.6211 10.2398C16.9377 9.55635 15.8297 9.55635 15.1463 10.2398L14.104 11.282C13.4206 11.9655 13.4206 13.0735 14.104 13.7569L14.4006 14.0536C14.3214 14.2328 14.2491 14.4158 14.1841 14.6022H13.6588C12.6923 14.6022 11.9088 15.3857 11.9088 16.3522V17.8261C11.9088 18.7926 12.6923 19.5761 13.6588 19.5761H14.222C14.2632 19.6889 14.3072 19.8003 14.3537 19.9103L13.9486 20.3155C13.2652 20.9989 13.2652 22.1069 13.9486 22.7903L14.9909 23.8326C15.6743 24.516 16.7823 24.516 17.4657 23.8326L17.7231 23.5752C18.0153 23.7291 18.3192 23.8639 18.633 23.9781V24.2527C18.633 25.2192 19.4165 26.0027 20.383 26.0027H21.857C22.8235 26.0027 23.607 25.2192 23.607 24.2527V24.0058C23.8743 23.9118 24.1346 23.803 24.3868 23.6803L24.5391 23.8326C25.2225 24.516 26.3306 24.516 27.014 23.8326L28.0563 22.7903C28.7397 22.1069 28.7397 20.9989 28.0563 20.3155L27.8678 20.127C27.9508 19.9472 28.0267 19.7635 28.0953 19.5761H28.3413C29.3078 19.5761 30.0913 18.7926 30.0913 17.8261V16.3522C30.0913 15.3857 29.3078 14.6022 28.3413 14.6022H28.1332C28.0678 14.4147 27.9951 14.2308 27.9154 14.0506L28.2091 13.7569C28.8925 13.0735 28.8925 11.9655 28.2091 11.282L27.1668 10.2398C26.4834 9.55636 25.3754 9.55635 24.692 10.2398L24.4889 10.4428C24.205 10.2992 23.9106 10.1733 23.607 10.0667V9.63604C23.607 8.66955 22.8235 7.88604 21.857 7.88604H20.383ZM20.133 9.63604C20.133 9.49797 20.2449 9.38604 20.383 9.38604H21.857C21.995 9.38604 22.107 9.49797 22.107 9.63604V11.198L22.6655 11.3454C23.2225 11.4925 23.7474 11.7193 24.2272 12.0131L24.7313 12.3218L25.7526 11.3004C25.8502 11.2028 26.0085 11.2028 26.1062 11.3004L27.1484 12.3427C27.2461 12.4403 27.2461 12.5986 27.1484 12.6963L26.082 13.7626L26.3461 14.2538C26.5631 14.6574 26.7343 15.0891 26.8527 15.542L26.9993 16.1022H28.3413C28.4794 16.1022 28.5913 16.2141 28.5913 16.3522V17.8261C28.5913 17.9642 28.4794 18.0761 28.3413 18.0761H26.9806L26.8274 18.6243C26.7012 19.0756 26.5225 19.5052 26.2981 19.9061L26.0209 20.4014L26.9956 21.3761C27.0932 21.4738 27.0932 21.632 26.9956 21.7297L25.9533 22.7719C25.8557 22.8696 25.6974 22.8696 25.5998 22.7719L24.643 21.8152L24.1426 22.1102C23.6859 22.3794 23.19 22.5885 22.6656 22.727L22.107 22.8744V24.2527C22.107 24.3908 21.9951 24.5027 21.857 24.5027H20.383C20.2449 24.5027 20.133 24.3908 20.133 24.2527V22.8608L19.5833 22.7085C19.018 22.5518 18.4866 22.3128 18.0029 22.0049L17.4953 21.6817L16.4051 22.7719C16.3074 22.8696 16.1491 22.8696 16.0515 22.7719L15.0093 21.7297C14.9116 21.632 14.9116 21.4738 15.0092 21.3761L16.1729 20.2125L15.9224 19.7259C15.7429 19.3773 15.5974 19.0087 15.4899 18.6243L15.3367 18.0761H13.6588C13.5207 18.0761 13.4088 17.9642 13.4088 17.8261V16.3522C13.4088 16.2141 13.5207 16.1022 13.6588 16.1022H15.318L15.4646 15.542C15.5828 15.09 15.7535 14.6592 15.9699 14.2562L16.2336 13.7652L15.1647 12.6963C15.067 12.5986 15.067 12.4403 15.1647 12.3427L16.2069 11.3004C16.3046 11.2028 16.4628 11.2028 16.5605 11.3004L17.5836 12.3236L18.0878 12.0145C18.5485 11.7321 19.0508 11.5115 19.5832 11.364L20.133 11.2117V9.63604Z" fill="white"/>
<path fill-rule="evenodd" clip-rule="evenodd" d="M13.3303 28.2945V33.6173C13.3303 34.7219 14.2257 35.6176 15.3303 35.6176H26.7688C26.8019 35.6176 26.8348 35.6168 26.8675 35.6152C27.9297 35.5675 28.7763 34.6913 28.7763 33.6173V30.6289C28.7763 30.5704 28.7738 30.5126 28.7688 30.4554V28.2123C28.7688 27.5684 29.0854 26.9715 29.578 26.5568C32.4818 24.1121 34.3269 20.4501 34.3269 16.3571C34.3269 8.99684 28.3602 3.03015 21 3.03015C13.6397 3.03015 7.67297 8.99684 7.67297 16.3571C7.67297 20.4897 9.554 24.183 12.5066 26.6275C13.0075 27.0422 13.3303 27.6442 13.3303 28.2945ZM28.6119 25.4093C31.1917 23.2375 32.8269 19.989 32.8269 16.3571C32.8269 9.82527 27.5318 4.53015 21 4.53015C14.4681 4.53015 9.17297 9.82527 9.17297 16.3571C9.17297 20.0241 10.84 23.3004 13.4631 25.4721C14.2587 26.1307 14.8303 27.1367 14.8303 28.2945V28.6919C14.9901 28.6508 15.1577 28.6289 15.3303 28.6289H26.7763C26.9462 28.6289 27.1113 28.6501 27.2688 28.69V28.2123C27.2688 27.0661 27.8294 26.0681 28.6119 25.4093ZM14.8303 33.6173V30.6289C14.8303 30.3528 15.0542 30.1289 15.3303 30.1289H26.7763C27.023 30.1289 27.2279 30.3076 27.2688 30.5426V33.6176C27.2688 33.8846 27.0596 34.1027 26.7962 34.1169C26.7896 34.1172 26.7829 34.1173 26.7763 34.1173H15.3303C15.0542 34.1173 14.8303 33.8934 14.8303 33.6173Z" fill="white"/>
<path d="M15.5912 37.4697C15.177 37.4697 14.8412 37.8055 14.8412 38.2197C14.8412 38.634 15.177 38.9697 15.5912 38.9697H26.4167C26.8309 38.9697 27.1667 38.634 27.1667 38.2197C27.1667 37.8055 26.8309 37.4697 26.4167 37.4697H15.5912Z" fill="white"/>
</svg>
