<svg width="42" height="42" viewBox="0 0 42 42" fill="none" xmlns="http://www.w3.org/2000/svg">
<path fill-rule="evenodd" clip-rule="evenodd" d="M7.51733 3.73877C6.41276 3.73877 5.51733 4.6342 5.51733 5.73877V12.1211C5.51733 13.2257 6.41276 14.1211 7.51733 14.1211H11.5857V32.0698C11.5857 33.0363 12.3692 33.8198 13.3357 33.8198H22.7061V36.2612C22.7061 37.3658 23.6015 38.2612 24.7061 38.2612H34.4825C35.5871 38.2612 36.4825 37.3658 36.4825 36.2612V29.8789C36.4825 28.7743 35.5871 27.8789 34.4825 27.8789H24.7061C23.6015 27.8789 22.7061 28.7743 22.7061 29.8789V32.3198H13.3357C13.1976 32.3198 13.0857 32.2079 13.0857 32.0698V21.75H22.7061V24.1912C22.7061 25.2957 23.6015 26.1912 24.7061 26.1912H34.4825C35.5871 26.1912 36.4825 25.2957 36.4825 24.1912V17.8088C36.4825 16.7043 35.5871 15.8088 34.4825 15.8088H24.7061C23.6015 15.8088 22.7061 16.7043 22.7061 17.8088V20.25H13.0857V14.1211H17.2938C18.3984 14.1211 19.2938 13.2257 19.2938 12.1211V5.73877C19.2938 4.6342 18.3984 3.73877 17.2938 3.73877H7.51733ZM17.2938 5.23877H7.51733C7.24119 5.23877 7.01733 5.46263 7.01733 5.73877V12.1211C7.01733 12.3972 7.24119 12.6211 7.51733 12.6211H17.2938C17.57 12.6211 17.7938 12.3972 17.7938 12.1211V5.73877C17.7938 5.46263 17.57 5.23877 17.2938 5.23877ZM34.4825 17.3088H24.7061C24.4299 17.3088 24.2061 17.5327 24.2061 17.8088V24.1912C24.2061 24.4673 24.4299 24.6912 24.7061 24.6912H34.4825C34.7587 24.6912 34.9825 24.4673 34.9825 24.1912V17.8088C34.9825 17.5327 34.7587 17.3088 34.4825 17.3088ZM24.7061 29.3789H34.4825C34.7587 29.3789 34.9825 29.6028 34.9825 29.8789V36.2612C34.9825 36.5374 34.7587 36.7612 34.4825 36.7612H24.7061C24.4299 36.7612 24.2061 36.5374 24.2061 36.2612V29.8789C24.2061 29.6028 24.4299 29.3789 24.7061 29.3789Z" fill="white"/>
</svg>
