<svg width="42" height="42" viewBox="0 0 42 42" fill="none" xmlns="http://www.w3.org/2000/svg">
<path d="M4.35272 19.3196C4.35272 11.355 10.8093 4.89838 18.7739 4.89838C25.8917 4.89838 31.8064 10.0557 32.9824 16.8374C33.0532 17.2455 33.4414 17.519 33.8496 17.4482C34.2577 17.3774 34.5312 16.9892 34.4604 16.5811C33.1618 9.09286 26.6336 3.39838 18.7739 3.39838C9.98089 3.39838 2.85272 10.5265 2.85272 19.3196C2.85272 28.1126 9.98089 35.2408 18.7739 35.2408C19.7093 35.2408 20.6264 35.16 21.5185 35.005C21.9266 34.934 22.1999 34.5457 22.129 34.1376C22.058 33.7295 21.6697 33.4562 21.2616 33.5271C20.454 33.6675 19.6228 33.7408 18.7739 33.7408C10.8093 33.7408 4.35272 27.2842 4.35272 19.3196Z" fill="white"/>
<path d="M10.4164 19.3196C10.4164 14.7095 14.1536 10.9724 18.7637 10.9724C22.4261 10.9724 25.5394 13.3315 26.6633 16.6151C26.7974 17.007 27.2238 17.216 27.6157 17.0819C28.0076 16.9477 28.2166 16.5213 28.0824 16.1294C26.7573 12.2577 23.0867 9.47235 18.7637 9.47235C13.3252 9.47235 8.91644 13.8811 8.91644 19.3196C8.91644 24.7581 13.3252 29.1668 18.7637 29.1668C19.0698 29.1668 19.3728 29.1528 19.6722 29.1254C20.0846 29.0876 20.3884 28.7226 20.3506 28.3101C20.3129 27.8977 19.9479 27.5939 19.5354 27.6317C19.2815 27.6549 19.024 27.6668 18.7637 27.6668C14.1536 27.6668 10.4164 23.9296 10.4164 19.3196Z" fill="white"/>
<path d="M34.7929 26.5783C35.0858 26.8711 35.0858 27.346 34.7929 27.6389L31.4885 30.9433C30.8051 31.6267 29.697 31.6267 29.0136 30.9432L27.053 28.9825C26.7602 28.6895 26.7602 28.2147 27.0531 27.9218C27.346 27.6289 27.8209 27.6289 28.1138 27.9219L30.0743 29.8826C30.1719 29.9802 30.3302 29.9802 30.4279 29.8826L33.7322 26.5783C34.0251 26.2854 34.5 26.2854 34.7929 26.5783Z" fill="white"/>
<path fill-rule="evenodd" clip-rule="evenodd" d="M31.4237 19.425C30.964 19.2235 30.4399 19.2291 29.9846 19.4404L23.7122 22.3512C23.0942 22.6379 22.6988 23.2573 22.6988 23.9386V27.9034C22.6988 30.2969 23.7643 32.5108 25.1649 34.3054C26.5674 36.1024 28.3541 37.5427 29.9185 38.3988C30.413 38.6694 31.0049 38.6679 31.4969 38.4026C33.0812 37.5485 34.9716 36.1174 36.4746 34.3258C37.9728 32.5399 39.1473 30.3207 39.1473 27.9034V23.954C39.1473 23.2594 38.7364 22.6299 38.0998 22.3509L31.4237 19.425ZM30.616 20.801C30.6811 20.7709 30.756 20.7701 30.8216 20.7988L37.4977 23.7248C37.5884 23.7645 37.6473 23.8545 37.6473 23.954V27.9034C37.6473 29.8341 36.7015 31.7216 35.3254 33.3618C33.9542 34.9963 32.2164 36.3107 30.7851 37.0822C30.7362 37.1086 30.6833 37.1074 30.6386 37.083C29.2495 36.3228 27.6214 35.0149 26.3474 33.3825C25.0714 31.7476 24.1988 29.851 24.1988 27.9034V23.9386C24.1988 23.8412 24.2553 23.7528 24.3436 23.7118L30.616 20.801Z" fill="white"/>
</svg>
