<svg width="42" height="42" viewBox="0 0 42 42" fill="none" xmlns="http://www.w3.org/2000/svg">
<path d="M20.561 14.1819C20.6615 13.7801 20.4172 13.3729 20.0153 13.2724C19.6135 13.172 19.2063 13.4163 19.1058 13.8181L17.1058 21.8181C17.0054 22.22 17.2497 22.6272 17.6515 22.7276C18.0534 22.8281 18.4606 22.5838 18.561 22.1819L20.561 14.1819Z" fill="white"/>
<path d="M22.3453 13.4306C22.6598 13.161 23.1333 13.1974 23.4029 13.5119L26.4029 17.0119C26.6436 17.2928 26.6436 17.7072 26.4029 17.9881L23.4029 21.4881C23.1333 21.8026 22.6598 21.839 22.3453 21.5694C22.0308 21.2999 21.9944 20.8264 22.264 20.5119L24.8456 17.5L22.264 14.4881C21.9944 14.1736 22.0308 13.7001 22.3453 13.4306Z" fill="white"/>
<path d="M15.5694 14.4881C15.839 14.1736 15.8026 13.7001 15.4881 13.4306C15.1736 13.161 14.7001 13.1974 14.4305 13.5119L11.4305 17.0119C11.1898 17.2928 11.1898 17.7072 11.4305 17.9881L14.4305 21.4881C14.7001 21.8026 15.1736 21.839 15.4881 21.5694C15.8026 21.2999 15.839 20.8264 15.5694 20.5119L12.9878 17.5L15.5694 14.4881Z" fill="white"/>
<path fill-rule="evenodd" clip-rule="evenodd" d="M8.64771 3.00003C7.73771 3.00003 7 3.73774 7 4.64775V31.3523C7 32.2623 7.73771 33 8.64771 33H28.3523C29.2623 33 30 32.2623 30 31.3523V4.64775C30 3.73774 29.2623 3.00003 28.3523 3.00003H8.64771ZM28.3523 4.50003H8.64771C8.56613 4.50003 8.5 4.56616 8.5 4.64775V31.3523C8.5 31.4339 8.56613 31.5 8.64771 31.5H28.3523C28.4339 31.5 28.5 31.4339 28.5 31.3523V4.64775C28.5 4.56616 28.4339 4.50003 28.3523 4.50003Z" fill="white"/>
<path d="M31.4365 8.00003V9.50003H33.5042V11.3272H35.0042V8.75003C35.0042 8.33582 34.6684 8.00003 34.2542 8.00003H31.4365Z" fill="white"/>
<path d="M35.0042 15.6741H33.5042V20.8284H35.0042V15.6741Z" fill="white"/>
<path d="M35.0042 25.1753H33.5042V30.3296H35.0042V25.1753Z" fill="white"/>
<path d="M13.5 34.6764H12V37.2536C12 37.6678 12.3358 38.0036 12.75 38.0036H15.5677V36.5036H13.5V34.6764Z" fill="white"/>
<path d="M35.0042 34.6764H33.5042V36.5036H31.4365V38.0036H34.2542C34.6684 38.0036 35.0042 37.6678 35.0042 37.2536V34.6764Z" fill="white"/>
<path d="M20.6844 36.5036V38.0036H26.3198V36.5036H20.6844Z" fill="white"/>
</svg>
