<svg width="42" height="42" viewBox="0 0 42 42" fill="none" xmlns="http://www.w3.org/2000/svg">
<path fill-rule="evenodd" clip-rule="evenodd" d="M22.2322 9.694C23.4494 9.36451 24.3449 8.25216 24.3449 6.93066C24.3449 5.34972 23.0633 4.06812 21.4824 4.06812C19.9014 4.06812 18.6198 5.34972 18.6198 6.93066C18.6198 8.25201 19.5151 9.36425 20.7322 9.69389V11.8375C18.7105 11.9993 16.8717 12.8095 15.4239 14.0601L11.6412 10.2775C11.6177 10.254 11.593 10.2323 11.5672 10.2125C11.9587 9.63882 12.1875 8.94534 12.1875 8.19842C12.1875 6.22224 10.5855 4.62024 8.60934 4.62024C6.63317 4.62024 5.03116 6.22224 5.03116 8.19842C5.03116 10.1746 6.63317 11.7766 8.60934 11.7766C9.30216 11.7766 9.94899 11.5797 10.4969 11.2388C10.5215 11.2737 10.5494 11.307 10.5806 11.3382L14.3712 15.1288C13.2214 16.5011 12.4616 18.2113 12.2621 20.0887H10.123C9.79333 18.8717 8.68109 17.9764 7.35974 17.9764C5.7788 17.9764 4.49719 19.258 4.49719 20.8389C4.49719 22.4199 5.7788 23.7015 7.35974 23.7015C8.68124 23.7015 9.79359 22.806 10.1231 21.5887H12.2235C12.3276 23.5135 13.0188 25.2822 14.1211 26.7189C14.0594 26.7525 14.0014 26.7954 13.9491 26.8476L10.5527 30.244C9.99311 29.8814 9.32582 29.6708 8.60934 29.6708C6.63317 29.6708 5.03116 31.2728 5.03116 33.249C5.03116 35.2252 6.63317 36.8272 8.60934 36.8272C10.5855 36.8272 12.1875 35.2252 12.1875 33.249C12.1875 32.532 11.9767 31.8643 11.6136 31.3045L15.0098 27.9083C15.0426 27.8754 15.0717 27.8403 15.0972 27.8034C16.5393 29.1733 18.4216 30.084 20.51 30.3015V32.896C19.3165 33.2409 18.4436 34.3417 18.4436 35.6464C18.4436 37.2273 19.7252 38.5089 21.3062 38.5089C22.8871 38.5089 24.1687 37.2273 24.1687 35.6464C24.1687 34.3083 23.2506 33.1847 22.01 32.871V30.337C24.1422 30.2173 26.0818 29.3772 27.5895 28.0561L30.8884 31.355C30.545 31.9043 30.3466 32.5534 30.3466 33.249C30.3466 35.2252 31.9486 36.8272 33.9247 36.8272C35.9009 36.8272 37.5029 35.2252 37.5029 33.249C37.5029 31.2728 35.9009 29.6708 33.9247 29.6708C33.1869 29.6708 32.5012 29.8941 31.9316 30.2769L28.6347 26.98C29.8577 25.499 30.6297 23.6318 30.7402 21.5887H31.8771C32.2066 22.806 33.3189 23.7015 34.6404 23.7015C36.2214 23.7015 37.503 22.4199 37.503 20.8389C37.503 19.258 36.2214 17.9764 34.6404 17.9764C33.3191 17.9764 32.2068 18.8717 31.8772 20.0887H30.7016C30.4761 17.9667 29.5348 16.0585 28.1238 14.6101L31.5737 11.1601C32.1463 11.5492 32.8377 11.7766 33.5822 11.7766C35.5584 11.7766 37.1604 10.1746 37.1604 8.19842C37.1604 6.22224 35.5584 4.62024 33.5822 4.62024C31.606 4.62024 30.004 6.22224 30.004 8.19842C30.004 8.88726 30.1987 9.53063 30.536 10.0765L26.9913 13.6213C25.6395 12.6211 24.0063 11.9797 22.2322 11.8376V9.694ZM21.4824 8.2932C22.2349 8.2932 22.8449 7.68317 22.8449 6.93066C22.8449 6.17815 22.2349 5.56812 21.4824 5.56812C20.7299 5.56812 20.1198 6.17815 20.1198 6.93066C20.1198 7.68317 20.7299 8.2932 21.4824 8.2932ZM13.9946 18.9877C13.809 19.6533 13.7098 20.355 13.7098 21.0798C13.7098 21.5549 13.7524 22.0202 13.8341 22.4718C13.9502 22.3981 14.0879 22.3554 14.2356 22.3554H17.502C17.4788 21.9379 17.4669 21.5119 17.4669 21.0798C17.4669 20.396 17.4968 19.7279 17.5539 19.084L14.3625 19.084C14.2288 19.084 14.1033 19.049 13.9946 18.9877ZM14.5384 17.584L17.7427 17.584C17.915 16.5421 18.163 15.5941 18.4728 14.7854C18.6176 14.4075 18.779 14.0518 18.9573 13.7269C17.0303 14.3883 15.4454 15.786 14.5384 17.584ZM21.4819 13.3077C21.3162 13.3077 21.0734 13.3924 20.7669 13.7309C20.4603 14.0694 20.1497 14.6012 19.8735 15.3221C19.6268 15.9662 19.419 16.7306 19.2649 17.584L23.6987 17.584C23.5446 16.7306 23.3369 15.9661 23.0901 15.322C22.8139 14.6012 22.5034 14.0694 22.1968 13.7309C21.8903 13.3924 21.6475 13.3077 21.4819 13.3077ZM25.2209 17.584C25.0487 16.5421 24.8007 15.5941 24.4908 14.7854C24.3461 14.4075 24.1847 14.0518 24.0064 13.7269C25.9334 14.3883 27.5183 15.786 28.4253 17.584H25.2209ZM23.9034 19.084L19.0602 19.084C18.9995 19.7199 18.9669 20.3884 18.9669 21.0798C18.9669 21.5148 18.9798 21.9409 19.0045 22.3554L23.9591 22.3554C23.9838 21.9409 23.9967 21.5148 23.9967 21.0798C23.9967 20.3884 23.9641 19.7199 23.9034 19.084ZM25.4616 22.3554C25.4848 21.9379 25.4967 21.5119 25.4967 21.0798C25.4967 20.396 25.4668 19.7279 25.4097 19.084H28.6683C28.7785 19.084 28.8832 19.0602 28.9774 19.0176C29.1577 19.6743 29.2539 20.3658 29.2539 21.0798C29.2539 21.5194 29.2174 21.9506 29.1473 22.3703C29.0989 22.3605 29.0489 22.3554 28.9977 22.3554H25.4616ZM23.8129 23.8554L19.1507 23.8554C19.3082 25.0014 19.5592 26.0171 19.8735 26.8374C20.1497 27.5583 20.4603 28.0901 20.7669 28.4286C21.0734 28.7671 21.3162 28.8518 21.4819 28.8518C21.6475 28.8518 21.8903 28.7671 22.1968 28.4286C22.5034 28.0901 22.8139 27.5583 23.0901 26.8375C23.4044 26.0171 23.6554 25.0014 23.8129 23.8554ZM24.0064 28.4326C24.1847 28.1077 24.3461 27.752 24.4908 27.3741C24.8707 26.3826 25.1576 25.182 25.3259 23.8554H28.7437C27.9242 25.9981 26.1836 27.6853 24.0064 28.4326ZM18.9573 28.4326C18.779 28.1077 18.6176 27.752 18.4728 27.3741C18.093 26.3826 17.806 25.182 17.6377 23.8554H14.2356L14.22 23.8552C15.0395 25.998 16.78 27.6852 18.9573 28.4326ZM22.6687 35.6464C22.6687 36.3989 22.0587 37.0089 21.3062 37.0089C20.5537 37.0089 19.9436 36.3989 19.9436 35.6464C19.9436 34.8939 20.5537 34.2838 21.3062 34.2838C22.0587 34.2838 22.6687 34.8939 22.6687 35.6464ZM33.5822 10.2766C34.73 10.2766 35.6604 9.34616 35.6604 8.19842C35.6604 7.05067 34.73 6.12024 33.5822 6.12024C32.4345 6.12024 31.504 7.05067 31.504 8.19842C31.504 9.34616 32.4345 10.2766 33.5822 10.2766ZM8.72228 20.8389C8.72228 21.5914 8.11225 22.2015 7.35974 22.2015C6.60722 22.2015 5.99719 21.5914 5.99719 20.8389C5.99719 20.0864 6.60722 19.4764 7.35974 19.4764C8.11225 19.4764 8.72228 20.0864 8.72228 20.8389ZM34.6404 22.2015C35.3929 22.2015 36.003 21.5914 36.003 20.8389C36.003 20.0864 35.3929 19.4764 34.6404 19.4764C33.8879 19.4764 33.2779 20.0864 33.2779 20.8389C33.2779 21.5914 33.8879 22.2015 34.6404 22.2015ZM36.0029 33.249C36.0029 34.3967 35.0725 35.3272 33.9247 35.3272C32.777 35.3272 31.8466 34.3967 31.8466 33.249C31.8466 32.1012 32.777 31.1708 33.9247 31.1708C35.0725 31.1708 36.0029 32.1012 36.0029 33.249ZM8.60934 10.2766C9.75709 10.2766 10.6875 9.34616 10.6875 8.19842C10.6875 7.05067 9.75709 6.12024 8.60934 6.12024C7.46159 6.12024 6.53116 7.05067 6.53116 8.19842C6.53116 9.34616 7.46159 10.2766 8.60934 10.2766ZM10.6875 33.249C10.6875 34.3967 9.75709 35.3272 8.60934 35.3272C7.46159 35.3272 6.53116 34.3967 6.53116 33.249C6.53116 32.1012 7.46159 31.1708 8.60934 31.1708C9.75709 31.1708 10.6875 32.1012 10.6875 33.249Z" fill="white"/>
</svg>
