<svg width="42" height="42" viewBox="0 0 42 42" fill="none" xmlns="http://www.w3.org/2000/svg">
<g id="Diffusion Models" clip-path="url(#clip0_1_137)">
<g id="Group 4783">
<circle id="Ellipse 1931" cx="21" cy="2.83716" r="2" stroke="white"/>
<circle id="Ellipse 1936" cx="2.5" cy="2.5" r="2" transform="matrix(1 0 0 -1 18.5 41.6628)" stroke="white"/>
</g>
<circle id="Ellipse 1937" cx="2.5" cy="2.5" r="2" transform="matrix(1 0 0 -1 5.77502 36.6298)" stroke="white"/>
<g id="Group 4782">
<circle id="Ellipse 1934" cx="2.88049" cy="21" r="2" stroke="white"/>
<circle id="Ellipse 1935" cx="39.1196" cy="21" r="2" stroke="white"/>
</g>
<g id="Group 4784">
<circle id="Ellipse 1932" cx="8.27484" cy="7.59351" r="2" stroke="white"/>
<circle id="Ellipse 1933" cx="33.7252" cy="7.73193" r="2" stroke="white"/>
</g>
<g id="Group 4781">
<circle id="Ellipse 1938" cx="2.5" cy="2.5" r="2" transform="matrix(1 0 0 -1 31.2252 36.7681)" stroke="white"/>
</g>
<circle id="Ellipse 1922" cx="21.1259" cy="21.2231" r="6.25" stroke="white" stroke-width="1.5"/>
<g id="Group 4760">
<circle id="Ellipse 1926" cx="32.5" cy="16" r="2.67881" stroke="white" stroke-width="1.64239"/>
<circle id="Ellipse 1929" cx="3.5" cy="3.5" r="2.67881" transform="matrix(1 0 0 -1 29 29.5)" stroke="white" stroke-width="1.64239"/>
</g>
<g id="Group 4759">
<circle id="Ellipse 1923" cx="16" cy="9.7231" r="2.67881" stroke="white" stroke-width="1.64239"/>
<circle id="Ellipse 1924" cx="26" cy="9.7231" r="2.67881" stroke="white" stroke-width="1.64239"/>
</g>
<g id="Group 4754">
<circle id="Ellipse 1925" cx="9.62585" cy="16" r="2.67881" stroke="white" stroke-width="1.64239"/>
<circle id="Ellipse 1928" cx="3.5" cy="3.5" r="2.67881" transform="matrix(1 0 0 -1 6.12585 29.5)" stroke="white" stroke-width="1.64239"/>
</g>
<g id="Group 4758">
<circle id="Ellipse 1927" cx="3.5" cy="3.5" r="2.67881" transform="matrix(1 0 0 -1 12.5 36)" stroke="white" stroke-width="1.64239"/>
<circle id="Ellipse 1930" cx="3.5" cy="3.5" r="2.67881" transform="matrix(1 0 0 -1 22.5 36)" stroke="white" stroke-width="1.64239"/>
</g>
</g>
<defs>
<clipPath id="clip0_1_137">
<rect width="42" height="42" fill="white"/>
</clipPath>
</defs>
</svg>
