<svg width="42" height="42" viewBox="0 0 42 42" fill="none" xmlns="http://www.w3.org/2000/svg">
<path fill-rule="evenodd" clip-rule="evenodd" d="M25.3812 6.69706C25.7019 6.4349 25.7493 5.9624 25.4872 5.64171C25.225 5.32101 24.7525 5.27356 24.4318 5.53572C22.7927 6.87568 21.1847 9.8079 21.9319 13.9538C21.7041 13.8858 21.4721 13.8106 21.2361 13.7278C18.0505 12.6106 15.1121 13.7131 13.2478 15.8236C11.3974 17.9183 10.5763 21.0311 11.563 24.0103C11.6347 24.2269 11.7056 24.4391 11.7755 24.6471C11.3924 24.5531 11.0224 24.4668 10.6665 24.3909C9.36232 24.1129 8.15304 23.9528 7.06543 24.0875C5.94551 24.2261 4.96442 24.6762 4.14707 25.5757C3.35135 26.4514 2.75079 27.7091 2.27762 29.3945C2.16566 29.7933 2.39819 30.2074 2.79699 30.3193C3.19579 30.4313 3.60983 30.1988 3.72179 29.8C4.1646 28.2226 4.68299 27.2164 5.25721 26.5845C5.8098 25.9763 6.44964 25.6751 7.24971 25.5761C8.08208 25.4731 9.09183 25.589 10.3538 25.858C10.9755 25.9905 11.6355 26.1546 12.3457 26.3384C12.5776 27.0325 12.7866 27.6781 12.9615 28.288C13.3173 29.5283 13.5029 30.5276 13.4577 31.3651C13.4144 32.1701 13.1582 32.8293 12.5898 33.4227C11.9992 34.0393 11.0313 34.6261 9.48842 35.1772C9.09833 35.3165 8.89505 35.7456 9.03436 36.1357C9.17368 36.5258 9.60284 36.7291 9.99292 36.5898C11.6416 36.001 12.8546 35.3147 13.6731 34.4602C14.5138 33.5825 14.8949 32.5726 14.9556 31.4458C15.0145 30.3515 14.771 29.1562 14.4034 27.8744C14.3034 27.5259 14.1921 27.1642 14.0723 26.79C14.2833 26.8449 14.4985 26.9006 14.7181 26.9568C17.7585 27.7347 20.8069 26.6999 22.7684 24.7088C24.7446 22.7028 25.641 19.6951 24.3058 16.5945C24.2063 16.3636 24.1147 16.1362 24.0307 15.9125C28.2208 16.3724 31.036 14.5645 32.2596 12.8359C32.4989 12.4978 32.4189 12.0297 32.0808 11.7904C31.7427 11.5511 31.2746 11.6312 31.0353 11.9693C30.0978 13.2937 27.6066 15.014 23.5426 14.3317C22.5822 10.3268 24.1252 7.72375 25.3812 6.69706ZM22.3433 15.6169C21.8261 15.4935 21.2915 15.3368 20.7397 15.1433C18.1951 14.2509 15.8801 15.1094 14.372 16.8167C12.85 18.5397 12.1797 21.1012 12.9869 23.5387C13.1413 24.0047 13.2949 24.4591 13.4442 24.9007L13.4443 24.9008L13.5088 25.0917L13.6992 25.1416L13.6995 25.1417L13.7004 25.1419L13.7005 25.142L13.7009 25.1421L13.7022 25.1424C14.1523 25.2606 14.6153 25.3822 15.0899 25.5036C17.5774 26.14 20.0864 25.2939 21.6998 23.6561C23.2985 22.0334 23.9946 19.6644 22.9281 17.1878C22.6962 16.6494 22.5024 16.1255 22.3433 15.6169ZM24.5597 9.73366C24.8423 9.43079 25.3169 9.41433 25.6197 9.69689L28.3291 12.2246C28.632 12.5072 28.6484 12.9818 28.3658 13.2846C28.0833 13.5875 27.6087 13.604 27.3058 13.3214L24.5965 10.7937C24.2936 10.5111 24.2772 10.0365 24.5597 9.73366ZM8.48622 28.0583C8.18335 27.7758 7.70876 27.7922 7.4262 28.0951C7.14363 28.398 7.16009 28.8726 7.46296 29.1551L10.1723 31.6828C10.4752 31.9654 10.9497 31.9489 11.2323 31.6461C11.5149 31.3432 11.4984 30.8686 11.1956 30.586L8.48622 28.0583ZM16.3321 16.1357C16.6147 15.8329 17.0893 15.8164 17.3921 16.099L22.2087 20.5927C22.5116 20.8752 22.5281 21.3498 22.2455 21.6527C21.9629 21.9556 21.4883 21.972 21.1855 21.6895L16.3689 17.1958C16.066 16.9132 16.0496 16.4386 16.3321 16.1357ZM14.5849 19.1085C14.282 18.8259 13.8074 18.8424 13.5249 19.1452C13.2423 19.4481 13.2588 19.9227 13.5616 20.2053L18.3782 24.699C18.6811 24.9815 19.1557 24.9651 19.4383 24.6622C19.7208 24.3593 19.7044 23.8848 19.4015 23.6022L14.5849 19.1085ZM27.5575 20.333C27.5575 19.9188 27.8933 19.583 28.3075 19.583H35.2854C35.6996 19.583 36.0354 19.9188 36.0354 20.333C36.0354 20.7473 35.6996 21.083 35.2854 21.083H28.3075C27.8933 21.083 27.5575 20.7473 27.5575 20.333ZM18.2546 30.0815C17.8404 30.0815 17.5046 30.4173 17.5046 30.8315C17.5046 31.2458 17.8404 31.5815 18.2546 31.5815L35.2854 31.5816C35.6996 31.5816 36.0354 31.2458 36.0354 30.8316C36.0354 30.4173 35.6996 30.0816 35.2854 30.0816L18.2546 30.0815ZM39.7505 20.333C39.7505 21.0552 39.165 21.6406 38.4429 21.6406C37.7207 21.6406 37.1353 21.0552 37.1353 20.333C37.1353 19.6109 37.7207 19.0254 38.4429 19.0254C39.165 19.0254 39.7505 19.6109 39.7505 20.333ZM38.4429 32.1392C39.165 32.1392 39.7505 31.5537 39.7505 30.8316C39.7505 30.1094 39.165 29.524 38.4429 29.524C37.7207 29.524 37.1353 30.1094 37.1353 30.8316C37.1353 31.5537 37.7207 32.1392 38.4429 32.1392Z" fill="white"/>
</svg>
