<svg width="42" height="42" viewBox="0 0 42 42" fill="none" xmlns="http://www.w3.org/2000/svg">
<path fill-rule="evenodd" clip-rule="evenodd" d="M28.3232 10.16C26.4787 10.16 24.9834 11.6553 24.9834 13.4999C24.9834 15.3444 26.4787 16.8397 28.3232 16.8397C30.1678 16.8397 31.6631 15.3444 31.6631 13.4999C31.6631 11.6553 30.1678 10.16 28.3232 10.16ZM26.4834 13.4999C26.4834 12.4838 27.3071 11.66 28.3232 11.66C29.3393 11.66 30.1631 12.4838 30.1631 13.4999C30.1631 14.516 29.3393 15.3397 28.3232 15.3397C27.3071 15.3397 26.4834 14.516 26.4834 13.4999Z" fill="white"/>
<path fill-rule="evenodd" clip-rule="evenodd" d="M26.7161 3.74988C26.3226 3.74988 25.996 4.05396 25.968 4.44644L25.8266 6.42566C25.4642 6.55356 25.1146 6.70847 24.7803 6.88794L23.3558 5.62168C23.059 5.35785 22.608 5.37111 22.3272 5.65191L20.4751 7.50398C20.1943 7.78478 20.1811 8.23578 20.4449 8.53258L21.7112 9.95717C21.5318 10.2914 21.3769 10.6409 21.249 11.0033L19.2698 11.1446C18.8773 11.1727 18.5732 11.4993 18.5732 11.8927V15.107C18.5732 15.5005 18.8773 15.8271 19.2698 15.8551L21.249 15.9965C21.3618 16.3161 21.4956 16.6257 21.6487 16.9237L20.445 18.2779C20.1812 18.5747 20.1945 19.0257 20.4753 19.3065L22.3273 21.1586C22.6081 21.4394 23.0591 21.4526 23.3559 21.1888L24.6489 20.0395C25.0226 20.2499 25.4164 20.4293 25.8266 20.5741L25.968 22.5533C25.996 22.9458 26.3226 23.2499 26.7161 23.2499H29.9304C30.3238 23.2499 30.6504 22.9458 30.6785 22.5533L30.8198 20.5741C31.1875 20.4443 31.542 20.2868 31.8807 20.104L33.1013 21.189C33.3981 21.4528 33.8491 21.4395 34.1299 21.1588L35.982 19.3067C36.2628 19.0259 36.276 18.5749 36.0122 18.2781L34.9272 17.0575C35.1101 16.7187 35.2677 16.3642 35.3974 15.9965L37.3767 15.8551C37.7691 15.8271 38.0732 15.5005 38.0732 15.107V11.8927C38.0732 11.4993 37.7691 11.1727 37.3767 11.1446L35.3974 11.0033C35.2527 10.5931 35.0733 10.1993 34.8629 9.82553L36.0123 8.53241C36.2761 8.23561 36.2629 7.7846 35.9821 7.50381L34.13 5.65173C33.8492 5.37093 33.3982 5.35768 33.1014 5.6215L31.747 6.82539C31.4491 6.67226 31.1394 6.53846 30.8198 6.42566L30.6785 4.44644C30.6504 4.05396 30.3238 3.74988 29.9304 3.74988H26.7161ZM27.2864 7.04182L27.4144 5.24988H29.232L29.36 7.04182C29.3827 7.35928 29.6033 7.62786 29.9103 7.71182C30.4602 7.86221 30.9788 8.08901 31.454 8.38034C31.7357 8.55303 32.0973 8.521 32.3443 8.30147L33.5694 7.21244L34.4214 8.06441L33.3717 9.24526C33.1446 9.50077 33.119 9.87755 33.3095 10.1614C33.6655 10.6919 33.9387 11.2818 34.1113 11.9128C34.1952 12.2198 34.4638 12.4404 34.7813 12.4631L36.5732 12.5911V14.4087L34.7813 14.5367C34.4638 14.5594 34.1952 14.7799 34.1113 15.0869C33.9491 15.6799 33.6981 16.2366 33.373 16.7417C33.191 17.0246 33.2196 17.3943 33.4432 17.6458L34.4213 18.7461L33.5693 19.598L32.4689 18.62C32.2174 18.3964 31.8478 18.3677 31.5649 18.5498C31.0598 18.8748 30.5032 19.1258 29.9103 19.2879C29.6033 19.3719 29.3827 19.6405 29.36 19.9579L29.232 21.7499H27.4144L27.2864 19.9579C27.2637 19.6405 27.0432 19.3719 26.7362 19.2879C26.1051 19.1153 25.5152 18.8421 24.9848 18.4862C24.7009 18.2957 24.3241 18.3213 24.0686 18.5484L22.8879 19.5979L22.036 18.7459L23.1248 17.5209C23.3444 17.2739 23.3764 16.9124 23.2037 16.6307C22.9124 16.1554 22.6856 15.6368 22.5352 15.0869C22.4512 14.7799 22.1826 14.5594 21.8652 14.5367L20.0732 14.4087V12.5911L21.8652 12.4631C22.1826 12.4404 22.4512 12.2198 22.5352 11.9128C22.696 11.3247 22.9443 10.7723 23.2655 10.2705C23.4465 9.9876 23.4174 9.61889 23.1943 9.36789L22.0358 8.06459L22.8878 7.21262L24.1911 8.37108C24.4421 8.59419 24.8108 8.62325 25.0937 8.44221C25.5955 8.121 26.1479 7.87269 26.7362 7.71182C27.0432 7.62786 27.2637 7.35928 27.2864 7.04182Z" fill="white"/>
<path d="M11.5112 6.74671C13.3113 5.19072 15.3754 4.39185 17.0034 4.0899L17.0021 4.09104C17.0479 4.08232 17.0951 4.07776 17.1434 4.07776C17.5576 4.07776 17.8934 4.41355 17.8934 4.82776C17.8934 5.21413 17.6012 5.53227 17.2258 5.57329L17.226 5.57427C15.8397 5.83987 14.0506 6.53438 12.4921 7.88152C10.6953 9.43465 9.17439 11.8798 8.94593 15.6355C8.92014 16.0595 8.80641 16.4926 8.5848 16.8846L5.45922 22.414C5.39215 22.5326 5.43247 22.6831 5.54986 22.7524L8.88066 24.7165L9.59885 31.4926C9.72015 32.6371 10.6855 33.5055 11.8363 33.5055H15.9856V37.5C15.9856 37.9142 15.6499 38.25 15.2356 38.25C14.8214 38.25 14.4856 37.9142 14.4856 37.5V35.0055H11.8363C9.91825 35.0055 8.30937 33.5581 8.10721 31.6507L7.46857 25.6252L4.78794 24.0445C3.96617 23.5599 3.68394 22.5064 4.1534 21.6759L7.27899 16.1465C7.37623 15.9745 7.43515 15.7672 7.4487 15.5444C7.70191 11.3818 9.41159 8.56157 11.5112 6.74671Z" fill="white"/>
<path d="M28.6077 35.6905C28.6077 32.6325 28.9058 29.5782 29.6027 26.6027L29.6124 26.6045C29.6435 26.2189 29.9663 25.9156 30.3599 25.9156C30.7741 25.9156 31.1099 26.2514 31.1099 26.6656C31.1099 26.7425 31.0984 26.8167 31.0769 26.8866C30.4005 29.7508 30.1077 32.7081 30.1077 35.6905V37.5C30.1077 37.9142 29.7719 38.25 29.3577 38.25C28.9435 38.25 28.6077 37.9142 28.6077 37.5V35.6905Z" fill="white"/>
</svg>
