<svg width="42" height="42" viewBox="0 0 42 42" fill="none" xmlns="http://www.w3.org/2000/svg">
<path d="M14.4481 5.13259C16.5258 4.29404 18.7521 3.86267 20.9999 3.86267C23.2477 3.86267 25.474 4.29404 27.5517 5.13259C29.6295 5.97116 31.5186 7.20077 33.1108 8.75212C34.703 10.3035 35.9671 12.1464 36.8299 14.1759C37.6928 16.2056 38.1371 18.3816 38.1371 20.5797C38.1371 20.9939 37.8013 21.3297 37.3871 21.3297C36.9729 21.3297 36.6371 20.9939 36.6371 20.5797C36.6371 18.5841 36.2337 16.6076 35.4495 14.7628C34.6652 12.918 33.5152 11.2404 32.064 9.82647C30.6128 8.41248 28.8889 7.28984 26.9903 6.52358C25.0917 5.7573 23.0561 5.36267 20.9999 5.36267C18.9437 5.36267 16.9081 5.7573 15.0095 6.52358C13.1109 7.28984 11.387 8.41248 9.93581 9.82647C8.76327 10.9689 7.78731 12.2835 7.04205 13.7194H9.41241C9.82662 13.7194 10.1624 14.0551 10.1624 14.4694C10.1624 14.8836 9.82662 15.2194 9.41241 15.2194H5.86011C5.58287 15.2194 5.32824 15.0664 5.19801 14.8217L3.53052 11.6879C3.33595 11.3223 3.47465 10.8681 3.84031 10.6735C4.20598 10.4789 4.66015 10.6176 4.85472 10.9833L5.82641 12.8094C6.63016 11.3159 7.66218 9.9475 8.88901 8.75212C10.4812 7.20077 12.3703 5.97116 14.4481 5.13259Z" fill="white"/>
<path d="M27.5643 36.7982C25.4837 37.6821 23.2531 38.1373 20.9999 38.1373C18.7467 38.1373 16.5161 37.6821 14.4355 36.7982C12.355 35.9144 10.4658 34.6194 8.8754 32.9881C7.285 31.357 6.0244 29.4215 5.16468 27.2927C4.30497 25.164 3.86271 22.883 3.86271 20.58C3.86271 20.1658 4.19849 19.83 4.61271 19.83C5.02692 19.83 5.36271 20.1658 5.36271 20.58C5.36271 22.6912 5.76818 24.7814 6.55554 26.731C7.34288 28.6806 8.49642 30.4508 9.94941 31.941C11.4023 33.4312 13.1262 34.6122 15.0221 35.4177C16.9179 36.2231 18.9491 36.6373 20.9999 36.6373C23.0507 36.6373 25.082 36.2231 26.9778 35.4177C28.8736 34.6122 30.5975 33.4312 32.0504 31.941C33.2429 30.718 34.2336 29.3064 34.9858 27.7619L33.1852 27.7619C32.771 27.7619 32.4352 27.4261 32.4352 27.0119C32.4352 26.5977 32.771 26.2619 33.1852 26.2619L36.1397 26.2619C36.4045 26.2619 36.6497 26.4015 36.7848 26.6293L38.4524 29.4415C38.6636 29.7978 38.5461 30.2579 38.1898 30.4691C37.8335 30.6804 37.3734 30.5628 37.1621 30.2066L36.2286 28.6322C35.4206 30.2362 34.3743 31.7062 33.1244 32.9881C31.534 34.6194 29.6448 35.9144 27.5643 36.7982Z" fill="white"/>
<path fill-rule="evenodd" clip-rule="evenodd" d="M21 17.1972C18.8998 17.1972 17.1972 18.8998 17.1972 21C17.1972 23.1002 18.8998 24.8028 21 24.8028C23.1002 24.8028 24.8028 23.1002 24.8028 21C24.8028 18.8998 23.1002 17.1972 21 17.1972ZM18.6972 21C18.6972 19.7282 19.7282 18.6972 21 18.6972C22.2718 18.6972 23.3028 19.7282 23.3028 21C23.3028 22.2718 22.2718 23.3028 21 23.3028C19.7282 23.3028 18.6972 22.2718 18.6972 21Z" fill="white"/>
<path fill-rule="evenodd" clip-rule="evenodd" d="M19.1056 9.64111C18.7121 9.64111 18.3855 9.9452 18.3575 10.3377L18.1845 12.7588C17.7043 12.9228 17.2432 13.1276 16.8051 13.3688L15.0554 11.8136C14.7586 11.5498 14.3076 11.563 14.0268 11.8438L11.8437 14.027C11.5629 14.3078 11.5496 14.7588 11.8134 15.0556L13.3687 16.8053C13.1275 17.2433 12.9228 17.7044 12.7588 18.1845L10.3377 18.3575C9.9452 18.3855 9.64111 18.7121 9.64111 19.1056V22.8944C9.64111 23.2879 9.9452 23.6145 10.3377 23.6425L12.7588 23.8155C12.9056 24.2451 13.0849 24.6596 13.2939 25.0559L11.8136 26.7212C11.5498 27.018 11.563 27.469 11.8438 27.7498L14.027 29.933C14.3078 30.2138 14.7588 30.2271 15.0556 29.9632L16.6516 28.5446C17.135 28.8237 17.6479 29.0579 18.1845 29.2412L18.3575 31.6623C18.3855 32.0548 18.7121 32.3589 19.1056 32.3589H22.8944C23.2879 32.3589 23.6145 32.0548 23.6425 31.6623L23.8155 29.2412C24.3019 29.075 24.7688 28.8671 25.2119 28.6218L26.7212 29.9634C27.018 30.2272 27.469 30.2139 27.7498 29.9332L29.933 27.75C30.2138 27.4692 30.227 27.0182 29.9632 26.7214L28.6216 25.2121C28.8671 24.7689 29.075 24.3019 29.2412 23.8155L31.6623 23.6425C32.0548 23.6145 32.3589 23.2879 32.3589 22.8944V19.1056C32.3589 18.7121 32.0548 18.3855 31.6623 18.3575L29.2412 18.1845C29.0579 17.6479 28.8237 17.135 28.5446 16.6516L29.9634 15.0554C30.2272 14.7586 30.2139 14.3076 29.9331 14.0268L27.75 11.8437C27.4692 11.5629 27.0182 11.5496 26.7214 11.8135L25.0559 13.2939C24.6596 13.0849 24.2451 12.9056 23.8155 12.7588L23.6425 10.3377C23.6145 9.9452 23.2879 9.64111 22.8944 9.64111H19.1056ZM19.6441 13.3779L19.8039 11.1411H22.1961L22.3559 13.3779C22.3785 13.6954 22.5991 13.964 22.9061 14.0479C23.5667 14.2286 24.1897 14.501 24.7605 14.8509C25.0422 15.0236 25.4038 14.9916 25.6507 14.7721L27.1894 13.4044L28.3724 14.5875L27.0512 16.0738C26.8241 16.3294 26.7985 16.7061 26.989 16.99C27.4165 17.6271 27.7447 18.3357 27.9521 19.0939C28.036 19.4009 28.3046 19.6214 28.6221 19.6441L30.8589 19.8039V22.1961L28.6221 22.3559C28.3046 22.3786 28.036 22.5991 27.9521 22.9061C27.7573 23.6185 27.4557 24.2872 27.0653 24.8938C26.8832 25.1768 26.9119 25.5464 27.1355 25.798L28.3723 27.1894L27.1892 28.3724L25.7978 27.1356C25.5463 26.912 25.1767 26.8833 24.8937 27.0654C24.287 27.4557 23.6185 27.7573 22.9061 27.9521C22.5991 28.036 22.3785 28.3046 22.3559 28.6221L22.1961 30.8589H19.8039L19.6441 28.6221C19.6214 28.3046 19.4009 28.036 19.0939 27.9521C18.3357 27.7447 17.6271 27.4165 16.99 26.989C16.7061 26.7985 16.3293 26.8241 16.0738 27.0512L14.5876 28.3723L13.4045 27.1892L14.7721 25.6508C14.9916 25.4038 15.0236 25.0422 14.8509 24.7605C14.501 24.1897 14.2286 23.5667 14.0479 22.9061C13.9639 22.5991 13.6954 22.3786 13.3779 22.3559L11.1411 22.1961V19.8039L13.3779 19.6441C13.6954 19.6214 13.9639 19.4009 14.0479 19.0939C14.2412 18.3873 14.5394 17.7237 14.9252 17.121C15.1062 16.8381 15.0771 16.4694 14.854 16.2184L13.4044 14.5876L14.5874 13.4045L16.2182 14.8541C16.4692 15.0773 16.838 15.1063 17.1208 14.9253C17.7236 14.5395 18.3872 14.2412 19.0939 14.0479C19.4009 13.964 19.6214 13.6954 19.6441 13.3779Z" fill="white"/>
</svg>
