<svg width="42" height="42" viewBox="0 0 42 42" fill="none" xmlns="http://www.w3.org/2000/svg">
<path fill-rule="evenodd" clip-rule="evenodd" d="M3.85938 13.8845V23.8114C3.85938 25.2044 4.98862 26.3336 6.38161 26.3336H17.8843V26.3353C17.9048 26.3336 17.9255 26.3328 17.9464 26.3328C18.3606 26.3328 18.6964 26.6686 18.6964 27.0828C18.6964 27.497 18.3606 27.8328 17.9464 27.8328C17.9255 27.8328 17.9048 27.8319 17.8843 27.8303V27.8336H6.38161C4.16019 27.8336 2.35938 26.0328 2.35938 23.8114V9.06317C2.35938 6.84174 4.16019 5.04092 6.38162 5.04092H30.5151C32.7365 5.04092 34.5373 6.84174 34.5373 9.06317V16.4587C34.5383 16.4745 34.5388 16.4904 34.5388 16.5065C34.5388 16.9207 34.203 17.2565 33.7888 17.2565C33.3746 17.2565 33.0388 16.9207 33.0388 16.5065C33.0388 16.5042 33.0388 16.5019 33.0388 16.4995H33.0373V13.8845H3.85938ZM6.38162 6.54092H30.5151C31.9081 6.54092 33.0373 7.67017 33.0373 9.06317V12.3845H3.85938V9.06317C3.85938 7.67017 4.98862 6.54092 6.38162 6.54092Z" fill="white"/>
<path fill-rule="evenodd" clip-rule="evenodd" d="M30.2889 17.4765C30.7031 17.4765 31.0389 17.8123 31.0389 18.2265V19.8519C34.5288 20.203 37.3037 22.9779 37.6547 26.4678H38.8906C39.3048 26.4678 39.6406 26.8036 39.6406 27.2178C39.6406 27.632 39.3048 27.9678 38.8906 27.9678H37.6547C37.3036 31.4577 34.5288 34.2326 31.0389 34.5837V36.2092C31.0389 36.6235 30.7031 36.9592 30.2889 36.9592C29.8747 36.9592 29.5389 36.6235 29.5389 36.2092V34.5837C26.0489 34.2326 23.274 31.4578 22.9229 27.9678H21.6872C21.273 27.9678 20.9372 27.632 20.9372 27.2178C20.9372 26.8036 21.273 26.4678 21.6872 26.4678H22.9229C23.274 22.9779 26.0489 20.2029 29.5389 19.8519V18.2265C29.5389 17.8123 29.8747 17.4765 30.2889 17.4765ZM24.4326 26.4678C24.7699 23.8071 26.8782 21.6988 29.5389 21.3615V26.4678H24.4326ZM31.0389 21.3615V26.4678H36.1451C35.8078 23.8072 33.6995 21.6989 31.0389 21.3615ZM24.4326 27.9678H29.5389V33.074C26.8782 32.7367 24.7699 30.6285 24.4326 27.9678ZM31.0389 27.9678V33.074C33.6995 32.7367 35.8077 30.6284 36.1451 27.9678H31.0389Z" fill="white"/>
</svg>
