<svg width="42" height="42" viewBox="0 0 42 42" fill="none" xmlns="http://www.w3.org/2000/svg">
<g id="Generative Adversarial Networks">
<path id="Generative Adversarial Networks_2" fill-rule="evenodd" clip-rule="evenodd" d="M4.8587 7.81519C3.33992 7.81519 2.1087 9.0464 2.1087 10.5652C2.1087 12.084 3.33992 13.3152 4.8587 13.3152C6.37749 13.3152 7.6087 12.084 7.6087 10.5652C7.6087 9.0464 6.37749 7.81519 4.8587 7.81519ZM0.608704 10.5652C0.608704 8.21798 2.51149 6.31519 4.8587 6.31519C6.99714 6.31519 8.7667 7.89454 9.06457 9.95044L11.0524 9.95044V8.06519C11.0524 7.09869 11.8359 6.31519 12.8024 6.31519H17.8024C18.7689 6.31519 19.5524 7.09869 19.5524 8.06519V9.8952L23.6996 16.7419L24.1279 16.4971C24.6659 16.1897 25.3264 16.1897 25.8644 16.4971L26.6152 16.9261L30.4399 10.6582V8.36481C30.4399 7.39831 31.2234 6.61481 32.1899 6.61481H39.1899C40.1564 6.61481 40.9399 7.39831 40.9399 8.36481V33.3648C40.9399 34.3313 40.1564 35.1148 39.1899 35.1148H32.1899C31.2234 35.1148 30.4399 34.3313 30.4399 33.3648V30.4551L26.5811 24.8229L25.8644 25.2325C25.3264 25.5399 24.6659 25.5399 24.1279 25.2325L23.8113 25.0515L19.5524 31.5416V33.6644C19.5524 34.6309 18.7689 35.4144 17.8024 35.4144H12.8024C11.8359 35.4144 11.0524 34.6309 11.0524 33.6644V32.0496H9.0164C8.60916 33.9719 6.90239 35.4144 4.8587 35.4144C2.51149 35.4144 0.608704 33.5116 0.608704 31.1644C0.608704 28.8172 2.51149 26.9144 4.8587 26.9144C6.9971 26.9144 8.76663 28.4937 9.06455 30.5496H11.0524V28.6644C11.0524 27.6979 11.8359 26.9144 12.8024 26.9144H17.8024C18.7689 26.9144 19.5524 27.6979 19.5524 28.6644V28.8075L22.5064 24.3059L21.6279 23.8039C21.0827 23.4923 20.7462 22.9125 20.7462 22.2845V19.4451C20.7462 18.8171 21.0827 18.2373 21.6279 17.9257L22.3968 17.4863L19.5524 12.7904V13.0652C19.5524 14.0317 18.7689 14.8152 17.8024 14.8152H12.8024C11.8359 14.8152 11.0524 14.0317 11.0524 13.0652V11.4504L9.01638 11.4504C8.60909 13.3728 6.90234 14.8152 4.8587 14.8152C2.51149 14.8152 0.608704 12.9124 0.608704 10.5652ZM12.8024 7.81519C12.6644 7.81519 12.5524 7.92711 12.5524 8.06519V13.0652C12.5524 13.2033 12.6644 13.3152 12.8024 13.3152H17.8024C17.9405 13.3152 18.0524 13.2033 18.0524 13.0652V8.06519C18.0524 7.92711 17.9405 7.81519 17.8024 7.81519H12.8024ZM30.4399 27.8012V13.5379L27.9181 17.6707L28.3644 17.9257C28.9097 18.2373 29.2462 18.8171 29.2462 19.4451V22.2845C29.2462 22.9125 28.9097 23.4923 28.3644 23.8039L27.8878 24.0762L30.4399 27.8012ZM31.9399 8.36481C31.9399 8.22674 32.0519 8.11481 32.1899 8.11481H39.1899C39.328 8.11481 39.4399 8.22674 39.4399 8.36481V33.3648C39.4399 33.5029 39.328 33.6148 39.1899 33.6148H32.1899C32.0519 33.6148 31.9399 33.5029 31.9399 33.3648V8.36481ZM22.2462 22.2845C22.2462 22.3742 22.2942 22.457 22.3721 22.5015L24.8721 23.9301C24.949 23.974 25.0433 23.974 25.1202 23.9301L27.6202 22.5015C27.6981 22.457 27.7462 22.3742 27.7462 22.2845V19.4451C27.7462 19.3554 27.6981 19.2726 27.6202 19.2281L25.1202 17.7995C25.0433 17.7556 24.949 17.7556 24.8721 17.7995L22.3721 19.2281C22.2942 19.2726 22.2462 19.3554 22.2462 19.4451V22.2845ZM12.5524 28.6644C12.5524 28.5263 12.6643 28.4144 12.8024 28.4144H17.8024C17.9405 28.4144 18.0524 28.5263 18.0524 28.6644V33.6644C18.0524 33.8025 17.9405 33.9144 17.8024 33.9144H12.8024C12.6643 33.9144 12.5524 33.8025 12.5524 33.6644V28.6644ZM2.1087 31.1644C2.1087 29.6456 3.33992 28.4144 4.8587 28.4144C6.37749 28.4144 7.6087 29.6456 7.6087 31.1644C7.6087 32.6832 6.37749 33.9144 4.8587 33.9144C3.33992 33.9144 2.1087 32.6832 2.1087 31.1644ZM38.1899 12.4489C38.1899 13.8296 37.0707 14.9489 35.6899 14.9489C34.3092 14.9489 33.1899 13.8296 33.1899 12.4489C33.1899 11.0681 34.3092 9.94885 35.6899 9.94885C37.0707 9.94885 38.1899 11.0681 38.1899 12.4489ZM36.6899 29.2805C36.6899 29.8328 36.2422 30.2805 35.6899 30.2805C35.1377 30.2805 34.6899 29.8328 34.6899 29.2805C34.6899 28.7282 35.1377 28.2805 35.6899 28.2805C36.2422 28.2805 36.6899 28.7282 36.6899 29.2805ZM38.1899 29.2805C38.1899 30.6612 37.0707 31.7805 35.6899 31.7805C34.3092 31.7805 33.1899 30.6612 33.1899 29.2805C33.1899 27.8998 34.3092 26.7805 35.6899 26.7805C37.0707 26.7805 38.1899 27.8998 38.1899 29.2805Z" fill="white"/>
</g>
</svg>
