<svg width="42" height="42" viewBox="0 0 42 42" fill="none" xmlns="http://www.w3.org/2000/svg">
<g id="Gradient Descent">
<path id="Gradient Descent_2" fill-rule="evenodd" clip-rule="evenodd" d="M8.04754 9.74743C7.00473 11.0109 6.11926 12.7486 5.49757 14.821C7.61033 15.0674 9.25 16.8633 9.25 19.0422C9.25 21.3894 7.34721 23.2922 5 23.2922C2.65279 23.2922 0.75 21.3894 0.75 19.0422C0.75 17.0735 2.08852 15.4175 3.90513 14.9346C4.57246 12.4829 5.59824 10.3586 6.89067 8.79263C8.30898 7.07416 10.1015 5.9726 12.1164 5.9726C14.8136 5.9726 17.0977 7.93165 18.6644 10.7518C19.9119 12.9974 20.7692 15.8873 21.0753 19.0925C21.6996 17.4381 22.5029 15.9924 23.4491 14.846C24.8674 13.1275 26.6599 12.0259 28.6748 12.0259C31.372 12.0259 33.6561 13.985 35.2228 16.8051C36.781 19.6101 37.7305 23.4205 37.7573 27.5947C39.7432 27.9519 41.25 29.6887 41.25 31.7774C41.25 34.1246 39.3472 36.0274 37 36.0274C34.6528 36.0274 32.75 34.1246 32.75 31.7774C32.75 29.6836 34.2641 27.9434 36.2572 27.5921C36.23 23.627 35.3249 20.0777 33.9115 17.5336C32.4622 14.9247 30.5798 13.5259 28.6748 13.5259C27.2482 13.5259 25.8429 14.302 24.6059 15.8008C23.4983 17.1428 22.5682 19.0199 21.9431 21.2648C23.8364 21.6937 25.25 23.3867 25.25 25.4098C25.25 27.757 23.3472 29.6598 21 29.6598C18.6528 29.6598 16.75 27.757 16.75 25.4098C16.75 23.5171 17.9872 21.9133 19.697 21.3632C19.6448 17.4689 18.7456 13.9868 17.3531 11.4802C15.9038 8.8714 14.0214 7.4726 12.1164 7.4726C10.6898 7.4726 9.28451 8.24868 8.04754 9.74743ZM18.25 25.4098C18.25 23.891 19.4812 22.6598 21 22.6598C22.5188 22.6598 23.75 23.891 23.75 25.4098C23.75 26.9285 22.5188 28.1598 21 28.1598C19.4812 28.1598 18.25 26.9285 18.25 25.4098ZM5 16.2922C3.48122 16.2922 2.25 17.5234 2.25 19.0422C2.25 20.561 3.48122 21.7922 5 21.7922C6.51878 21.7922 7.75 20.561 7.75 19.0422C7.75 17.5234 6.51878 16.2922 5 16.2922ZM34.25 31.7774C34.25 30.2586 35.4812 29.0274 37 29.0274C38.5188 29.0274 39.75 30.2586 39.75 31.7774C39.75 33.2962 38.5188 34.5274 37 34.5274C35.4812 34.5274 34.25 33.2962 34.25 31.7774Z" fill="white"/>
</g>
</svg>
