<svg width="42" height="42" viewBox="0 0 42 42" fill="none" xmlns="http://www.w3.org/2000/svg">
<path d="M8.01904 9.5C8.01904 7.42893 9.69797 5.75 11.769 5.75H36.1437C38.2147 5.75 39.8937 7.42893 39.8937 9.5V26.5111C39.8937 28.5821 38.2147 30.2611 36.1437 30.2611H22.2901C21.8759 30.2611 21.5401 29.9253 21.5401 29.5111C21.5401 29.0969 21.8759 28.7611 22.2901 28.7611H36.1437C37.3863 28.7611 38.3937 27.7537 38.3937 26.5111V9.5C38.3937 8.25736 37.3863 7.25 36.1437 7.25H11.769C10.5264 7.25 9.51904 8.25736 9.51904 9.5V16.6869C9.51904 17.1012 9.18326 17.4369 8.76904 17.4369C8.35483 17.4369 8.01904 17.1012 8.01904 16.6869V9.5Z" fill="white"/>
<path fill-rule="evenodd" clip-rule="evenodd" d="M16.7622 10.8213C15.2435 10.8213 14.0122 12.0525 14.0122 13.5713C14.0122 15.0901 15.2435 16.3213 16.7622 16.3213C18.281 16.3213 19.5122 15.0901 19.5122 13.5713C19.5122 12.0525 18.281 10.8213 16.7622 10.8213ZM15.5122 13.5713C15.5122 12.881 16.0719 12.3213 16.7622 12.3213C17.4526 12.3213 18.0122 12.881 18.0122 13.5713C18.0122 14.2617 17.4526 14.8213 16.7622 14.8213C16.0719 14.8213 15.5122 14.2617 15.5122 13.5713Z" fill="white"/>
<path fill-rule="evenodd" clip-rule="evenodd" d="M32.1384 16.6971C31.4864 15.4343 29.6805 15.4343 29.0285 16.6971L27.6634 19.341C27.5751 19.5121 27.3346 19.5233 27.2307 19.3611L26.4052 18.0719C25.7168 16.9968 24.1461 16.9968 23.4577 18.0719L20.377 22.8832C19.6312 24.048 20.4676 25.5769 21.8507 25.5769H28.0123L28.0213 25.5769H33.8502C35.1611 25.5769 36.0066 24.1888 35.4052 23.024L32.1384 16.6971ZM30.3613 17.3853C30.4545 17.2049 30.7124 17.2049 30.8056 17.3853L34.0724 23.7122C34.1583 23.8786 34.0375 24.0769 33.8502 24.0769H28.0213L28.0123 24.0769H21.8507C21.6532 24.0769 21.5337 23.8585 21.6402 23.6921L24.7209 18.8808C24.8193 18.7272 25.0437 18.7272 25.142 18.8808L25.9675 20.17C26.6944 21.3051 28.3778 21.2269 28.9962 20.0291L30.3613 17.3853Z" fill="white"/>
<path fill-rule="evenodd" clip-rule="evenodd" d="M12.0785 19.75C8.36471 19.75 5.29449 22.6336 5.29449 26.2625C5.29449 27.2723 5.53437 28.2288 5.96123 29.0813L2.81523 32.1827C1.84593 33.1383 1.87422 34.6748 2.87805 35.594C3.8598 36.493 5.40905 36.4645 6.35703 35.5299L9.60473 32.3283C10.3724 32.6169 11.2072 32.7749 12.0785 32.7749C15.7923 32.7749 18.8625 29.8914 18.8625 26.2625C18.8625 22.6336 15.7923 19.75 12.0785 19.75ZM6.79449 26.2625C6.79449 23.5263 9.1273 21.25 12.0785 21.25C15.0297 21.25 17.3625 23.5263 17.3625 26.2625C17.3625 28.9986 15.0297 31.2749 12.0785 31.2749C11.2409 31.2749 10.4515 31.0905 9.75095 30.7637L9.27858 30.5434L5.30397 34.4617C4.92473 34.8356 4.28381 34.8474 3.89107 34.4877C3.5204 34.1483 3.51038 33.6038 3.8683 33.2509L7.84973 29.3259L7.53079 28.8161C7.0622 28.0672 6.79449 27.1948 6.79449 26.2625Z" fill="white"/>
</svg>
