<svg width="42" height="42" viewBox="0 0 42 42" fill="none" xmlns="http://www.w3.org/2000/svg">
<path fill-rule="evenodd" clip-rule="evenodd" d="M19.2972 16.5475C17.7784 16.5475 16.5472 17.7787 16.5472 19.2975V22.7023C16.5472 24.2211 17.7784 25.4523 19.2972 25.4523H22.702C24.2208 25.4523 25.452 24.2211 25.452 22.7023V19.2975C25.452 17.7787 24.2208 16.5475 22.702 16.5475H19.2972ZM18.0472 19.2975C18.0472 18.6071 18.6068 18.0475 19.2972 18.0475H22.702C23.3924 18.0475 23.952 18.6071 23.952 19.2975V22.7023C23.952 23.3927 23.3924 23.9523 22.702 23.9523H19.2972C18.6068 23.9523 18.0472 23.3927 18.0472 22.7023V19.2975Z" fill="white"/>
<path fill-rule="evenodd" clip-rule="evenodd" d="M13.0801 8.55895C12.2284 8.25181 11.6195 7.4364 11.6195 6.47878C11.6195 5.25787 12.6092 4.26813 13.8301 4.26813C15.051 4.26813 16.0408 5.25787 16.0408 6.47878C16.0408 7.4364 15.4319 8.25181 14.5801 8.55895V11.2117L18.1661 13.5611H20.25L20.25 8.53772C19.4279 8.21548 18.8458 7.41511 18.8458 6.47878C18.8458 5.25787 19.8355 4.26813 21.0565 4.26813C22.2774 4.26813 23.2671 5.25787 23.2671 6.47878C23.2671 7.45742 22.6312 8.28754 21.75 8.57844L21.75 13.5611H23.8339L27.4199 11.2117V8.55895C26.5681 8.25181 25.9592 7.4364 25.9592 6.47878C25.9592 5.25787 26.949 4.26813 28.1699 4.26813C29.3908 4.26813 30.3805 5.25787 30.3805 6.47878C30.3805 7.4364 29.7716 8.25181 28.9199 8.55895V11.617C28.9199 11.8699 28.7924 12.1057 28.5809 12.2443L26.4208 13.6595C27.3513 13.9157 28.0843 14.6486 28.3406 15.5791L29.7557 13.4192C29.8942 13.2077 30.1301 13.0802 30.383 13.0802H33.441C33.7482 12.2285 34.5636 11.6196 35.5212 11.6196C36.7421 11.6196 37.7319 12.6093 37.7319 13.8302C37.7319 15.0511 36.7421 16.0409 35.5212 16.0409C34.5636 16.0409 33.7482 15.432 33.441 14.5802H30.7883L28.4391 18.1659V20.2501H33.4215C33.7124 19.3689 34.5426 18.733 35.5212 18.733C36.7421 18.733 37.7319 19.7227 37.7319 20.9437C37.7319 22.1646 36.7421 23.1543 35.5212 23.1543C34.5849 23.1543 33.7845 22.5722 33.4623 21.7501H28.4391V23.8343L30.7883 27.42H33.441C33.7482 26.5682 34.5636 25.9593 35.5212 25.9593C36.7421 25.9593 37.7319 26.9491 37.7319 28.17C37.7319 29.3909 36.7421 30.3806 35.5212 30.3806C34.5636 30.3806 33.7482 29.7717 33.441 28.92H30.383C30.1301 28.92 29.8942 28.7925 29.7557 28.581L28.3406 26.4211C28.0843 27.3515 27.3514 28.0843 26.421 28.3406L28.5809 29.7557C28.7924 29.8942 28.9199 30.1301 28.9199 30.383V33.441C29.7716 33.7482 30.3805 34.5636 30.3805 35.5212C30.3805 36.7421 29.3908 37.7319 28.1699 37.7319C26.949 37.7319 25.9592 36.7421 25.9592 35.5212C25.9592 34.5636 26.5681 33.7482 27.4199 33.441V30.7883L23.8342 28.4391H21.75V33.4215C22.6312 33.7124 23.2671 34.5426 23.2671 35.5212C23.2671 36.7421 22.2774 37.7319 21.0565 37.7319C19.8355 37.7319 18.8458 36.7421 18.8458 35.5212C18.8458 34.5849 19.4279 33.7845 20.25 33.4623V28.4391H18.1659L14.5801 30.7883V33.441C15.4319 33.7482 16.0408 34.5636 16.0408 35.5212C16.0408 36.7421 15.051 37.7319 13.8301 37.7319C12.6092 37.7319 11.6195 36.7421 11.6195 35.5212C11.6195 34.5636 12.2284 33.7482 13.0801 33.441V30.383C13.0801 30.1301 13.2076 29.8942 13.4191 29.7557L15.5791 28.3406C14.6486 28.0843 13.9158 27.3513 13.6595 26.4209L12.2443 28.581C12.1057 28.7925 11.8699 28.92 11.617 28.92H8.55895C8.25181 29.7717 7.4364 30.3806 6.47878 30.3806C5.25787 30.3806 4.26813 29.3909 4.26813 28.17C4.26813 26.9491 5.25787 25.9593 6.47878 25.9593C7.4364 25.9593 8.25181 26.5682 8.55895 27.42H11.2117L13.5611 23.834V21.7501H8.53772C8.21548 22.5722 7.41511 23.1543 6.47878 23.1543C5.25787 23.1543 4.26813 22.1646 4.26813 20.9437C4.26813 19.7227 5.25787 18.733 6.47878 18.733C7.45742 18.733 8.28754 19.3689 8.57844 20.2501H13.5611V18.1662L11.2117 14.5802H8.55895C8.25181 15.432 7.4364 16.0409 6.47878 16.0409C5.25787 16.0409 4.26813 15.0511 4.26813 13.8302C4.26813 12.6093 5.25787 11.6196 6.47878 11.6196C7.4364 11.6196 8.25181 12.2285 8.55895 13.0802H11.617C11.8699 13.0802 12.1057 13.2077 12.2443 13.4192L13.6595 15.5793C13.9158 14.6488 14.6487 13.9158 15.5792 13.6595L13.4191 12.2443C13.2076 12.1057 13.0801 11.8699 13.0801 11.617V8.55895ZM13.6462 7.24659C13.7051 7.23175 13.7667 7.22387 13.8301 7.22387C13.8936 7.22387 13.9552 7.23175 14.014 7.24659C14.3613 7.16372 14.6195 6.8514 14.6195 6.47878C14.6195 6.04283 14.2661 5.68943 13.8301 5.68943C13.3942 5.68943 13.0408 6.04283 13.0408 6.47878C13.0408 6.8514 13.299 7.16372 13.6462 7.24659ZM21.8458 6.47878C21.8458 6.91472 21.4924 7.26813 21.0565 7.26813C20.6205 7.26813 20.2671 6.91472 20.2671 6.47878C20.2671 6.04283 20.6205 5.68943 21.0565 5.68943C21.4924 5.68943 21.8458 6.04283 21.8458 6.47878ZM28.9592 6.47878C28.9592 6.8514 28.701 7.16372 28.3538 7.24659C28.295 7.23175 28.2333 7.22387 28.1699 7.22387C28.1064 7.22387 28.0448 7.23175 27.986 7.24659C27.6387 7.16372 27.3805 6.8514 27.3805 6.47878C27.3805 6.04283 27.7339 5.68943 28.1699 5.68943C28.6058 5.68943 28.9592 6.04283 28.9592 6.47878ZM21.0565 34.7319C21.4924 34.7319 21.8458 35.0853 21.8458 35.5212C21.8458 35.9572 21.4924 36.3106 21.0565 36.3106C20.6205 36.3106 20.2671 35.9572 20.2671 35.5212C20.2671 35.0853 20.6205 34.7319 21.0565 34.7319ZM13.6462 34.7534C13.7051 34.7682 13.7667 34.7761 13.8301 34.7761C13.8936 34.7761 13.9552 34.7682 14.014 34.7534C14.3613 34.8363 14.6195 35.1486 14.6195 35.5212C14.6195 35.9572 14.2661 36.3106 13.8301 36.3106C13.3942 36.3106 13.0408 35.9572 13.0408 35.5212C13.0408 35.1486 13.299 34.8363 13.6462 34.7534ZM27.3805 35.5212C27.3805 35.1486 27.6387 34.8363 27.986 34.7534C28.0448 34.7682 28.1064 34.7761 28.1699 34.7761C28.2333 34.7761 28.295 34.7682 28.3538 34.7534C28.701 34.8363 28.9592 35.1486 28.9592 35.5212C28.9592 35.9572 28.6058 36.3106 28.1699 36.3106C27.7339 36.3106 27.3805 35.9572 27.3805 35.5212ZM7.22387 13.8302C7.22387 13.8937 7.23175 13.9553 7.24659 14.0141C7.16372 14.3614 6.8514 14.6196 6.47878 14.6196C6.04283 14.6196 5.68943 14.2662 5.68943 13.8302C5.68943 13.3943 6.04283 13.0409 6.47878 13.0409C6.8514 13.0409 7.16372 13.2991 7.24659 13.6463C7.23175 13.7051 7.22387 13.7668 7.22387 13.8302ZM7.24659 27.9861C7.23175 28.0449 7.22387 28.1065 7.22387 28.17C7.22387 28.2334 7.23175 28.295 7.24659 28.3539C7.16372 28.7011 6.8514 28.9593 6.47878 28.9593C6.04283 28.9593 5.68943 28.6059 5.68943 28.17C5.68943 27.734 6.04283 27.3806 6.47878 27.3806C6.8514 27.3806 7.16372 27.6388 7.24659 27.9861ZM6.47878 20.1543C6.91472 20.1543 7.26813 20.5077 7.26813 20.9437C7.26813 21.3796 6.91472 21.733 6.47878 21.733C6.04283 21.733 5.68943 21.3796 5.68943 20.9437C5.68943 20.5077 6.04283 20.1543 6.47878 20.1543ZM34.7319 20.9437C34.7319 20.5077 35.0853 20.1543 35.5212 20.1543C35.9572 20.1543 36.3106 20.5077 36.3106 20.9437C36.3106 21.3796 35.9572 21.733 35.5212 21.733C35.0853 21.733 34.7319 21.3796 34.7319 20.9437ZM34.7534 28.3539C34.7682 28.295 34.7761 28.2334 34.7761 28.17C34.7761 28.1065 34.7682 28.0449 34.7534 27.9861C34.8363 27.6388 35.1486 27.3806 35.5212 27.3806C35.9572 27.3806 36.3106 27.734 36.3106 28.17C36.3106 28.6059 35.9572 28.9593 35.5212 28.9593C35.1486 28.9593 34.8363 28.7011 34.7534 28.3539ZM35.5212 14.6196C35.1486 14.6196 34.8363 14.3614 34.7534 14.0141C34.7682 13.9553 34.7761 13.8937 34.7761 13.8302C34.7761 13.7668 34.7682 13.7052 34.7534 13.6463C34.8363 13.2991 35.1486 13.0409 35.5212 13.0409C35.9572 13.0409 36.3106 13.3943 36.3106 13.8302C36.3106 14.2662 35.9572 14.6196 35.5212 14.6196ZM16.3111 15.0611C15.6207 15.0611 15.0611 15.6207 15.0611 16.3111V25.6891C15.0611 26.3794 15.6207 26.9391 16.3111 26.9391H25.6891C26.3794 26.9391 26.9391 26.3794 26.9391 25.6891V16.3111C26.9391 15.6207 26.3794 15.0611 25.6891 15.0611H16.3111Z" fill="white"/>
</svg>
