<svg width="42" height="42" viewBox="0 0 42 42" fill="none" xmlns="http://www.w3.org/2000/svg">
<path fill-rule="evenodd" clip-rule="evenodd" d="M35.3401 4.46339L36.7543 3.04918L38.1685 4.46339L36.7543 5.8776L35.3401 4.46339ZM36.508 1.17417C36.6441 1.03814 36.8646 1.03814 37.0006 1.17417L40.0436 4.21708C40.1796 4.35311 40.1796 4.57367 40.0436 4.7097L37.0006 7.75261C36.8646 7.88865 36.6441 7.88865 36.508 7.75261L33.4651 4.7097C33.3291 4.57367 33.3291 4.35311 33.4651 4.21708L36.508 1.17417ZM38.3544 21.928C38.3544 31.593 30.5194 39.428 20.8544 39.428C11.1894 39.428 3.35443 31.593 3.35443 21.928C3.35443 12.263 11.1894 4.42798 20.8544 4.42798C30.5194 4.42798 38.3544 12.263 38.3544 21.928ZM39.8544 21.928C39.8544 32.4214 31.3478 40.928 20.8544 40.928C10.361 40.928 1.85443 32.4214 1.85443 21.928C1.85443 11.4346 10.361 2.92798 20.8544 2.92798C31.3478 2.92798 39.8544 11.4346 39.8544 21.928ZM29.3544 21.928C29.3544 26.6224 25.5489 30.428 20.8544 30.428C16.16 30.428 12.3544 26.6224 12.3544 21.928C12.3544 17.2336 16.16 13.428 20.8544 13.428C25.5489 13.428 29.3544 17.2336 29.3544 21.928ZM30.8544 21.928C30.8544 27.4508 26.3773 31.928 20.8544 31.928C15.3316 31.928 10.8544 27.4508 10.8544 21.928C10.8544 16.4051 15.3316 11.928 20.8544 11.928C26.3773 11.928 30.8544 16.4051 30.8544 21.928ZM20.8544 19.16L23.2515 20.544V23.312L20.8544 24.6959L18.4573 23.312V20.544L20.8544 19.16ZM20.3544 17.7167C20.6638 17.538 21.045 17.538 21.3544 17.7167L24.2515 19.3893C24.5609 19.5679 24.7515 19.8981 24.7515 20.2553V23.6006C24.7515 23.9579 24.5609 24.288 24.2515 24.4667L21.3544 26.1393C21.045 26.3179 20.6638 26.3179 20.3544 26.1393L17.4573 24.4667C17.1479 24.288 16.9573 23.9579 16.9573 23.6006V20.2553C16.9573 19.8981 17.1479 19.5679 17.4573 19.3893L20.3544 17.7167ZM9.75882 18.7819L7.59375 15.0319L5.42869 18.7819H9.75882ZM31.7093 31.6741C31.7093 32.5025 31.0377 33.1741 30.2093 33.1741C29.3809 33.1741 28.7093 32.5025 28.7093 31.6741C28.7093 30.8456 29.3809 30.1741 30.2093 30.1741C31.0377 30.1741 31.7093 30.8456 31.7093 31.6741Z" fill="white"/>
</svg>
