<svg width="42" height="42" viewBox="0 0 42 42" fill="none" xmlns="http://www.w3.org/2000/svg">
<path d="M25.7287 24.2295C25.7287 23.8153 26.0645 23.4795 26.4787 23.4795H30.1808C30.4394 23.4795 30.6797 23.6127 30.8168 23.832L32.6679 26.7937C32.8874 27.1449 32.7806 27.6077 32.4294 27.8272C32.0781 28.0467 31.6154 27.9399 31.3959 27.5887L29.7651 24.9795H26.4787C26.0645 24.9795 25.7287 24.6437 25.7287 24.2295Z" fill="white"/>
<path fill-rule="evenodd" clip-rule="evenodd" d="M22.3897 5.07564C22.7449 4.86253 23.2056 4.9777 23.4187 5.33288L25.4894 8.78417L31.1439 8.8262L33.2399 5.33288C33.453 4.9777 33.9137 4.86253 34.2688 5.07564C34.624 5.28875 34.7392 5.74944 34.5261 6.10463L32.4729 9.52661L35.5231 14.8097H39.7739C40.1881 14.8097 40.5239 15.1455 40.5239 15.5597C40.5239 15.974 40.1881 16.3097 39.7739 16.3097H35.5412L32.4596 21.0845L35.5524 26.4414H39.0666C39.4808 26.4414 39.8166 26.7772 39.8166 27.1914C39.8166 27.6056 39.4808 27.9414 39.0666 27.9414H35.4315L32.4768 33.1481L34.0946 35.9013C34.3045 36.2584 34.1851 36.718 33.828 36.9279C33.4709 37.1377 33.0113 37.0183 32.8014 36.6612L31.1154 33.7921L25.5856 33.751L23.8747 36.6613C23.6648 37.0184 23.2051 37.1377 22.848 36.9278C22.491 36.7179 22.3717 36.2582 22.5816 35.9011L24.1182 33.2873L20.9846 27.8598L20.2324 27.8598C19.8182 27.8598 19.4824 27.524 19.4824 27.1098C19.4824 26.6956 19.8182 26.3598 20.2324 26.3598L20.833 26.3598L24.2924 20.2637L31.171 20.3149L34.2316 15.5727L31.2028 10.3267L25.2183 10.2822L22.5098 15.1112L24.3958 18.1497C24.6142 18.5016 24.506 18.964 24.1541 19.1824C23.8022 19.4009 23.3398 19.2926 23.1213 18.9407L21.2225 15.8816H15.2762L14.6456 16.9926C14.4412 17.3529 13.9834 17.4792 13.6232 17.2748C13.2629 17.0703 13.1366 16.6126 13.3411 16.2523L14.1603 14.8088L13.6156 13.8745L12.5074 12.0275C12.2943 11.6723 12.4095 11.2116 12.7647 10.9985C13.1199 10.7854 13.5806 10.9006 13.7937 11.2557L14.9092 13.1149L15.6475 14.3816H21.1992L24.0495 9.29975L22.1324 6.10463C21.9193 5.74944 22.0345 5.28875 22.3897 5.07564ZM22.2072 26.9774L25.2504 32.2484L31.2374 32.2929L34.1924 27.0858L31.1492 21.8148L25.1622 21.7703L22.2072 26.9774Z" fill="white"/>
<path d="M16.2267 17.8291C15.8125 17.8291 15.4767 18.1649 15.4767 18.5791C15.4767 18.9933 15.8125 19.3291 16.2267 19.3291H19.5132L21.1439 21.9383C21.3634 22.2896 21.8262 22.3963 22.1774 22.1768C22.5287 21.9573 22.6354 21.4946 22.4159 21.1433L20.5648 18.1816C20.4278 17.9623 20.1874 17.8291 19.9288 17.8291H16.2267Z" fill="white"/>
<path d="M26.2267 11.8291C25.8125 11.8291 25.4767 12.1649 25.4767 12.5791C25.4767 12.9933 25.8125 13.3291 26.2267 13.3291H29.5132L31.1439 15.9383C31.3634 16.2896 31.8262 16.3963 32.1774 16.1768C32.5287 15.9573 32.6354 15.4946 32.4159 15.1433L30.5648 12.1816C30.4278 11.9623 30.1874 11.8291 29.9288 11.8291H26.2267Z" fill="white"/>
<path fill-rule="evenodd" clip-rule="evenodd" d="M11.4142 18.6147C7.68632 18.6147 4.66425 21.6368 4.66425 25.3647C4.66425 26.4147 4.90452 27.4103 5.33333 28.2978L2.18498 31.4016C1.21568 32.3572 1.24397 33.8936 2.2478 34.8129C3.22955 35.7119 4.77881 35.6834 5.72679 34.7488L8.89272 31.6277C9.67247 31.9419 10.5239 32.1147 11.4142 32.1147C15.1422 32.1147 18.1642 29.0926 18.1642 25.3647C18.1642 21.6368 15.1422 18.6147 11.4142 18.6147ZM6.16425 25.3647C6.16425 22.4652 8.51475 20.1147 11.4142 20.1147C14.3137 20.1147 16.6642 22.4652 16.6642 25.3647C16.6642 28.2642 14.3137 30.6147 11.4142 30.6147C10.5693 30.6147 9.77293 30.4156 9.0676 30.0625L8.58759 29.8222L4.67373 33.6806C4.29449 34.0545 3.65357 34.0663 3.26082 33.7066C2.89016 33.3672 2.88013 32.8226 3.23805 32.4698L7.20565 28.5584L6.90368 28.053C6.43421 27.2672 6.16425 26.3486 6.16425 25.3647Z" fill="white"/>
</svg>
