<svg width="42" height="42" viewBox="0 0 42 42" fill="none" xmlns="http://www.w3.org/2000/svg">
<path fill-rule="evenodd" clip-rule="evenodd" d="M26.174 14.1872L29.4028 11.3171C29.2518 10.9931 29.1675 10.6318 29.1675 10.2508C29.1675 8.85522 30.2988 7.72388 31.6944 7.72388C33.09 7.72388 34.2213 8.85522 34.2213 10.2508C34.2213 11.6464 33.09 12.7777 31.6944 12.7777C31.2259 12.7777 30.7871 12.6502 30.411 12.428L27.0001 15.4598C27.0596 15.6748 27.0914 15.9014 27.0914 16.1353C27.0914 17.5309 25.9601 18.6622 24.5645 18.6622C23.1689 18.6622 22.0376 17.5309 22.0376 16.1353C22.0376 16.0258 22.0446 15.9178 22.0581 15.8119L19.2835 14.5007C18.8222 14.9956 18.1645 15.3051 17.4346 15.3051C16.6241 15.3051 15.9027 14.9235 15.4403 14.3301L12.7652 15.8468C12.6467 15.3403 12.3759 14.8925 12.0037 14.5542L14.9109 12.906C14.9088 12.8636 14.9077 12.821 14.9077 12.7781C14.9077 11.3826 16.0391 10.2512 17.4346 10.2512C18.8302 10.2512 19.9615 11.3826 19.9615 12.7781C19.9615 12.9042 19.9523 13.0281 19.9345 13.1493L22.6832 14.4483C23.1458 13.9327 23.8173 13.6084 24.5645 13.6084C25.1761 13.6084 25.7369 13.8256 26.174 14.1872ZM18.4615 12.7781C18.4615 13.3453 18.0018 13.8051 17.4346 13.8051C16.8675 13.8051 16.4077 13.3453 16.4077 12.7781C16.4077 12.211 16.8675 11.7512 17.4346 11.7512C18.0018 11.7512 18.4615 12.211 18.4615 12.7781ZM24.5645 17.1622C25.1317 17.1622 25.5914 16.7025 25.5914 16.1353C25.5914 15.5682 25.1317 15.1084 24.5645 15.1084C23.9974 15.1084 23.5376 15.5682 23.5376 16.1353C23.5376 16.7025 23.9974 17.1622 24.5645 17.1622ZM32.7213 10.2508C32.7213 10.8179 32.2615 11.2777 31.6944 11.2777C31.1272 11.2777 30.6675 10.8179 30.6675 10.2508C30.6675 9.68364 31.1272 9.22388 31.6944 9.22388C32.2615 9.22388 32.7213 9.68364 32.7213 10.2508Z" fill="white"/>
<path fill-rule="evenodd" clip-rule="evenodd" d="M10.3047 18.9518C11.7003 18.9518 12.8317 17.8204 12.8317 16.4249C12.8317 15.0293 11.7003 13.8979 10.3047 13.8979C8.90917 13.8979 7.77783 15.0293 7.77783 16.4249C7.77783 17.8204 8.90917 18.9518 10.3047 18.9518ZM10.3047 17.4518C10.8719 17.4518 11.3317 16.992 11.3317 16.4249C11.3317 15.8577 10.8719 15.3979 10.3047 15.3979C9.7376 15.3979 9.27783 15.8577 9.27783 16.4249C9.27783 16.992 9.7376 17.4518 10.3047 17.4518Z" fill="white"/>
<path d="M10.2929 21.2339C10.7071 21.2339 11.0429 21.5697 11.0429 21.9839V25.071C11.0429 25.4853 10.7071 25.821 10.2929 25.821C9.87868 25.821 9.54289 25.4853 9.54289 25.071V21.9839C9.54289 21.5697 9.87868 21.2339 10.2929 21.2339Z" fill="white"/>
<path d="M25.3192 21.9839C25.3192 21.5697 24.9835 21.2339 24.5692 21.2339C24.155 21.2339 23.8192 21.5697 23.8192 21.9839V25.071C23.8192 25.4853 24.155 25.821 24.5692 25.821C24.9835 25.821 25.3192 25.4853 25.3192 25.071V21.9839Z" fill="white"/>
<path d="M31.7066 15.0712C32.1208 15.0712 32.4566 15.407 32.4566 15.8212V25.071C32.4566 25.4852 32.1208 25.821 31.7066 25.821C31.2924 25.821 30.9566 25.4852 30.9566 25.071V15.8212C30.9566 15.407 31.2924 15.0712 31.7066 15.0712Z" fill="white"/>
<path d="M18.1812 18.9518C18.1812 18.5376 17.8454 18.2018 17.4312 18.2018C17.017 18.2018 16.6812 18.5376 16.6812 18.9518V25.0712C16.6812 25.4854 17.017 25.8212 17.4312 25.8212C17.8454 25.8212 18.1812 25.4854 18.1812 25.0712V18.9518Z" fill="white"/>
<path fill-rule="evenodd" clip-rule="evenodd" d="M3.64624 7.14184C3.64624 6.03728 4.54167 5.14185 5.64624 5.14185H36.354C37.4586 5.14185 38.354 6.03728 38.354 7.14185V28.0674C38.354 29.1719 37.4586 30.0674 36.354 30.0674H21.75V35.3582H27.8506C28.2648 35.3582 28.6006 35.6939 28.6006 36.1082C28.6006 36.5224 28.2648 36.8582 27.8506 36.8582H21.0048L21 36.8582L20.9952 36.8582H14.1489C13.7347 36.8582 13.3989 36.5224 13.3989 36.1082C13.3989 35.6939 13.7347 35.3582 14.1489 35.3582H20.25V30.0674L5.64624 30.0674C4.54167 30.0674 3.64624 29.1719 3.64624 28.0674V7.14184ZM5.64624 6.64185H36.354C36.6302 6.64185 36.854 6.86571 36.854 7.14185V28.0674C36.854 28.3435 36.6302 28.5674 36.354 28.5674H5.64624C5.3701 28.5674 5.14624 28.3435 5.14624 28.0674V7.14184C5.14624 6.8657 5.3701 6.64185 5.64624 6.64185Z" fill="white"/>
</svg>
