<svg width="42" height="42" viewBox="0 0 42 42" fill="none" xmlns="http://www.w3.org/2000/svg">
<path fill-rule="evenodd" clip-rule="evenodd" d="M18.875 8.99927V3.99927H23.875V8.99927H18.875ZM18.375 10.4993C17.8227 10.4993 17.375 10.0516 17.375 9.49927V9.46448L13.3156 16.7714L17.375 19.4777V18C17.375 17.4477 17.8227 17 18.375 17H24.375C24.9273 17 25.375 17.4477 25.375 18V20.2486H32.8252L25.375 9.07908V9.49927C25.375 10.0516 24.9273 10.4993 24.375 10.4993H18.375ZM32.8252 21.7514H25.375V24C25.375 24.5523 24.9273 25 24.375 25H18.375C17.8227 25 17.375 24.5523 17.375 24V21.2839L12.5834 18.0894L10.8311 21.2435L17.375 33.0267V32.5007C17.375 31.9484 17.8227 31.5007 18.375 31.5007H24.375C24.9273 31.5007 25.375 31.9484 25.375 32.5007V32.9209L32.8252 21.7514ZM25.375 38.5007V35.6039L25.3867 35.6117L33.4014 23.5959V24C33.4014 24.5523 33.8491 25 34.4014 25H40.4014C40.9537 25 41.4014 24.5523 41.4014 24V18C41.4014 17.4477 40.9537 17 40.4014 17H34.4014C33.8491 17 33.4014 17.4477 33.4014 18V18.4041L25.3867 6.38834L25.375 6.39614V3.49927C25.375 2.94698 24.9273 2.49927 24.375 2.49927H18.375C17.8227 2.49927 17.375 2.94698 17.375 3.49927V6.4565L17.3383 6.43609L12.0611 15.9351L10.0968 14.6256C10.098 14.5839 10.0986 14.542 10.0986 14.5C10.0986 12.1528 8.19584 10.25 5.84863 10.25C3.50142 10.25 1.59863 12.1528 1.59863 14.5C1.59863 16.8472 3.50142 18.75 5.84863 18.75C6.44754 18.75 7.01752 18.6261 7.53433 18.4026L9.11199 21.2434L7.74868 23.6973C7.17691 23.4111 6.53158 23.25 5.84863 23.25C3.50142 23.25 1.59863 25.1528 1.59863 27.5C1.59863 29.8472 3.50142 31.75 5.84863 31.75C6.98828 31.75 8.02315 31.3014 8.78633 30.5712L17.0438 35.5257L17.0665 35.5665L17.09 35.5534L17.375 35.7244V38.5007C17.375 39.053 17.8227 39.5007 18.375 39.5007H24.375C24.9273 39.5007 25.375 39.053 25.375 38.5007ZM15.5841 32.8973L9.67503 29.3519C9.94644 28.7921 10.0986 28.1638 10.0986 27.5C10.0986 26.3826 9.66741 25.3659 8.96231 24.6073L9.97143 22.7909L15.5841 32.8973ZM9.74595 16.1978C9.5196 16.7167 9.19268 17.1816 8.78981 17.5679L9.97166 19.696L11.3288 17.2531L9.74595 16.1978ZM18.875 34.9307V38.0007H23.875V33.0007H18.875V34.8718L18.901 34.8874L18.875 34.9307ZM18.875 18.5V23.5H23.875V18.5H18.875ZM34.9014 18.5H39.9014V23.5H34.9014V18.5ZM8.59863 14.5C8.59863 12.9812 7.36742 11.75 5.84863 11.75C4.32985 11.75 3.09863 12.9812 3.09863 14.5C3.09863 16.0188 4.32985 17.25 5.84863 17.25C7.36742 17.25 8.59863 16.0188 8.59863 14.5ZM5.84863 24.75C7.36742 24.75 8.59863 25.9812 8.59863 27.5C8.59863 29.0188 7.36742 30.25 5.84863 30.25C4.32985 30.25 3.09863 29.0188 3.09863 27.5C3.09863 25.9812 4.32985 24.75 5.84863 24.75Z" fill="white"/>
<path d="M8.5144 11.8521L18.5144 5.85214" stroke="white" stroke-width="1.50283"/>
<path d="M8.81488 27L17.8149 21" stroke="white" stroke-width="1.50283"/>
</svg>
