<svg width="42" height="42" viewBox="0 0 42 42" fill="none" xmlns="http://www.w3.org/2000/svg">
<path fill-rule="evenodd" clip-rule="evenodd" d="M17.25 8.875C17.25 7.35622 18.4812 6.125 20 6.125H23C24.5188 6.125 25.75 7.35622 25.75 8.875C25.75 10.3938 24.5188 11.625 23 11.625H22.25V12.875H30C32.2091 12.875 34 14.6659 34 16.875V17.875H35C36.6569 17.875 38 19.2181 38 20.875V27.875C38 29.5319 36.6569 30.875 35 30.875H34V31.875C34 34.0841 32.2091 35.875 30 35.875H12C9.79086 35.875 8 34.0841 8 31.875V30.875H7C5.34315 30.875 4 29.5319 4 27.875V20.875C4 19.2181 5.34315 17.875 7 17.875H8V16.875C8 14.6659 9.79086 12.875 12 12.875H20.75V11.625H20C18.4812 11.625 17.25 10.3938 17.25 8.875ZM20 7.625C19.3096 7.625 18.75 8.18464 18.75 8.875C18.75 9.56536 19.3096 10.125 20 10.125H23C23.6904 10.125 24.25 9.56536 24.25 8.875C24.25 8.18464 23.6904 7.625 23 7.625H20ZM30 14.375H12C10.6193 14.375 9.5 15.4943 9.5 16.875V31.875C9.5 33.2557 10.6193 34.375 12 34.375H30C31.3807 34.375 32.5 33.2557 32.5 31.875V16.875C32.5 15.4943 31.3807 14.375 30 14.375ZM7 19.375H8V29.375H7C6.17157 29.375 5.5 28.7034 5.5 27.875V20.875C5.5 20.0466 6.17157 19.375 7 19.375ZM35 29.375H34V19.375H35C35.8284 19.375 36.5 20.0466 36.5 20.875V27.875C36.5 28.7034 35.8284 29.375 35 29.375ZM17.4622 25.7529C17.4622 25.3387 17.1264 25.0029 16.7122 25.0029C16.298 25.0029 15.9622 25.3387 15.9622 25.7529C15.9622 28.5352 18.2177 30.7907 21 30.7907C23.7823 30.7907 26.0378 28.5352 26.0378 25.7529C26.0378 25.3387 25.702 25.0029 25.2878 25.0029C24.8736 25.0029 24.5378 25.3387 24.5378 25.7529C24.5378 27.7068 22.9539 29.2907 21 29.2907C19.0461 29.2907 17.4622 27.7068 17.4622 25.7529Z" fill="white"/>
</svg>
