<svg width="42" height="42" viewBox="0 0 42 42" fill="none" xmlns="http://www.w3.org/2000/svg">
<path fill-rule="evenodd" clip-rule="evenodd" d="M21.9976 20.4532C24.2248 21.7391 27.0728 20.976 28.3587 18.7488C29.6446 16.5215 28.8815 13.6736 26.6543 12.3877C24.427 11.1018 21.579 11.8649 20.2931 14.0921C19.0073 16.3193 19.7704 19.1673 21.9976 20.4532ZM22.7476 19.1542C24.2574 20.0259 26.188 19.5086 27.0597 17.9988C27.9314 16.489 27.4141 14.5584 25.9043 13.6867C24.3945 12.815 22.4639 13.3323 21.5922 14.8421C20.7205 16.3519 21.2378 18.2825 22.7476 19.1542Z" fill="white"/>
<path fill-rule="evenodd" clip-rule="evenodd" d="M12.6682 17.2085C12.861 16.818 13.0674 16.4312 13.2881 16.0489C17.6713 8.4569 26.4292 4.86816 30.212 3.62228C31.2203 3.29018 32.2468 3.8828 32.4634 4.9221C33.2758 8.82103 34.5468 18.1999 30.1636 25.7919C29.9582 26.1476 29.7433 26.4944 29.5197 26.8327L30.4841 32.7045C30.5215 32.9323 30.4519 33.1647 30.2954 33.3345L24.9442 39.1376C24.7711 39.3254 24.5143 39.4122 24.2627 39.3679C24.0112 39.3235 23.7995 39.1542 23.7009 38.9186L21.7365 34.2212C21.6588 34.2706 21.5812 34.3196 21.5035 34.3681C20.8966 34.7474 20.1303 34.744 19.5106 34.3861L11.1718 29.5717C10.552 29.2139 10.1659 28.552 10.1909 27.8368C10.1941 27.7459 10.1977 27.6547 10.2016 27.5633L5.15361 28.2105C4.90026 28.243 4.6478 28.1443 4.48364 27.9486C4.31948 27.7529 4.2662 27.4872 4.34225 27.2433L6.69239 19.7075C6.76193 19.4845 6.9314 19.3066 7.15077 19.2264L12.6682 17.2085ZM30.9949 5.22809C31.7956 9.07052 32.9518 17.9625 28.8645 25.0419C27.5933 27.2438 25.9126 29.1004 24.0767 30.6526L12.122 23.7506C12.5484 21.3845 13.3159 19.0008 14.5872 16.7989C18.6745 9.71945 26.9533 6.27482 30.6812 5.04699C30.7778 5.01518 30.8432 5.03305 30.8846 5.05695C30.926 5.08086 30.9742 5.12852 30.9949 5.22809ZM10.57 23.9258C10.5521 23.9868 10.5424 24.049 10.5403 24.1109C10.4387 24.7591 10.3607 25.4028 10.3031 26.038L6.12222 26.5741L8.01404 20.5079L11.8432 19.1074C11.2398 20.6995 10.8319 22.3252 10.57 23.9258ZM23.0067 33.3705L24.6338 37.2615L28.9446 32.5866L28.2773 28.5234C27.1921 29.8596 25.9764 31.04 24.7082 32.0785C24.6607 32.1294 24.607 32.1727 24.549 32.2079C24.0411 32.6176 23.5253 33.0049 23.0067 33.3705ZM22.8148 31.6561C22.1217 32.175 21.4155 32.6543 20.7086 33.0961C20.5959 33.1665 20.4248 33.1819 20.2606 33.0871L11.9218 28.2727C11.7576 28.1779 11.6854 28.022 11.69 27.8892C11.7191 27.0561 11.7811 26.2048 11.8839 25.3451L22.8148 31.6561Z" fill="white"/>
<path d="M11.3512 32.1877C11.5583 31.829 11.4354 31.3703 11.0767 31.1632C10.718 30.9561 10.2593 31.079 10.0522 31.4377L9.24731 32.8318C9.04021 33.1905 9.16311 33.6492 9.52183 33.8563C9.88055 34.0634 10.3392 33.9405 10.5464 33.5818L11.3512 32.1877Z" fill="white"/>
<path d="M14.6293 33.2141C14.988 33.4212 15.1109 33.8799 14.9038 34.2387L12.9174 37.6793C12.7103 38.038 12.2516 38.1609 11.8928 37.9538C11.5341 37.7467 11.4112 37.288 11.6183 36.9293L13.6048 33.4887C13.8119 33.1299 14.2706 33.007 14.6293 33.2141Z" fill="white"/>
<path d="M18.4565 36.2898C18.6636 35.9311 18.5407 35.4724 18.182 35.2653C17.8232 35.0582 17.3645 35.1811 17.1574 35.5398L16.3526 36.9338C16.1455 37.2926 16.2684 37.7513 16.6271 37.9584C16.9858 38.1655 17.4445 38.0426 17.6516 37.6838L18.4565 36.2898Z" fill="white"/>
</svg>
