<svg width="42" height="42" viewBox="0 0 42 42" fill="none" xmlns="http://www.w3.org/2000/svg">
<path fill-rule="evenodd" clip-rule="evenodd" d="M30.1888 6.94198C29.8146 5.79034 28.1854 5.79033 27.8112 6.94198L26.659 10.4881H22.9304C21.7195 10.4881 21.216 12.0376 22.1957 12.7493L25.2122 14.941L24.06 18.4871C23.6858 19.6387 25.0039 20.5964 25.9835 19.8846L29 17.693L32.0165 19.8846C32.9961 20.5964 34.3142 19.6387 33.94 18.4871L32.7878 14.941L35.8043 12.7493C36.784 12.0376 36.2805 10.4881 35.0696 10.4881H31.341L30.1888 6.94198ZM28.0294 11.1243L29 8.13726L29.9706 11.1243C30.1379 11.6394 30.6179 11.9881 31.1594 11.9881H34.3002L31.7592 13.8342C31.3211 14.1525 31.1378 14.7167 31.3051 15.2317L32.2757 18.2188L29.7347 16.3727C29.2966 16.0544 28.7034 16.0544 28.2653 16.3727L25.7243 18.2188L26.6949 15.2317C26.8622 14.7167 26.6789 14.1525 26.2408 13.8342L23.6998 11.9881H26.8406C27.3822 11.9881 27.8621 11.6394 28.0294 11.1243Z" fill="white"/>
<path fill-rule="evenodd" clip-rule="evenodd" d="M29.0069 29.7331C29.0511 29.5636 29.0821 29.3939 29.1023 29.2279C29.2076 28.3603 29.0376 27.4928 28.8504 26.9457L28.7924 26.7763L19.9863 18.1981C19.6905 17.9099 19.3075 17.7122 18.9384 17.5711C18.5611 17.4268 18.1472 17.3226 17.7459 17.247C16.9446 17.0959 16.1258 17.0461 15.6062 17.0461L4.25 17.0464V28.4199H10.6367C10.6366 28.42 10.6382 28.4205 10.6423 28.4212C10.6602 28.4244 10.7191 28.4349 10.8302 28.469C10.9837 28.5161 11.2021 28.5972 11.4899 28.7279C12.065 28.989 12.8925 29.4365 13.9968 30.1701C15.1978 30.9678 16.5813 32.1209 17.8689 33.194C18.0491 33.3442 18.2275 33.4929 18.4033 33.6388C19.1073 34.2234 19.7732 34.7668 20.3266 35.1651C20.6027 35.3638 20.8686 35.5393 21.1094 35.6681C21.3199 35.7808 21.6238 35.9217 21.9412 35.9217H35.1176C35.5508 35.9217 36.1844 35.7984 36.7313 35.406C37.3166 34.9861 37.75 34.292 37.75 33.2962V33.2738C37.75 32.8227 37.75 32.386 37.718 32.003C37.6856 31.616 37.6162 31.211 37.435 30.85C37.2403 30.4619 36.9351 30.1616 36.5096 29.9731C36.1101 29.7962 35.6393 29.7331 35.1176 29.7331H29.0069ZM15.6062 18.5461H11.9043V27.2714C11.9705 27.2996 12.0391 27.3298 12.1101 27.362C12.7742 27.6636 13.6722 28.1537 14.8267 28.9206C16.1017 29.7675 17.5561 30.9801 18.8337 32.0453L18.8346 32.0461C19.0141 32.1957 19.19 32.3424 19.3615 32.4848C20.0692 33.0724 20.6974 33.5839 21.2028 33.9475C21.4561 34.1298 21.6608 34.2619 21.8171 34.3456C21.9118 34.3963 21.9635 34.4151 21.9807 34.4214L21.982 34.4217H35.1176C35.3119 34.4217 35.6196 34.3575 35.8569 34.1872C36.0559 34.0444 36.25 33.8008 36.25 33.2962C36.25 32.8176 36.2495 32.4419 36.2232 32.128C36.1967 31.8116 36.1485 31.6306 36.0944 31.5227C36.0538 31.442 36.0061 31.3906 35.9022 31.3446C35.7723 31.2871 35.5372 31.2331 35.1176 31.2331H28.0997C27.9286 31.3789 27.7314 31.5095 27.505 31.6198C26.3905 32.1626 25.4478 32.2039 24.6143 31.8792C23.868 31.5884 23.2912 31.0259 22.8388 30.5848L18.9397 26.7866L19.9863 25.7121L23.8431 29.4691C24.3487 29.9616 24.7235 30.3118 25.1589 30.4815C25.5307 30.6264 26.0343 30.6677 26.8482 30.2713C27.3148 30.044 27.5437 29.6196 27.6132 29.0471C27.6755 28.5342 27.5928 27.9856 27.4817 27.5935L18.9397 19.2726C18.8499 19.1851 18.6784 19.0776 18.4027 18.9722C18.1352 18.8699 17.8139 18.7862 17.468 18.721C16.7747 18.5903 16.0508 18.5461 15.6062 18.5461ZM5.75 18.5461V26.9199H10.4043V18.5461H5.75Z" fill="white"/>
</svg>
