<svg width="42" height="42" viewBox="0 0 42 42" fill="none" xmlns="http://www.w3.org/2000/svg">
<path fill-rule="evenodd" clip-rule="evenodd" d="M4.58223 4.90571C4.58223 3.78529 5.49051 2.87701 6.61092 2.87701H22.0535C23.1739 2.87701 24.0822 3.78529 24.0822 4.90571V6.7367C25.9567 7.17942 27.3516 8.86331 27.3516 10.873C27.3516 11.417 27.2494 11.9371 27.0631 12.4152L33.2807 19.521L35.0467 18.5118C35.5918 18.2004 36.2609 18.2004 36.806 18.5118L39.2831 19.9273C39.8355 20.2429 40.1764 20.8304 40.1764 21.4666V24.2793C40.1764 24.9156 39.8355 25.503 39.2831 25.8187L36.806 27.2342C36.2609 27.5456 35.5918 27.5456 35.0467 27.2342L33.4837 26.341L27.1508 33.5785C27.2812 33.9866 27.3516 34.4216 27.3516 34.873C27.3516 37.2202 25.4488 39.123 23.1016 39.123C21.0329 39.123 19.3095 37.6451 18.9296 35.6875L7.56988 30.9543C6.97372 31.6686 6.07674 32.123 5.07361 32.123C3.27868 32.123 1.82361 30.668 1.82361 28.873C1.82361 27.0781 3.27868 25.623 5.07361 25.623C5.41858 25.623 5.75101 25.6768 6.06296 25.7764L9.57361 22.7338L6.28979 19.8878C5.91413 20.0395 5.50362 20.123 5.07361 20.123C3.27868 20.123 1.82361 18.668 1.82361 16.873C1.82361 15.0781 3.27868 13.623 5.07361 13.623C6.09082 13.623 6.99889 14.0904 7.59482 14.822L18.9212 10.1027C19.2531 8.29021 20.7347 6.87954 22.5822 6.65443V4.90571C22.5822 4.61372 22.3455 4.37701 22.0535 4.37701H6.61092C6.31893 4.37701 6.08223 4.61372 6.08223 4.90571V9.57796L6.81739 8.84284C7.11029 8.54996 7.58517 8.54997 7.87805 8.84287C8.17094 9.13577 8.17092 9.61065 7.87802 9.90353L5.87791 11.9035C5.58501 12.1964 5.11013 12.1964 4.81725 11.9035L2.81736 9.9035C2.52448 9.6106 2.52449 9.13573 2.81739 8.84284C3.11029 8.54996 3.58517 8.54997 3.87805 8.84287L4.58223 9.54709V4.90571ZM32.1966 25.534C31.868 25.2059 31.6764 24.7563 31.6764 24.2793V23.623H27.2856C26.9314 25.6125 25.1929 27.123 23.1016 27.123C21.3259 27.123 19.8045 26.034 19.169 24.4874L15.6022 25.9736L21.3839 30.9844C21.9091 30.7521 22.4903 30.623 23.1016 30.623C24.4245 30.623 25.6062 31.2274 26.3856 32.1751L32.1966 25.534ZM31.6764 22.123V21.4666C31.6764 21.0691 31.8095 20.6906 32.0441 20.3856L26.2339 13.7455C25.457 14.5922 24.3413 15.123 23.1016 15.123C22.4086 15.123 21.7544 14.9572 21.1764 14.663L15.545 19.5436L19.2448 21.0852C19.9199 19.6312 21.393 18.623 23.1016 18.623C25.1929 18.623 26.9314 20.1335 27.2856 22.123H31.6764ZM14.0555 26.6181L20.104 31.8602C19.5126 32.4486 19.0935 33.2101 18.9288 34.0622L8.24004 29.6085C8.28498 29.4143 8.3125 29.2134 8.32088 29.0075L14.0555 26.6181ZM18.8533 22.994C18.8522 22.9538 18.8516 22.9135 18.8516 22.873C18.8516 22.7648 18.8556 22.6575 18.8636 22.5513L14.2787 20.641L11.8639 22.7338L14.3359 24.8762L18.8533 22.994ZM18.9363 11.7214C19.0914 12.4869 19.4521 13.1777 19.9584 13.7336L13.9983 18.8991L8.30541 16.5271C8.29277 16.4076 8.27364 16.29 8.2484 16.1747L18.9363 11.7214ZM7.39945 26.603C7.65526 26.8651 7.86715 27.1702 8.02322 27.5065L12.7892 25.5207L10.7188 23.7263L7.39945 26.603ZM10.7188 21.7413L7.54157 18.9878C7.77492 18.7157 7.96405 18.4046 8.09784 18.0656L12.732 19.9965L10.7188 21.7413ZM5.07361 15.123C4.10711 15.123 3.32361 15.9065 3.32361 16.873C3.32361 17.8395 4.10711 18.623 5.07361 18.623C6.04011 18.623 6.82361 17.8395 6.82361 16.873C6.82361 15.9065 6.04011 15.123 5.07361 15.123ZM3.32361 28.873C3.32361 27.9065 4.10711 27.123 5.07361 27.123C6.04011 27.123 6.82361 27.9065 6.82361 28.873C6.82361 29.8395 6.04011 30.623 5.07361 30.623C4.10711 30.623 3.32361 29.8395 3.32361 28.873ZM23.1016 8.12301C21.5828 8.12301 20.3516 9.35423 20.3516 10.873C20.3516 12.3918 21.5828 13.623 23.1016 13.623C24.6204 13.623 25.8516 12.3918 25.8516 10.873C25.8516 9.35423 24.6204 8.12301 23.1016 8.12301ZM20.3516 22.873C20.3516 21.3542 21.5828 20.123 23.1016 20.123C24.6204 20.123 25.8516 21.3542 25.8516 22.873C25.8516 24.3918 24.6204 25.623 23.1016 25.623C21.5828 25.623 20.3516 24.3918 20.3516 22.873ZM23.1016 32.123C21.5828 32.123 20.3516 33.3542 20.3516 34.873C20.3516 36.3918 21.5828 37.623 23.1016 37.623C24.6204 37.623 25.8516 36.3918 25.8516 34.873C25.8516 33.3542 24.6204 32.123 23.1016 32.123ZM33.3139 24.5163C33.2289 24.4677 33.1764 24.3773 33.1764 24.2793V21.4666C33.1764 21.3687 33.2289 21.2782 33.3139 21.2296L35.791 19.8142C35.8749 19.7662 35.9779 19.7662 36.0618 19.8142L38.5388 21.2296C38.6239 21.2782 38.6764 21.3687 38.6764 21.4666V24.2793C38.6764 24.3773 38.6239 24.4677 38.5388 24.5163L36.0618 25.9318C35.9779 25.9797 35.8749 25.9797 35.791 25.9318L33.3139 24.5163Z" fill="white"/>
</svg>
