<svg width="42" height="42" viewBox="0 0 42 42" fill="none" xmlns="http://www.w3.org/2000/svg">
<path fill-rule="evenodd" clip-rule="evenodd" d="M10.12 6.49283H11.7192C12.0656 4.97222 13.4261 3.8374 15.0516 3.8374C16.6771 3.8374 18.0376 4.97222 18.384 6.49283H19.9814C21.296 6.49283 22.3616 7.55845 22.3616 8.87296V10.0148C22.3616 11.3293 21.296 12.3949 19.9815 12.3949H10.12C8.80551 12.3949 7.73989 11.3293 7.73989 10.0148V9.81408H5.70264C5.01228 9.81408 4.45264 10.3737 4.45264 11.0641V35.2347C4.45264 35.9251 5.01228 36.4847 5.70263 36.4847H20.0577C20.472 36.4847 20.8077 36.8205 20.8077 37.2347C20.8077 37.6489 20.472 37.9847 20.0577 37.9847H5.70263C4.18385 37.9847 2.95264 36.7535 2.95264 35.2347V11.0641C2.95264 9.54529 4.18385 8.31408 5.70264 8.31408H7.80588C8.05731 7.26922 8.998 6.49283 10.12 6.49283ZM16.9215 6.826L17.1873 7.99283H19.9814C20.4675 7.99283 20.8616 8.38688 20.8616 8.87296V10.0148C20.8616 10.5008 20.4675 10.8949 19.9815 10.8949H10.12C9.63394 10.8949 9.23989 10.5008 9.23989 10.0148V8.87296C9.23989 8.38688 9.63394 7.99283 10.12 7.99283H12.9159L13.1817 6.826C13.376 5.97298 14.1414 5.3374 15.0516 5.3374C15.9618 5.3374 16.7272 5.97298 16.9215 6.826Z" fill="white"/>
<path d="M22.3616 9.81408H24.3991C25.0895 9.81408 25.6491 10.3737 25.6491 11.0641V17.1294C25.6491 17.5436 25.9849 17.8794 26.3991 17.8794C26.8134 17.8794 27.1491 17.5436 27.1491 17.1294V11.0641C27.1491 9.54529 25.9179 8.31408 24.3991 8.31408H22.2956C22.3388 8.49334 22.3616 8.68045 22.3616 8.87296L22.3616 9.81408Z" fill="white"/>
<path d="M6.19573 17.9129C6.19573 17.4987 6.53152 17.1629 6.94573 17.1629H23.1561C23.5703 17.1629 23.9061 17.4987 23.9061 17.9129C23.9061 18.3272 23.5703 18.6629 23.1561 18.6629H6.94573C6.53152 18.6629 6.19573 18.3272 6.19573 17.9129Z" fill="white"/>
<path d="M6.1958 23.8666C6.1958 23.4524 6.53159 23.1166 6.9458 23.1166H19.658C20.0722 23.1166 20.408 23.4524 20.408 23.8666C20.408 24.2809 20.0722 24.6166 19.658 24.6166H6.9458C6.53159 24.6166 6.1958 24.2809 6.1958 23.8666Z" fill="white"/>
<path d="M6.9458 29.4993C6.53159 29.4993 6.1958 29.8351 6.1958 30.2493C6.1958 30.6635 6.53159 30.9993 6.9458 30.9993H16.2064C16.6207 30.9993 16.9564 30.6635 16.9564 30.2493C16.9564 29.8351 16.6207 29.4993 16.2064 29.4993H6.9458Z" fill="white"/>
<path fill-rule="evenodd" clip-rule="evenodd" d="M30.1247 25.1302C27.8676 25.1302 26.0378 26.9599 26.0378 29.2171C26.0378 31.4742 27.8676 33.304 30.1247 33.304C32.3819 33.304 34.2117 31.4742 34.2117 29.2171C34.2117 26.9599 32.3819 25.1302 30.1247 25.1302ZM27.5378 29.2171C27.5378 27.7884 28.696 26.6302 30.1247 26.6302C31.5535 26.6302 32.7117 27.7884 32.7117 29.2171C32.7117 30.6458 31.5535 31.804 30.1247 31.804C28.696 31.804 27.5378 30.6458 27.5378 29.2171Z" fill="white"/>
<path fill-rule="evenodd" clip-rule="evenodd" d="M27.6323 20.8682C27.6323 20.454 27.968 20.1182 28.3823 20.1182H31.8411C32.2553 20.1182 32.5911 20.454 32.5911 20.8682V22.2905C32.8922 22.3964 33.1843 22.5212 33.4659 22.6637L34.3708 21.7588C34.5114 21.6182 34.7022 21.5392 34.9011 21.5392C35.1 21.5392 35.2908 21.6182 35.4314 21.7588L37.8772 24.2046C38.0178 24.3452 38.0968 24.536 38.0968 24.7349C38.0968 24.9338 38.0178 25.1246 37.8772 25.2652L36.8817 26.2607C36.9603 26.4384 37.0321 26.6199 37.0967 26.8048H38.2973C38.7116 26.8048 39.0473 27.1406 39.0473 27.5548V31.0136C39.0473 31.4279 38.7116 31.7636 38.2973 31.7636H37.0593C36.9915 31.9487 36.9164 32.1303 36.8345 32.308L37.7247 33.1982C38.0176 33.4911 38.0176 33.966 37.7247 34.2589L35.279 36.7047C35.1383 36.8453 34.9476 36.9243 34.7487 36.9243C34.5497 36.9243 34.359 36.8453 34.2183 36.7047L33.3644 35.8508C33.1144 35.9724 32.8563 36.0803 32.5913 36.1735V37.4123C32.5913 37.8265 32.2555 38.1623 31.8413 38.1623H28.3825C27.9683 38.1623 27.6325 37.8265 27.6325 37.4123V36.1459C27.3214 36.0326 27.0202 35.8989 26.7305 35.7465L25.7724 36.7047C25.4795 36.9975 25.0046 36.9975 24.7117 36.7047L22.2659 34.2589C21.9731 33.966 21.9731 33.4911 22.2659 33.1982L23.3714 32.0928C23.3256 31.9844 23.2823 31.8747 23.2416 31.7636H21.6875C21.2733 31.7636 20.9375 31.4279 20.9375 31.0136V27.5548C20.9375 27.3559 21.0166 27.1652 21.1572 27.0245C21.2979 26.8838 21.4886 26.8048 21.6875 26.8048H23.2042C23.2685 26.6209 23.3398 26.4404 23.4179 26.2635L22.4197 25.2652C22.1268 24.9723 22.1268 24.4975 22.4197 24.2046L24.8654 21.7588C25.1583 21.4659 25.6332 21.4659 25.9261 21.7588L26.8323 22.665C27.0905 22.5343 27.3575 22.4184 27.6323 22.3183V20.8682ZM29.1323 21.6182V22.865C29.1323 23.2021 28.9074 23.4978 28.5825 23.5878C28.0527 23.7346 27.5529 23.9542 27.0944 24.2352C26.7988 24.4165 26.4174 24.3714 26.1721 24.1262L25.3958 23.3498L24.0107 24.7349L24.8566 25.5809C25.0906 25.8148 25.1436 26.1745 24.9871 26.466C24.7719 26.8668 24.6021 27.2952 24.4845 27.7447C24.3982 28.0747 24.1 28.3048 23.7589 28.3048H22.4375V30.2636H23.7872C24.1237 30.2636 24.419 30.4877 24.5095 30.8118C24.6164 31.1945 24.7613 31.5615 24.94 31.9084C25.0892 32.1983 25.034 32.5515 24.8035 32.782L23.8569 33.7286L25.242 35.1137L26.0771 34.2786C26.3257 34.03 26.7137 33.9874 27.0102 34.1762C27.4916 34.4826 28.0203 34.7205 28.5828 34.8763C28.9076 34.9663 29.1325 35.262 29.1325 35.5991V36.6623H31.0913V35.62C31.0913 35.2795 31.3207 34.9817 31.6499 34.8948C32.1719 34.757 32.6656 34.5488 33.1202 34.2807C33.4148 34.107 33.7896 34.1546 34.0314 34.3964L34.7487 35.1137L36.1337 33.7286L35.3891 32.9839C35.1517 32.7465 35.1009 32.3803 35.2649 32.0873C35.4881 31.6884 35.6659 31.2609 35.7914 30.8118C35.8819 30.4877 36.1772 30.2636 36.5137 30.2636H37.5473V28.3048H36.542C36.2009 28.3048 35.9027 28.0747 35.8164 27.7447C35.6985 27.2944 35.5283 26.8651 35.3126 26.4637C35.1558 26.1721 35.2088 25.8123 35.4428 25.5782L36.2862 24.7349L34.9011 23.3498L34.1263 24.1246C33.8811 24.3698 33.4999 24.415 33.2042 24.2339C32.7266 23.9413 32.2041 23.7156 31.6497 23.5692C31.3204 23.4823 31.0911 23.1845 31.0911 22.8441V21.6182H29.1323Z" fill="white"/>
</svg>
