<svg width="42" height="42" viewBox="0 0 42 42" fill="none" xmlns="http://www.w3.org/2000/svg">
<path fill-rule="evenodd" clip-rule="evenodd" d="M14.75 14.75V27.25H27.25V14.75H14.75ZM13.25 41V28.75H1V27.25H13.25V14.75H1V13.25H13.25L13.25 1H14.75L14.75 13.25H27.25V1H28.75V13.25H41V14.75H28.75V27.25H41V28.75H28.75V41H27.25V28.75H14.75V41H13.25ZM6.95886 9.44836C8.33957 9.44836 9.45886 8.32908 9.45886 6.94836C9.45886 5.56765 8.33957 4.44836 6.95886 4.44836C5.57815 4.44836 4.45886 5.56765 4.45886 6.94836C4.45886 8.32908 5.57815 9.44836 6.95886 9.44836ZM9.45886 21.0001C9.45886 22.3808 8.33957 23.5001 6.95886 23.5001C5.57814 23.5001 4.45886 22.3808 4.45886 21.0001C4.45886 19.6194 5.57814 18.5001 6.95886 18.5001C8.33957 18.5001 9.45886 19.6194 9.45886 21.0001ZM6.95886 37.5519C8.33957 37.5519 9.45886 36.4326 9.45886 35.0519C9.45886 33.6712 8.33957 32.5519 6.95886 32.5519C5.57814 32.5519 4.45886 33.6712 4.45886 35.0519C4.45886 36.4326 5.57814 37.5519 6.95886 37.5519ZM21 5.19824C20.0335 5.19824 19.25 5.98174 19.25 6.94824C19.25 7.91474 20.0335 8.69824 21 8.69824C21.9665 8.69824 22.75 7.91474 22.75 6.94824C22.75 5.98174 21.9665 5.19824 21 5.19824ZM17.75 6.94824C17.75 5.15332 19.2051 3.69824 21 3.69824C22.7949 3.69824 24.25 5.15332 24.25 6.94824C24.25 8.74317 22.7949 10.1982 21 10.1982C19.2051 10.1982 17.75 8.74317 17.75 6.94824ZM19.25 21C19.25 20.0335 20.0335 19.25 21 19.25C21.9665 19.25 22.75 20.0335 22.75 21C22.75 21.9665 21.9665 22.75 21 22.75C20.0335 22.75 19.25 21.9665 19.25 21ZM21 17.75C19.2051 17.75 17.75 19.2051 17.75 21C17.75 22.7949 19.2051 24.25 21 24.25C22.7949 24.25 24.25 22.7949 24.25 21C24.25 19.2051 22.7949 17.75 21 17.75ZM21 33.3018C20.0335 33.3018 19.25 34.0853 19.25 35.0518C19.25 36.0183 20.0335 36.8018 21 36.8018C21.9665 36.8018 22.75 36.0183 22.75 35.0518C22.75 34.0853 21.9665 33.3018 21 33.3018ZM17.75 35.0518C17.75 33.2568 19.2051 31.8018 21 31.8018C22.7949 31.8018 24.25 33.2568 24.25 35.0518C24.25 36.8467 22.7949 38.3018 21 38.3018C19.2051 38.3018 17.75 36.8467 17.75 35.0518ZM35.0411 9.44836C36.4218 9.44836 37.5411 8.32908 37.5411 6.94836C37.5411 5.56765 36.4218 4.44836 35.0411 4.44836C33.6604 4.44836 32.5411 5.56765 32.5411 6.94836C32.5411 8.32908 33.6604 9.44836 35.0411 9.44836ZM37.5411 21.0001C37.5411 22.3808 36.4218 23.5001 35.0411 23.5001C33.6604 23.5001 32.5411 22.3808 32.5411 21.0001C32.5411 19.6194 33.6604 18.5001 35.0411 18.5001C36.4218 18.5001 37.5411 19.6194 37.5411 21.0001ZM35.0411 37.5519C36.4218 37.5519 37.5411 36.4326 37.5411 35.0519C37.5411 33.6712 36.4218 32.5519 35.0411 32.5519C33.6604 32.5519 32.5411 33.6712 32.5411 35.0519C32.5411 36.4326 33.6604 37.5519 35.0411 37.5519Z" fill="white"/>
</svg>
