<svg width="42" height="42" viewBox="0 0 42 42" fill="none" xmlns="http://www.w3.org/2000/svg">
<path fill-rule="evenodd" clip-rule="evenodd" d="M17.3951 5.05526C17.7745 5.05526 18.082 4.74769 18.082 4.36829C18.082 3.98888 17.7745 3.68132 17.3951 3.68132C17.0157 3.68132 16.7081 3.98888 16.7081 4.36829C16.7081 4.74769 17.0157 5.05526 17.3951 5.05526ZM17.3951 6.36829C18.4996 6.36829 19.3951 5.47286 19.3951 4.36829C19.3951 3.26372 18.4996 2.36829 17.3951 2.36829C16.3682 2.36829 15.522 3.14221 15.4081 4.1386C8.3504 6.45188 3.25 13.0275 3.25 20.7897C3.25 27.3092 6.84924 32.9926 12.1815 36.0146C12.1365 36.1813 12.1125 36.3566 12.1125 36.5375C12.1125 37.6421 13.0079 38.5375 14.1125 38.5375C15.2171 38.5375 16.1125 37.6421 16.1125 36.5375C16.1125 35.4329 15.2171 34.5375 14.1125 34.5375C13.7441 34.5375 13.3989 34.6371 13.1025 34.8109C8.11564 32.0683 4.75 26.8142 4.75 20.7897C4.75 13.7293 9.37427 7.72552 15.8084 5.58606C16.174 6.06171 16.7488 6.36829 17.3951 6.36829ZM37.25 20.7897C37.25 13.5369 32.3701 7.39905 25.6618 5.41987C25.3092 5.98911 24.679 6.36829 23.9602 6.36829C22.8556 6.36829 21.9602 5.47286 21.9602 4.36829C21.9602 3.26372 22.8556 2.36829 23.9602 2.36829C24.9145 2.36829 25.7127 3.03665 25.9122 3.9308C33.32 6.03472 38.75 12.7805 38.75 20.7897C38.75 30.4783 30.8055 38.3179 21.0208 38.329C20.7378 39.0898 20.0051 39.6317 19.1458 39.6317C18.0412 39.6317 17.1458 38.7363 17.1458 37.6317C17.1458 36.5271 18.0412 35.6317 19.1458 35.6317C19.9847 35.6317 20.7031 36.1483 21 36.8807V36.829C29.9835 36.829 37.25 29.6392 37.25 20.7897ZM14.7995 36.5375C14.7995 36.9169 14.4919 37.2245 14.1125 37.2245C13.7331 37.2245 13.4255 36.9169 13.4255 36.5375C13.4255 36.1581 13.7331 35.8505 14.1125 35.8505C14.4919 35.8505 14.7995 36.1581 14.7995 36.5375ZM23.9602 5.05526C24.3396 5.05526 24.6472 4.74769 24.6472 4.36829C24.6472 3.98888 24.3396 3.68132 23.9602 3.68132C23.5808 3.68132 23.2732 3.98888 23.2732 4.36829C23.2732 4.74769 23.5808 5.05526 23.9602 5.05526ZM19.8328 37.6317C19.8328 38.0111 19.5252 38.3187 19.1458 38.3187C18.7664 38.3187 18.4588 38.0111 18.4588 37.6317C18.4588 37.2523 18.7664 36.9447 19.1458 36.9447C19.5252 36.9447 19.8328 37.2523 19.8328 37.6317ZM31.0905 23.4071C31.0905 24.1546 31.5005 24.8063 32.108 25.1495C31.9902 25.4455 31.8605 25.7356 31.7194 26.0195C31.535 26.3904 31.6862 26.8406 32.0571 27.0249C32.428 27.2093 32.8782 27.0581 33.0626 26.6872C33.2484 26.3134 33.4168 25.9297 33.5668 25.5371C33.5918 25.4716 33.607 25.4047 33.6132 25.3381C34.4642 25.1083 35.0905 24.3308 35.0905 23.4071C35.0905 22.3025 34.195 21.4071 33.0905 21.4071C31.9859 21.4071 31.0905 22.3025 31.0905 23.4071ZM20.8593 9.15442C25.7797 9.15442 30.003 12.0237 31.8797 16.1253C31.4001 16.4906 31.0905 17.0678 31.0905 17.7173C31.0905 18.8219 31.9859 19.7173 33.0905 19.7173C34.195 19.7173 35.0905 18.8219 35.0905 17.7173C35.0905 16.6998 34.3306 15.8597 33.3474 15.7337C31.2831 10.9788 26.4637 7.65442 20.8593 7.65442C15.2572 7.65442 10.4393 10.976 8.37366 15.7279C7.36631 15.8314 6.58058 16.6826 6.58058 17.7173C6.58058 18.8219 7.47601 19.7173 8.58058 19.7173C9.68515 19.7173 10.5806 18.8219 10.5806 17.7173C10.5806 17.0838 10.286 16.519 9.82635 16.1526C11.6968 12.0365 15.9278 9.15442 20.8593 9.15442ZM26.9008 31.9542C27.0708 32.3319 26.9023 32.7759 26.5246 32.9459C24.7993 33.7221 22.8798 34.1544 20.8593 34.1544C15.0608 34.1544 10.102 30.5957 8.16636 25.5753C8.13819 25.5022 8.12223 25.4274 8.11747 25.3532C7.2362 25.1443 6.58058 24.3523 6.58058 23.4071C6.58058 22.3025 7.47601 21.4071 8.58058 21.4071C9.68515 21.4071 10.5806 22.3025 10.5806 23.4071C10.5806 24.1386 10.1878 24.7784 9.60168 25.1272C11.3399 29.5231 15.7189 32.6544 20.8593 32.6544C22.6642 32.6544 24.3743 32.2685 25.9091 31.5779C26.2869 31.408 26.7309 31.5764 26.9008 31.9542ZM8.58058 18.4043C8.20118 18.4043 7.89361 18.0967 7.89361 17.7173C7.89361 17.3379 8.20118 17.0303 8.58058 17.0303C8.95998 17.0303 9.26755 17.3379 9.26755 17.7173C9.26755 18.0967 8.95998 18.4043 8.58058 18.4043ZM32.4035 17.7173C32.4035 18.0967 32.7111 18.4043 33.0905 18.4043C33.4699 18.4043 33.7774 18.0967 33.7774 17.7173C33.7774 17.3379 33.4699 17.0303 33.0905 17.0303C32.7111 17.0303 32.4035 17.3379 32.4035 17.7173ZM8.58058 24.0941C8.20118 24.0941 7.89361 23.7865 7.89361 23.4071C7.89361 23.0277 8.20118 22.7201 8.58058 22.7201C8.95998 22.7201 9.26755 23.0277 9.26755 23.4071C9.26755 23.7865 8.95998 24.0941 8.58058 24.0941ZM32.4035 23.4071C32.4035 23.7865 32.7111 24.0941 33.0905 24.0941C33.4699 24.0941 33.7774 23.7865 33.7774 23.4071C33.7774 23.0277 33.4699 22.7201 33.0905 22.7201C32.7111 22.7201 32.4035 23.0277 32.4035 23.4071ZM26.7677 29.0586C26.7099 29.5183 26.8677 29.9789 27.1953 30.3065L28.4674 31.5785C29.0531 32.1643 30.0029 32.1643 30.5887 31.5785L31.2958 30.8714C31.8816 30.2856 31.8816 29.3359 31.2958 28.7501L30.0238 27.4781C29.6962 27.1505 29.2356 26.9927 28.776 27.0505L28.1479 27.1294C28.112 27.134 28.0764 27.1397 28.0413 27.1467L26.903 26.0084C28.0677 24.6188 28.7689 22.8276 28.7689 20.8726C28.7689 16.4543 25.1872 12.8726 20.7689 12.8726C16.3506 12.8726 12.7689 16.4543 12.7689 20.8726C12.7689 25.2908 16.3506 28.8726 20.7689 28.8726C22.7595 28.8726 24.5803 28.1455 25.9802 26.9425L26.9904 27.9527C26.9176 28.0998 26.8681 28.2606 26.8468 28.4305L26.7677 29.0586ZM28.4367 29.4266L28.256 29.2459L28.335 28.6177L28.9631 28.5388L29.1438 28.7195L29.1745 28.7501L29.7569 29.3326L30.2351 29.8108L29.528 30.5179L29.0498 30.0397L28.4674 29.4572L28.4367 29.4266ZM20.7689 27.5595C24.462 27.5595 27.4559 24.5657 27.4559 20.8726C27.4559 17.1794 24.462 14.1856 20.7689 14.1856C17.0758 14.1856 14.082 17.1794 14.082 20.8726C14.082 24.5657 17.0758 27.5595 20.7689 27.5595Z" fill="white"/>
</svg>
