<svg width="42" height="42" viewBox="0 0 42 42" fill="none" xmlns="http://www.w3.org/2000/svg">
<path fill-rule="evenodd" clip-rule="evenodd" d="M13.7853 7.84747C13.7853 8.95204 12.8898 9.84747 11.7853 9.84747C10.6807 9.84747 9.78526 8.95204 9.78526 7.84747C9.78526 6.7429 10.6807 5.84747 11.7853 5.84747C12.8898 5.84747 13.7853 6.7429 13.7853 7.84747ZM11.9512 11.3436C11.9751 11.3425 11.9989 11.3411 12.0226 11.3396L13.7545 19.9991C12.8629 20.5191 12.2638 21.4857 12.2638 22.5924C12.2638 23.4218 12.6004 24.1727 13.1445 24.7157L10.5335 30.808C10.3662 30.7563 10.1935 30.7168 10.0165 30.6905L11.9512 11.3436ZM14.5537 9.98923C14.7988 9.67279 14.9909 9.31317 15.1167 8.92372L28.1862 11.7243C28.2469 12.0026 28.3333 12.2712 28.4429 12.5276L21.7356 17.1712L14.5537 9.98923ZM15.2595 7.42027C15.0487 5.68878 13.5736 4.34747 11.7853 4.34747C9.85226 4.34747 8.28526 5.91448 8.28526 7.84747C8.28526 8.66505 8.56559 9.41715 9.03536 10.0129L3.99668 18.4107C3.88747 18.3962 3.77604 18.3886 3.66284 18.3886C2.28213 18.3886 1.16284 19.5079 1.16284 20.8886C1.16284 22.1927 2.16139 23.2636 3.43562 23.3784L6.83641 31.8804C6.31412 32.4918 5.99876 33.2853 5.99876 34.1525C5.99876 36.0855 7.56576 37.6525 9.49876 37.6525C11.1785 37.6525 12.5818 36.4693 12.9207 34.8908L26.4693 33.9231C26.8858 34.7242 27.7234 35.2714 28.6888 35.2714C30.0695 35.2714 31.1888 34.1521 31.1888 32.7714C31.1888 32.4586 31.1313 32.1593 31.0264 31.8833L36.5371 26.3726C37.6534 26.9093 39.0332 26.7149 39.9586 25.7895C41.1302 24.6179 41.1302 22.7184 39.9586 21.5468C39.2614 20.8495 38.3062 20.5673 37.4002 20.7L34.8154 14.6687C36.17 13.8931 37.0827 12.4335 37.0827 10.7607C37.0827 8.27541 35.068 6.26069 32.5827 6.26069C30.2956 6.26069 28.4069 7.96702 28.1204 10.1761L15.2595 7.42027ZM10.2086 10.9731L5.36041 19.0533C5.8539 19.51 6.16284 20.1632 6.16284 20.8886C6.16284 21.8111 5.66323 22.6169 4.91983 23.0501L8.0805 30.9518C8.2155 30.8919 8.35499 30.8402 8.49834 30.7976L10.4689 11.0915C10.3803 11.0555 10.2934 11.016 10.2086 10.9731ZM35.5827 10.7607C35.5827 12.4175 34.2396 13.7607 32.5827 13.7607C30.9259 13.7607 29.5827 12.4175 29.5827 10.7607C29.5827 9.10383 30.9259 7.76069 32.5827 7.76069C34.2396 7.76069 35.5827 9.10383 35.5827 10.7607ZM33.0458 15.2372L30.1599 30.6285L35.3877 25.4008C34.5572 24.2296 34.6666 22.5962 35.716 21.5468C35.812 21.4508 35.9129 21.3627 36.0179 21.2824L33.405 15.1857C33.2868 15.2076 33.167 15.2248 33.0458 15.2372ZM12.9149 33.3874C12.8282 32.9985 12.6767 32.6339 12.4724 32.3057L19.8669 26.7598L26.4916 31.5778C26.349 31.8396 26.2519 32.1298 26.2108 32.4377L12.9149 33.3874ZM12.2583 30.5912L14.4487 25.4803C14.7079 25.5533 14.9813 25.5924 15.2638 25.5924C16.0208 25.5924 16.7123 25.312 17.2401 24.8494L18.5977 25.8367L12.2583 30.5912ZM19.8532 24.8951L18.0866 23.6103C18.2013 23.2925 18.2638 22.9497 18.2638 22.5924C18.2638 22.2192 18.1956 21.862 18.0712 21.5325L21.5601 19.117L23.3802 20.937C23.0977 21.342 22.9321 21.8344 22.9321 22.3656C22.9321 22.4375 22.9351 22.5088 22.9411 22.5792L19.8532 24.8951ZM25.4321 19.8656C25.1326 19.8656 24.8454 19.9182 24.5792 20.0148L22.8136 18.2492L29.2549 13.7899C29.4436 13.997 29.6514 14.1865 29.8755 14.3555L26.1622 19.9739C25.9312 19.9034 25.6861 19.8656 25.4321 19.8656ZM27.9321 22.3656C27.9321 21.7833 27.733 21.2475 27.3992 20.8226L31.2151 15.0491C31.3211 15.0829 31.4289 15.1128 31.5381 15.1388L28.715 30.1955L26.8423 24.4302C27.5003 23.9799 27.9321 23.2231 27.9321 22.3656ZM23.5428 24.0029C23.996 24.5254 24.6623 24.858 25.4065 24.8654L27.1367 30.1922L21.1224 25.8182L23.5428 24.0029ZM20.4821 18.039L17.2068 20.3065C16.6833 19.8611 16.0049 19.5924 15.2638 19.5924C15.2435 19.5924 15.2232 19.5926 15.203 19.593L13.4948 11.0517L20.4821 18.039ZM28.6888 33.7714C29.241 33.7714 29.6888 33.3237 29.6888 32.7714C29.6888 32.2191 29.241 31.7714 28.6888 31.7714C28.1365 31.7714 27.6888 32.2191 27.6888 32.7714C27.6888 33.3237 28.1365 33.7714 28.6888 33.7714ZM15.2638 24.0924C16.0922 24.0924 16.7638 23.4208 16.7638 22.5924C16.7638 21.7639 16.0922 21.0924 15.2638 21.0924C14.4353 21.0924 13.7638 21.7639 13.7638 22.5924C13.7638 23.4208 14.4353 24.0924 15.2638 24.0924ZM4.66284 20.8886C4.66284 21.4409 4.21513 21.8886 3.66284 21.8886C3.11056 21.8886 2.66284 21.4409 2.66284 20.8886C2.66284 20.3363 3.11056 19.8886 3.66284 19.8886C4.21513 19.8886 4.66284 20.3363 4.66284 20.8886ZM25.4321 23.3656C25.9844 23.3656 26.4321 22.9179 26.4321 22.3656C26.4321 21.8133 25.9844 21.3656 25.4321 21.3656C24.8798 21.3656 24.4321 21.8133 24.4321 22.3656C24.4321 22.9179 24.8798 23.3656 25.4321 23.3656ZM36.7767 24.7288C36.1909 24.143 36.1909 23.1933 36.7767 22.6075C37.3625 22.0217 38.3122 22.0217 38.898 22.6075C39.4838 23.1933 39.4838 24.143 38.898 24.7288C38.3122 25.3146 37.3625 25.3146 36.7767 24.7288ZM9.49876 36.1525C10.6033 36.1525 11.4988 35.2571 11.4988 34.1525C11.4988 33.0479 10.6033 32.1525 9.49876 32.1525C8.39419 32.1525 7.49876 33.0479 7.49876 34.1525C7.49876 35.2571 8.39419 36.1525 9.49876 36.1525Z" fill="white"/>
</svg>
