<svg width="42" height="42" viewBox="0 0 42 42" fill="none" xmlns="http://www.w3.org/2000/svg">
<path fill-rule="evenodd" clip-rule="evenodd" d="M34.564 7.60727L38.3348 8.73939L30.2029 16.8713L27.1323 16.1375L22.7786 20.2797C22.9065 20.5905 22.977 20.931 22.977 21.288C22.977 22.7525 21.7898 23.9397 20.3253 23.9397C18.8608 23.9397 17.6736 22.7525 17.6736 21.288C17.6736 19.8234 18.8608 18.6362 20.3253 18.6362C20.8861 18.6362 21.4062 18.8103 21.8346 19.1074L26.1815 14.9716L25.5152 12.1837L33.6472 4.05176L34.564 7.60727ZM33.4166 11.5363L31.3453 11.0412L30.8503 8.96994L32.8506 6.9697L33.3227 8.80074L35.4988 9.45407L33.4166 11.5363ZM31.6677 13.2852L29.5964 12.7902L29.1014 10.7189L27.1692 12.6511L27.6642 14.7224L29.7355 15.2174L31.6677 13.2852Z" fill="white"/>
<path d="M5.16504 21.288C5.16504 12.9152 11.9526 6.12769 20.3254 6.12769C22.4707 6.12769 24.5101 6.57285 26.3578 7.37513C26.7377 7.54011 27.1795 7.36584 27.3445 6.9859C27.5094 6.60596 27.3352 6.16422 26.9552 5.99924C24.9225 5.11663 22.6801 4.62769 20.3254 4.62769C11.1241 4.62769 3.66504 12.0868 3.66504 21.288C3.66504 30.4893 11.1241 37.9484 20.3254 37.9484C29.5266 37.9484 36.9857 30.4893 36.9857 21.288C36.9857 19.1685 36.5896 17.1397 35.8665 15.2729C35.7169 14.8866 35.2825 14.6948 34.8963 14.8444C34.51 14.994 34.3182 15.4284 34.4678 15.8146C35.1249 17.5114 35.4857 19.3567 35.4857 21.288C35.4857 29.6609 28.6982 36.4484 20.3254 36.4484C11.9526 36.4484 5.16504 29.6609 5.16504 21.288Z" fill="white"/>
<path d="M13.1201 21.2879C13.1201 17.3086 16.346 14.0828 20.3253 14.0828C21.1018 14.0828 21.8483 14.2053 22.5472 14.4317C22.9412 14.5593 23.3641 14.3432 23.4917 13.9492C23.6194 13.5551 23.4033 13.1322 23.0093 13.0046C22.1629 12.7305 21.2606 12.5828 20.3253 12.5828C15.5176 12.5828 11.6201 16.4802 11.6201 21.2879C11.6201 26.0957 15.5176 29.9931 20.3253 29.9931C25.133 29.9931 29.0305 26.0957 29.0305 21.2879C29.0305 20.8525 28.9984 20.4241 28.9365 20.005C28.8759 19.5952 28.4946 19.3121 28.0849 19.3727C27.6751 19.4333 27.392 19.8146 27.4526 20.2243C27.5039 20.571 27.5305 20.9261 27.5305 21.2879C27.5305 25.2672 24.3046 28.4931 20.3253 28.4931C16.346 28.4931 13.1201 25.2672 13.1201 21.2879Z" fill="white"/>
<path d="M20.3253 10.1052C14.1493 10.1052 9.14258 15.1119 9.14258 21.288C9.14258 27.464 14.1493 32.4707 20.3253 32.4707C26.5014 32.4707 31.5081 27.464 31.5081 21.288C31.5081 20.3612 31.3955 19.4617 31.1836 18.602C31.0845 18.1998 31.3301 17.7935 31.7323 17.6943C32.1345 17.5952 32.5409 17.8409 32.64 18.243C32.8806 19.2192 33.0081 20.2392 33.0081 21.288C33.0081 28.2925 27.3298 33.9707 20.3253 33.9707C13.3208 33.9707 7.64258 28.2925 7.64258 21.288C7.64258 14.2835 13.3208 8.60522 20.3253 8.60522C21.588 8.60522 22.8088 8.78996 23.9615 9.13438C24.3584 9.25296 24.584 9.67082 24.4654 10.0677C24.3469 10.4646 23.929 10.6902 23.5321 10.5716C22.5172 10.2684 21.441 10.1052 20.3253 10.1052Z" fill="white"/>
</svg>
