<svg width="42" height="42" viewBox="0 0 42 42" fill="none" xmlns="http://www.w3.org/2000/svg">
<path d="M13.0002 5.89655C10.9292 5.89655 9.25025 7.57548 9.25025 9.64655V14.6802C9.25025 15.0944 9.58603 15.4302 10.0002 15.4302C10.4145 15.4302 10.7502 15.0944 10.7502 14.6802V9.64655C10.7502 8.4039 11.7576 7.39655 13.0002 7.39655H36.0002C37.2429 7.39655 38.2502 8.4039 38.2502 9.64655V25.6465C38.2502 26.8892 37.2429 27.8965 36.0002 27.8965H34.1368C33.7226 27.8965 33.3868 28.2323 33.3868 28.6465C33.3868 28.664 33.3874 28.6814 33.3886 28.6985L33.3885 32.0104L33.3951 34.3275L25.7513 28.1698C25.6137 28.0029 25.4054 27.8965 25.1722 27.8965H21.7758C21.3616 27.8965 21.0258 28.2323 21.0258 28.6465C21.0258 29.0608 21.3616 29.3965 21.7758 29.3965H24.883L32.8625 35.8246C33.6815 36.4844 34.8996 35.8993 34.8966 34.8476L34.8885 32.0083L34.8886 29.3965H36.0002C38.0713 29.3965 39.7502 27.7176 39.7502 25.6465V9.64655C39.7502 7.57548 38.0713 5.89655 36.0002 5.89655H13.0002Z" fill="white"/>
<path fill-rule="evenodd" clip-rule="evenodd" d="M5.43793 24.409C5.43793 20.7801 8.50813 17.8965 12.2219 17.8965C15.9357 17.8965 19.0059 20.7801 19.0059 24.409C19.0059 28.0379 15.9357 30.9214 12.2219 30.9214C11.3506 30.9214 10.5159 30.7634 9.74818 30.4747L6.50045 33.6765C5.55247 34.611 4.00322 34.6395 3.02148 33.7405C2.01766 32.8213 1.98936 31.2848 2.95866 30.3293L6.10468 27.2278C5.67781 26.3754 5.43793 25.4189 5.43793 24.409ZM12.2219 19.3965C9.27072 19.3965 6.93793 21.6729 6.93793 24.409C6.93793 25.3413 7.20564 26.2137 7.67424 26.9627L7.99319 27.4724L4.01172 31.3975C3.65381 31.7503 3.66384 32.2949 4.0345 32.6343C4.42724 32.9939 5.06815 32.9821 5.44738 32.6083L9.42204 28.6899L9.8944 28.9102C10.595 29.237 11.3843 29.4214 12.2219 29.4214C15.1731 29.4214 17.5059 27.1451 17.5059 24.409C17.5059 21.6729 15.1731 19.3965 12.2219 19.3965Z" fill="white"/>
<path d="M15.0002 11.8965C14.586 11.8965 14.2502 12.2323 14.2502 12.6465C14.2502 13.0608 14.586 13.3965 15.0002 13.3965H34.0002C34.4145 13.3965 34.7502 13.0608 34.7502 12.6465C34.7502 12.2323 34.4145 11.8965 34.0002 11.8965H15.0002Z" fill="white"/>
<path d="M20.0002 16.8965C19.586 16.8965 19.2502 17.2323 19.2502 17.6465C19.2502 18.0608 19.586 18.3965 20.0002 18.3965H34.0002C34.4145 18.3965 34.7502 18.0608 34.7502 17.6465C34.7502 17.2323 34.4145 16.8965 34.0002 16.8965H20.0002Z" fill="white"/>
<path d="M22.0002 21.8965C21.586 21.8965 21.2502 22.2323 21.2502 22.6465C21.2502 23.0608 21.586 23.3965 22.0002 23.3965H34.0002C34.4145 23.3965 34.7502 23.0608 34.7502 22.6465C34.7502 22.2323 34.4145 21.8965 34.0002 21.8965H22.0002Z" fill="white"/>
</svg>
