<svg width="42" height="42" viewBox="0 0 42 42" fill="none" xmlns="http://www.w3.org/2000/svg">
<path d="M4.4447 6.16783C4.4447 5.25359 5.18584 4.51245 6.10008 4.51245H28.8373C29.7515 4.51245 30.4927 5.25359 30.4927 6.16783V17.4716C30.4927 17.8858 30.1569 18.2216 29.7427 18.2216C29.3285 18.2216 28.9927 17.8858 28.9927 17.4716V6.16783C28.9927 6.08202 28.9231 6.01245 28.8373 6.01245H6.10008C6.01427 6.01245 5.9447 6.08202 5.9447 6.16783V32.9964C5.9447 33.0822 6.01427 33.1518 6.10008 33.1518H20.2479C20.6621 33.1518 20.9979 33.4875 20.9979 33.9018C20.9979 34.316 20.6621 34.6518 20.2479 34.6518H6.10008C5.18584 34.6518 4.4447 33.9106 4.4447 32.9964V6.16783Z" fill="white"/>
<path fill-rule="evenodd" clip-rule="evenodd" d="M35.0725 32.3465C35.9895 31.1579 36.535 29.668 36.535 28.0507C36.535 24.1633 33.3836 21.0119 29.4961 21.0119C25.6087 21.0119 22.4573 24.1633 22.4573 28.0507C22.4573 31.9382 25.6087 35.0896 29.4961 35.0896C31.1135 35.0896 32.6036 34.544 33.7922 33.6269L37.3026 37.1373C37.6562 37.4909 38.2294 37.4909 38.583 37.1373C38.9365 36.7837 38.9365 36.2105 38.583 35.8569L35.0725 32.3465ZM29.4961 33.2788C32.3835 33.2788 34.7242 30.9381 34.7242 28.0507C34.7242 25.1633 32.3835 22.8226 29.4961 22.8226C26.6087 22.8226 24.268 25.1633 24.268 28.0507C24.268 30.9381 26.6087 33.2788 29.4961 33.2788Z" fill="white"/>
<path d="M10.1042 11.0586C9.69003 11.0586 9.35425 11.3944 9.35425 11.8086C9.35425 12.2228 9.69003 12.5586 10.1042 12.5586H23.1965C23.6107 12.5586 23.9465 12.2228 23.9465 11.8086C23.9465 11.3944 23.6107 11.0586 23.1965 11.0586H10.1042Z" fill="white"/>
<path d="M10.1042 18.0139C9.69003 18.0139 9.35425 18.3496 9.35425 18.7639C9.35425 19.1781 9.69003 19.5139 10.1042 19.5139H19.9234C20.3377 19.5139 20.6734 19.1781 20.6734 18.7639C20.6734 18.3496 20.3377 18.0139 19.9234 18.0139H10.1042Z" fill="white"/>
<path d="M10.1042 24.9691C9.69003 24.9691 9.35425 25.3049 9.35425 25.7191C9.35425 26.1333 9.69003 26.4691 10.1042 26.4691H15.0138C15.4281 26.4691 15.7638 26.1333 15.7638 25.7191C15.7638 25.3049 15.4281 24.9691 15.0138 24.9691H10.1042Z" fill="white"/>
</svg>
