<svg width="42" height="42" viewBox="0 0 42 42" fill="none" xmlns="http://www.w3.org/2000/svg">
<path fill-rule="evenodd" clip-rule="evenodd" d="M16.8113 2.02643H24.0461C24.2574 2.02643 24.4287 2.19772 24.4287 2.40901V7.64384C24.4287 7.85514 24.2574 8.02643 24.0461 8.02643H16.8113C16.6 8.02643 16.4287 7.85514 16.4287 7.64384V2.40901C16.4287 2.19772 16.6 2.02643 16.8113 2.02643ZM14.9287 2.40901C14.9287 1.36929 15.7716 0.526428 16.8113 0.526428H24.0461C25.0858 0.526428 25.9287 1.36929 25.9287 2.40901V7.64384C25.9287 8.68357 25.0858 9.52643 24.0461 9.52643H16.8113C15.7716 9.52643 14.9287 8.68357 14.9287 7.64384V2.40901ZM17.9232 12.7204C17.509 12.7204 17.1732 13.0562 17.1732 13.4704V15.2093C16.5687 15.4118 15.999 15.6923 15.4751 16.0387L13.8804 14.9656C13.7119 14.8522 13.5046 14.812 13.3059 14.8542C13.1072 14.8965 12.9341 15.0175 12.8262 15.1896L11.1566 17.8536C10.9416 18.1966 11.0376 18.6482 11.3734 18.8742L12.5737 19.6818C12.36 20.2437 12.2091 20.8378 12.1296 21.4546L10.5526 21.7136C10.147 21.7802 9.8706 22.1608 9.93276 22.5671L10.4128 25.7044C10.4431 25.9025 10.5514 26.0802 10.7135 26.1979C10.8756 26.3156 11.078 26.3636 11.2757 26.3311L12.9312 26.0592C13.0596 26.3077 13.201 26.5481 13.3545 26.7794L12.261 27.9716C11.988 28.2692 11.9997 28.7296 12.2874 29.013L14.5096 31.2013C14.6546 31.3441 14.8514 31.4218 15.0549 31.4166C15.2584 31.4115 15.451 31.3238 15.5886 31.1738L16.9753 29.662C17.0408 29.6861 17.1068 29.7093 17.1732 29.7315V31.4702C17.1732 31.8845 17.509 32.2202 17.9232 32.2202H20.9889C21.4031 32.2202 21.7389 31.8845 21.7389 31.4702V29.732C21.8672 29.6891 21.9939 29.6426 22.119 29.5928L23.5692 31.1738C23.7067 31.3238 23.8993 31.4115 24.1028 31.4166C24.3063 31.4218 24.5031 31.3441 24.6481 31.2013L26.8703 29.013C27.158 28.7296 27.1697 28.2692 26.8967 27.9716L25.66 26.6233C25.7598 26.4646 25.8541 26.3019 25.9425 26.1355L28.2273 26.4126C28.4258 26.4367 28.6257 26.3805 28.7826 26.2565C28.9395 26.1325 29.0404 25.951 29.0629 25.7523L29.4194 22.5974C29.4656 22.1882 29.1733 21.8182 28.7645 21.7686L26.7934 21.5295C26.7202 20.9159 26.5765 20.3242 26.3706 19.7638L27.6926 18.8743C28.0284 18.6483 28.1243 18.1967 27.9094 17.8537L26.2397 15.1897C26.1318 15.0175 25.9587 14.8965 25.76 14.8543C25.5613 14.8121 25.354 14.8523 25.1855 14.9657L23.5149 16.0898C22.9697 15.7195 22.3735 15.4212 21.7389 15.2088V13.4704C21.7389 13.0562 21.4031 12.7204 20.9889 12.7204H17.9232ZM18.6732 15.7723V14.2204H20.2389V15.7719C20.2389 16.1175 20.475 16.4183 20.8107 16.5005C21.6274 16.7003 22.3804 17.0776 23.0295 17.5935C23.2854 17.797 23.6436 17.8112 23.9149 17.6287L25.3801 16.6427L26.2528 18.0351L25.0242 18.8618C24.718 19.0678 24.6072 19.466 24.763 19.8006C25.1063 20.5381 25.3122 21.359 25.3446 22.2281C25.3583 22.5965 25.6377 22.9003 26.0037 22.9447L27.8453 23.1681L27.6573 24.8325L25.5922 24.582C25.2642 24.5422 24.9489 24.7217 24.8156 25.024C24.6237 25.4595 24.3842 25.8674 24.1042 26.2406C23.8875 26.5294 23.9074 26.9316 24.1514 27.1976L25.302 28.4521L24.1493 29.5872L22.8601 28.1816C22.6348 27.9361 22.2746 27.8686 21.9757 28.0159C21.6065 28.198 21.2165 28.341 20.8107 28.4403C20.475 28.5224 20.2389 28.8233 20.2389 29.1688V30.7202H18.6732V29.1685C18.6732 28.823 18.4372 28.5222 18.1016 28.44C17.7509 28.3541 17.4121 28.2355 17.0883 28.0874C16.7926 27.9521 16.4434 28.0228 16.2236 28.2624L15.0084 29.5872L13.8557 28.4521L14.8737 27.3422C15.1228 27.0706 15.1377 26.6582 14.9088 26.3694C14.5663 25.9373 14.2794 25.4553 14.0598 24.9354C13.925 24.6162 13.5892 24.431 13.2473 24.4871L11.7808 24.728L11.5277 23.0735L12.9456 22.8406C13.2938 22.7834 13.555 22.4912 13.573 22.1388C13.6171 21.2756 13.8325 20.4614 14.1835 19.7312C14.3449 19.3954 14.2354 18.992 13.9262 18.784L12.8131 18.035L13.6858 16.6426L15.0691 17.5735C15.3373 17.7539 15.691 17.7423 15.9467 17.5445C16.581 17.054 17.3115 16.6943 18.1016 16.5008C18.4372 16.4186 18.6732 16.1178 18.6732 15.7723ZM16.9241 22.4704C16.9241 20.9517 18.1553 19.7204 19.6741 19.7204C21.1929 19.7204 22.4241 20.9517 22.4241 22.4704C22.4241 23.9892 21.1929 25.2204 19.6741 25.2204C18.1553 25.2204 16.9241 23.9892 16.9241 22.4704ZM19.6741 18.2204C17.3269 18.2204 15.4241 20.1232 15.4241 22.4704C15.4241 24.8177 17.3269 26.7204 19.6741 26.7204C22.0213 26.7204 23.9241 24.8177 23.9241 22.4704C23.9241 20.1232 22.0213 18.2204 19.6741 18.2204ZM8.06146 38.114C9.99446 38.114 11.5615 36.547 11.5615 34.614C11.5615 32.681 9.99446 31.114 8.06146 31.114C6.12847 31.114 4.56146 32.681 4.56146 34.614C4.56146 36.547 6.12847 38.114 8.06146 38.114ZM8.06146 39.614C10.8229 39.614 13.0615 37.3754 13.0615 34.614C13.0615 31.8525 10.8229 29.614 8.06146 29.614C5.30004 29.614 3.06146 31.8525 3.06146 34.614C3.06146 37.3754 5.30004 39.614 8.06146 39.614ZM33.0739 28.0102L36.0739 26.3436L39.0739 28.0102V31.245L36.0739 32.9117L33.0739 31.245V28.0102ZM35.6167 24.8816C35.901 24.7236 36.2467 24.7236 36.531 24.8816L40.0897 26.8586C40.3885 27.0247 40.5739 27.3396 40.5739 27.6815V31.5738C40.5739 31.9156 40.3885 32.2306 40.0897 32.3966L36.531 34.3737C36.2467 34.5316 35.901 34.5316 35.6167 34.3737L32.058 32.3966C31.7592 32.2306 31.5739 31.9156 31.5739 31.5738V27.6815C31.5739 27.3396 31.7592 27.0247 32.058 26.8586L35.6167 24.8816ZM11.5119 9.09557C11.1102 8.99455 10.8665 8.58702 10.9675 8.18531L11.0673 7.78824C11.0466 7.80088 11.0258 7.81357 11.0051 7.82629C6.15673 10.8058 2.92615 16.1566 2.92615 22.2613C2.92615 24.2508 3.26901 26.1587 3.89825 27.93C4.03691 28.3203 3.8329 28.7491 3.44258 28.8878C3.05227 29.0264 2.62345 28.8224 2.48479 28.4321C1.79908 26.5019 1.42615 24.4243 1.42615 22.2613C1.42615 15.6139 4.94588 9.7893 10.2198 6.54832C10.2484 6.53074 10.277 6.51323 10.3058 6.4958L9.89502 6.39254C9.49331 6.29155 9.24953 5.88403 9.35052 5.48231C9.45151 5.0806 9.85904 4.83682 10.2607 4.93781L12.4209 5.48088C12.6138 5.52938 12.7795 5.65253 12.8816 5.82324C12.9838 5.99395 13.0139 6.19823 12.9654 6.39115L12.4222 8.55112C12.3212 8.95282 11.9137 9.19658 11.5119 9.09557ZM36.2462 20.7205C35.9239 20.4603 35.4517 20.5106 35.1915 20.8329C34.9312 21.1552 34.9816 21.6274 35.3038 21.8876L37.0367 23.2868C37.1914 23.4117 37.3895 23.4701 37.5873 23.449C37.7851 23.4279 37.9664 23.3291 38.0914 23.1744L39.4906 21.4413C39.7508 21.119 39.7004 20.6468 39.3781 20.3866C39.0559 20.1264 38.5837 20.1768 38.3235 20.4991L38.2153 20.633C37.6932 14.67 34.3312 9.52178 29.4926 6.54832C29.2018 6.36959 28.9056 6.1987 28.6043 6.03595C28.2399 5.83906 27.7849 5.97488 27.588 6.33931C27.3911 6.70374 27.5269 7.15878 27.8913 7.35566C28.168 7.50514 28.4401 7.66211 28.7073 7.82629C33.2528 10.6197 36.3763 15.4973 36.7488 21.1264L36.2462 20.7205ZM16.5917 37.1612C16.8384 37.4939 16.7687 37.9636 16.436 38.2103L15.801 38.6812C15.8674 38.7049 15.9308 38.7273 15.9904 38.7482C17.2313 39.0379 18.5254 39.1914 19.8562 39.1914C23.102 39.1914 26.1324 38.2787 28.7073 36.6963C29.6676 36.1062 30.5647 35.4228 31.3858 34.6587C31.6891 34.3766 32.1636 34.3937 32.4458 34.6969C32.728 35.0002 32.7109 35.4747 32.4076 35.7569C31.5142 36.5882 30.538 37.3319 29.4926 37.9743C26.6883 39.6977 23.3871 40.6914 19.8562 40.6914C18.5907 40.6914 17.3544 40.5637 16.1595 40.3204C16.3698 40.6494 16.2923 41.0898 15.9739 41.326C15.6412 41.5727 15.1714 41.5031 14.9247 41.1704L13.5978 39.3813C13.4793 39.2216 13.4292 39.0213 13.4584 38.8245C13.4876 38.6277 13.5937 38.4506 13.7535 38.3321L15.5425 37.0055C15.8752 36.7588 16.3449 36.8285 16.5917 37.1612Z" fill="white"/>
</svg>
