<svg width="42" height="42" viewBox="0 0 42 42" fill="none" xmlns="http://www.w3.org/2000/svg">
<path fill-rule="evenodd" clip-rule="evenodd" d="M16.6456 4.53693V9.53693H20.3956V9.53507H21.8956V9.53693H25.6456V4.53693H16.6456ZM16.5686 11.0369H20.3956V28.9265C20.3592 28.9438 20.3232 28.9624 20.2877 28.9824L17.2877 30.6699C16.7366 30.9798 16.3956 31.5629 16.3956 32.1951V35.5254C16.3956 36.1577 16.7366 36.7407 17.2877 37.0507L20.2877 38.7382C20.8204 39.0379 21.4709 39.0379 22.0036 38.7382L25.0036 37.0507C25.5546 36.7407 25.8956 36.1577 25.8956 35.5254V32.1951C25.8956 31.868 25.8044 31.5541 25.6399 31.2843L31.3302 23.3882C32.0052 23.7041 32.7585 23.8806 33.553 23.8806C36.4525 23.8806 38.803 21.5301 38.803 18.6306C38.803 15.7311 36.4525 13.3806 33.553 13.3806C30.6536 13.3806 28.303 15.7311 28.303 18.6306C28.303 20.1962 28.9884 21.6018 30.0755 22.5637L24.4559 30.3618L22.0036 28.9824C21.9681 28.9624 21.9321 28.9438 21.8956 28.9265V11.0369H26.1456C26.6979 11.0369 27.1456 10.5892 27.1456 10.0369V4.03693C27.1456 3.48464 26.6979 3.03693 26.1456 3.03693H16.1456C15.5933 3.03693 15.1456 3.48464 15.1456 4.03693V10.0369C15.1456 10.153 15.1654 10.2644 15.2017 10.368L11.2079 15.91L11.1969 15.91H4.1969C3.64461 15.91 3.1969 16.3577 3.1969 16.91V23.91C3.1969 24.4622 3.64461 24.91 4.1969 24.91H11.1969C11.7492 24.91 12.1969 24.4622 12.1969 23.91V17.1033L16.5686 11.0369ZM4.6969 23.41V17.41H10.6969V23.41H4.6969ZM33.553 14.8806C31.482 14.8806 29.803 16.5595 29.803 18.6306C29.803 20.7016 31.482 22.3806 33.553 22.3806C35.6241 22.3806 37.303 20.7016 37.303 18.6306C37.303 16.5595 35.6241 14.8806 33.553 14.8806ZM18.0231 35.7433C17.9443 35.6991 17.8956 35.6158 17.8956 35.5254V32.1951C17.8956 32.1048 17.9443 32.0215 18.0231 31.9772L21.0231 30.2897C21.0992 30.2469 21.1921 30.2469 21.2682 30.2897L24.2682 31.9772C24.3469 32.0215 24.3956 32.1048 24.3956 32.1951V35.5254C24.3956 35.6158 24.3469 35.6991 24.2682 35.7433L21.2682 37.4308C21.1921 37.4736 21.0992 37.4736 21.0231 37.4308L18.0231 35.7433Z" fill="white"/>
</svg>
