<svg width="42" height="42" viewBox="0 0 42 42" fill="none" xmlns="http://www.w3.org/2000/svg">
<g id="Vector Distances (L2, IP, Cosine)" clip-path="url(#clip0_1_174)">
<path id="Vector Distances (L2, IP, Cosine)_2" fill-rule="evenodd" clip-rule="evenodd" d="M40.2752 9.10565L41.0217 9.17829C41.0453 8.93634 41.0573 8.69102 41.0573 8.44288C41.0573 8.19474 41.0453 7.94942 41.0217 7.70747L40.2752 7.78011L39.5288 7.85276C39.5476 8.0465 39.5573 8.24334 39.5573 8.44288C39.5573 8.64242 39.5476 8.83926 39.5288 9.033L40.2752 9.10565ZM40.0184 6.48247L40.7362 6.26501C40.5925 5.79068 40.4031 5.33623 40.1731 4.90677L39.5119 5.26089L38.8508 5.61501C39.0347 5.95832 39.1859 6.32131 39.3007 6.69994L40.0184 6.48247ZM38.7756 4.16098L39.3551 3.68486C39.0433 3.30531 38.6949 2.95692 38.3153 2.64508L37.8392 3.22457L37.3631 3.80406C37.6672 4.05389 37.9463 4.33303 38.1961 4.6371L38.7756 4.16098ZM36.7393 2.48827L37.0934 1.82714C36.664 1.59711 36.2095 1.40769 35.7352 1.26398L35.5177 1.98176L35.3003 2.69954C35.6789 2.81425 36.0419 2.96553 36.3852 3.14941L36.7393 2.48827ZM34.2201 1.72495L34.2927 0.978476C34.0508 0.954929 33.8055 0.942879 33.5573 0.942879C33.3092 0.942879 33.0639 0.954929 32.8219 0.978476L32.8946 1.72495L32.9672 2.47142C33.1609 2.45257 33.3578 2.44288 33.5573 2.44288C33.7569 2.44288 33.9537 2.45257 34.1474 2.47142L34.2201 1.72495ZM31.5969 1.98176L31.3794 1.26398C30.9051 1.40768 30.4507 1.59711 30.0212 1.82714L30.3753 2.48827L30.7295 3.14941C31.0728 2.96553 31.4357 2.81425 31.8144 2.69954L31.5969 1.98176ZM29.2754 3.22457L28.7993 2.64508C28.4198 2.95692 28.0714 3.30531 27.7595 3.68486L28.339 4.16098L28.9185 4.6371C29.1683 4.33303 29.4475 4.05389 29.7515 3.80406L29.2754 3.22457ZM27.6027 5.26089L26.9416 4.90677C26.7116 5.33623 26.5221 5.79068 26.3784 6.265L27.0962 6.48247L27.814 6.69994C27.9287 6.32131 28.08 5.95832 28.2639 5.61501L27.6027 5.26089ZM26.0573 8.44288C26.0573 8.19474 26.0694 7.94942 26.0929 7.70747L26.8394 7.78011L27.5859 7.85276C27.567 8.0465 27.5573 8.24333 27.5573 8.44288C27.5573 8.64242 27.567 8.83926 27.5859 9.033L26.8394 9.10564L26.0929 9.17829C26.0694 8.93634 26.0573 8.69102 26.0573 8.44288ZM27.0962 10.4033L26.3784 10.6208C26.5221 11.0951 26.7116 11.5495 26.9416 11.979L27.6027 11.6249L28.2639 11.2707C28.08 10.9274 27.9287 10.5645 27.814 10.1858L27.0962 10.4033ZM28.339 12.7248L27.7595 13.2009C28.0714 13.5804 28.4197 13.9288 28.7993 14.2407L29.2754 13.6612L29.7515 13.0817C29.4475 12.8319 29.1683 12.5527 28.9185 12.2487L28.339 12.7248ZM30.3753 14.3975L30.0212 15.0586C30.4507 15.2886 30.9051 15.4781 31.3794 15.6218L31.5969 14.904L31.8144 14.1862C31.4357 14.0715 31.0728 13.9202 30.7294 13.7363L30.3753 14.3975ZM33.5573 15.9429C33.3092 15.9429 33.0639 15.9308 32.8219 15.9073L32.8946 15.1608L32.9672 14.4143C33.1609 14.4332 33.3578 14.4429 33.5573 14.4429C33.7569 14.4429 33.9537 14.4332 34.1474 14.4143L34.2201 15.1608L34.2927 15.9073C34.0508 15.9308 33.8055 15.9429 33.5573 15.9429ZM35.5177 14.904L35.7352 15.6218C36.2095 15.4781 36.664 15.2886 37.0934 15.0586L36.7393 14.3975L36.3852 13.7363C36.0419 13.9202 35.6789 14.0715 35.3003 14.1862L35.5177 14.904ZM37.8392 13.6612L38.3153 14.2407C38.6949 13.9288 39.0433 13.5805 39.3551 13.2009L38.7756 12.7248L38.1961 12.2487C37.9463 12.5527 37.6672 12.8319 37.3631 13.0817L37.8392 13.6612ZM39.5119 11.6249L40.1731 11.979C40.4031 11.5495 40.5925 11.0951 40.7362 10.6208L40.0184 10.4033L39.3007 10.1858C39.1859 10.5645 39.0347 10.9274 38.8508 11.2708L39.5119 11.6249ZM15.9072 34.2925L15.1607 34.2198L14.4142 34.1472C14.4331 33.9534 14.4427 33.7566 14.4427 33.5571C14.4427 33.3575 14.4331 33.1607 14.4142 32.9669L15.1607 32.8943L15.9072 32.8216C15.9307 33.0636 15.9427 33.3089 15.9427 33.5571C15.9427 33.8052 15.9307 34.0505 15.9072 34.2925ZM15.6217 31.3792L14.9039 31.5967L14.1861 31.8141C14.0714 31.4355 13.9201 31.0725 13.7362 30.7292L14.3974 30.3751L15.0585 30.021C15.2885 30.4504 15.4779 30.9049 15.6217 31.3792ZM14.2406 28.799L13.6611 29.2752L13.0816 29.7513C12.8317 29.4472 12.5526 29.1681 12.2485 28.9182L12.7247 28.3388L13.2008 27.7593C13.5803 28.0711 13.9287 28.4195 14.2406 28.799ZM11.9789 26.9413L11.6247 27.6025L11.2706 28.2636C10.9273 28.0797 10.5643 27.9284 10.1857 27.8137L10.4032 27.0959L10.6206 26.3782C11.0949 26.5219 11.5494 26.7113 11.9789 26.9413ZM9.17816 26.0927L9.10552 26.8391L9.03287 27.5856C8.83913 27.5668 8.64229 27.5571 8.44275 27.5571C8.24321 27.5571 8.04637 27.5668 7.85263 27.5856L7.77998 26.8391L7.70734 26.0927C7.94929 26.0691 8.19461 26.0571 8.44275 26.0571C8.69089 26.0571 8.93621 26.0691 9.17816 26.0927ZM6.26488 26.3782L6.48234 27.0959L6.69981 27.8137C6.32118 27.9284 5.95819 28.0797 5.61488 28.2636L5.26076 27.6025L4.90665 26.9413C5.3361 26.7113 5.79055 26.5219 6.26488 26.3782ZM3.68473 27.7593L4.16085 28.3388L4.63697 28.9182C4.3329 29.1681 4.05376 29.4472 3.80393 29.7513L3.22444 29.2752L2.64495 28.799C2.95679 28.4195 3.30518 28.0711 3.68473 27.7593ZM1.82701 30.021L2.48814 30.3751L3.14928 30.7292C2.9654 31.0725 2.81412 31.4355 2.69941 31.8141L1.98163 31.5967L1.26385 31.3792C1.40756 30.9049 1.59698 30.4504 1.82701 30.021ZM0.978347 32.8216C0.954799 33.0636 0.942749 33.3089 0.942749 33.5571C0.942749 33.8052 0.954799 34.0505 0.978346 34.2925L1.72482 34.2198L2.47129 34.1472C2.45244 33.9534 2.44275 33.7566 2.44275 33.5571C2.44275 33.3575 2.45244 33.1607 2.47129 32.9669L1.72482 32.8943L0.978347 32.8216ZM1.26385 35.7349L1.98163 35.5175L2.69941 35.3C2.81412 35.6786 2.9654 36.0416 3.14928 36.3849L2.48814 36.739L1.82701 37.0932C1.59698 36.6637 1.40756 36.2093 1.26385 35.7349ZM2.64495 38.3151L3.22444 37.839L3.80393 37.3628C4.05376 37.6669 4.3329 37.9461 4.63697 38.1959L4.16085 38.7754L3.68473 39.3549C3.30518 39.043 2.95679 38.6946 2.64495 38.3151ZM4.90664 40.1728L5.26076 39.5117L5.61488 38.8505C5.95819 39.0344 6.32118 39.1857 6.69981 39.3004L6.48234 40.0182L6.26488 40.736C5.79055 40.5923 5.3361 40.4028 4.90664 40.1728ZM7.70734 41.0215C7.94929 41.045 8.19461 41.0571 8.44275 41.0571C8.69089 41.0571 8.93621 41.045 9.17816 41.0215L9.10551 40.275L9.03287 39.5285C8.83913 39.5474 8.64229 39.5571 8.44275 39.5571C8.24321 39.5571 8.04637 39.5474 7.85263 39.5285L7.77998 40.275L7.70734 41.0215ZM10.6206 40.736L10.4032 40.0182L10.1857 39.3004C10.5643 39.1857 10.9273 39.0344 11.2706 38.8505L11.6247 39.5117L11.9789 40.1728C11.5494 40.4028 11.0949 40.5923 10.6206 40.736ZM13.2008 39.3549L12.7247 38.7754L12.2485 38.1959C12.5526 37.9461 12.8317 37.6669 13.0816 37.3628L13.6611 37.839L14.2406 38.3151C13.9287 38.6946 13.5803 39.043 13.2008 39.3549ZM15.0585 37.0932L14.3974 36.739L13.7362 36.3849C13.9201 36.0416 14.0714 35.6786 14.1861 35.3L14.9039 35.5175L15.6217 35.7349C15.4779 36.2093 15.2885 36.6637 15.0585 37.0932ZM11.4427 33.5571C11.4427 35.2139 10.0996 36.5571 8.44274 36.5571C6.78589 36.5571 5.44274 35.2139 5.44274 33.5571C5.44274 31.9002 6.78589 30.5571 8.44274 30.5571C10.0996 30.5571 11.4427 31.9002 11.4427 33.5571ZM36.5574 8.44287C36.5574 10.0997 35.2142 11.4429 33.5574 11.4429C31.9005 11.4429 30.5574 10.0997 30.5574 8.44287C30.5574 6.78601 31.9005 5.44287 33.5574 5.44287C35.2142 5.44287 36.5574 6.78601 36.5574 8.44287ZM24.7655 16.3489L23.4816 16.3489C23.0674 16.3489 22.7316 16.0132 22.7316 15.5989C22.7316 15.1847 23.0674 14.8489 23.4816 14.8489L26.4816 14.8489C26.8959 14.8489 27.2316 15.1847 27.2316 15.5989V18.5989C27.2316 19.0132 26.8959 19.3489 26.4816 19.3489C26.0674 19.3489 25.7316 19.0132 25.7316 18.5989V17.5041L17.5846 25.6512H18.5185C18.9327 25.6512 19.2685 25.987 19.2685 26.4012C19.2685 26.8154 18.9327 27.1512 18.5185 27.1512H15.5185C15.3196 27.1512 15.1288 27.0722 14.9882 26.9315C14.8475 26.7909 14.7685 26.6001 14.7685 26.4012V23.4012C14.7685 22.987 15.1043 22.6512 15.5185 22.6512C15.9327 22.6512 16.2685 22.987 16.2685 23.4012V24.8459L24.7655 16.3489Z" fill="white"/>
</g>
<defs>
<clipPath id="clip0_1_174">
<rect width="42" height="42" fill="white"/>
</clipPath>
</defs>
</svg>
