<svg width="42" height="42" viewBox="0 0 42 42" fill="none" xmlns="http://www.w3.org/2000/svg">
<path fill-rule="evenodd" clip-rule="evenodd" d="M11.4005 5.625C9.74366 5.625 8.40051 6.96815 8.40051 8.625V16.5982C8.40051 17.1505 8.84823 17.5982 9.40051 17.5982C9.9528 17.5982 10.4005 17.1505 10.4005 16.5982V8.625C10.4005 8.07272 10.8482 7.625 11.4005 7.625H30.3096C30.8619 7.625 31.3096 8.07271 31.3096 8.625V25.625C31.3096 26.1773 30.8619 26.625 30.3096 26.625H22.6851C22.1328 26.625 21.6851 27.0727 21.6851 27.625C21.6851 28.1773 22.1328 28.625 22.6851 28.625H30.3096C31.9665 28.625 33.3096 27.2819 33.3096 25.625V22.6158L38.4284 24.1723C39.0707 24.3676 39.7193 23.887 39.7193 23.2155V11.0342C39.7193 10.3628 39.0707 9.88213 38.4284 10.0775L33.3096 11.6339V8.625C33.3096 6.96815 31.9665 5.625 30.3096 5.625H11.4005ZM37.7193 12.3835L33.3997 13.6969V20.5528L37.7193 21.8663V12.3835Z" fill="white"/>
<path fill-rule="evenodd" clip-rule="evenodd" d="M25.1043 18.6023C26.1867 17.9148 26.1867 16.3352 25.1043 15.6477L20.4696 12.7043C19.3045 11.9644 17.7814 12.8014 17.7814 14.1816V20.0684C17.7814 21.4486 19.3045 22.2856 20.4696 21.5457L25.1043 18.6023ZM24.3002 16.914C24.4548 17.0122 24.4548 17.2378 24.3002 17.336L19.6655 20.2795C19.499 20.3852 19.2814 20.2656 19.2814 20.0684V14.1816C19.2814 13.9844 19.499 13.8648 19.6655 13.9705L24.3002 16.914Z" fill="white"/>
<path fill-rule="evenodd" clip-rule="evenodd" d="M12.253 19.875C8.53918 19.875 5.46892 22.7586 5.46892 26.3875C5.46892 27.3974 5.70878 28.3539 6.13563 29.2063L2.98967 32.3077C2.02037 33.2633 2.04866 34.7998 3.05249 35.719C4.03425 36.618 5.58352 36.5895 6.53151 35.6549L9.7791 32.4534C10.5468 32.7421 11.3817 32.9001 12.253 32.9001C15.9668 32.9001 19.0371 30.0165 19.0371 26.3875C19.0371 22.7586 15.9668 19.875 12.253 19.875ZM6.96892 26.3875C6.96892 23.6514 9.30177 21.375 12.253 21.375C15.2043 21.375 17.5371 23.6514 17.5371 26.3875C17.5371 29.1237 15.2043 31.4001 12.253 31.4001C11.4153 31.4001 10.626 31.2156 9.92535 30.8889L9.45297 30.6685L5.47845 34.5867C5.0992 34.9606 4.45827 34.9724 4.06552 34.6128C3.69484 34.2733 3.68481 33.7288 4.04274 33.3759L8.02411 29.4509L7.70518 28.9412C7.23661 28.1923 6.96892 27.3198 6.96892 26.3875Z" fill="white"/>
</svg>
